<svg xmlns="http://www.w3.org/2000/svg" width="145" height="32" fill="none" viewBox="0 0 145 32"><path fill="url(#logo-large_svg__a)" fill-rule="evenodd" d="m28.764 3.5-.766-.376A30.7 30.7 0 0 0 14.445 0C9.678 0 5.065 1.08.892 3.124L.126 3.5l-.058.839Q0 5.344 0 6.356c0 10.125 5.181 19.389 13.62 24.878l.825.537.825-.537c8.439-5.49 13.62-14.753 13.62-24.878q0-1.013-.069-2.017zM3.006 5.382a27.7 27.7 0 0 1 11.439-2.448c4.006 0 7.886.843 11.439 2.448q.017.486.017.974c0 8.796-4.334 16.868-11.456 21.874C7.323 23.224 2.989 15.152 2.989 6.356q0-.488.017-.974" clip-rule="evenodd"></path><path fill="#fff" d="M20.779 8.774V8.77c-2.007-.572-4.197-.945-6.333-.945-2.204 0-4.267.336-6.333.945.547 4.97 2.796 9.55 6.33 13.06 2.393-2.376 4.195-5.215 5.28-8.344a17.7 17.7 0 0 0-5.18-.768h-.098V9.782h.106a20.8 20.8 0 0 1 8.8 1.952c-1.757 7.847-7.153 12.688-8.908 14.082-2.098-1.68-9.462-8.31-9.462-19.166 4.115-1.465 6.53-1.754 9.465-1.754 2.86 0 5.379.3 9.463 1.752 0 1.092-.075 2.142-.211 3.147a23.5 23.5 0 0 0-2.92-1.02M57.064 18.162l-4.056-9h-3.246l5.68 12.6h3.245l5.68-12.6H61.12z"></path><path fill="#fff" fill-rule="evenodd" d="M132.328 21.762v-6.158l.002-.138c0-3.458-2.671-6.304-6.824-6.304-4.152 0-6.744 2.846-6.744 6.304 0 3.483 2.539 6.304 6.771 6.304 1.367 0 2.561-.295 3.55-.811v.803zm-10.339-6.296c0-1.815 1.217-3.581 3.544-3.581 2.169 0 3.544 1.766 3.544 3.581 0 1.84-1.19 3.557-3.544 3.557s-3.544-1.717-3.544-3.557M50.167 15.466c0-3.458-2.671-6.304-6.823-6.304S36.6 12.008 36.6 15.466c0 3.483 2.539 6.304 6.77 6.304 4.232 0 6.797-2.82 6.797-6.304m-10.34 0c0-1.815 1.216-3.581 3.543-3.581 2.169 0 3.544 1.766 3.544 3.581 0 1.84-1.19 3.557-3.544 3.557s-3.544-1.717-3.544-3.557M99.433 7.341l-1.208 2.15a8 8 0 0 0-2.323-.329c-4.152 0-6.744 2.846-6.744 6.304 0 3.483 2.539 6.304 6.77 6.304 1.365 0 2.556-.293 3.544-.808v.8h-.001l.001.098c0 1.84-1.255 3.557-3.737 3.557-1.71 0-2.83-.744-3.56-1.746l-1.389 2.473c1.166 1.243 2.921 2.02 5.142 2.02 4.232 0 6.797-2.821 6.797-6.304l-.001-.134v-6.122l.001-.138c0-1.68-.63-3.214-1.754-4.35l1.34-2.385zm-7.049 8.125c0-1.815 1.217-3.58 3.544-3.58 2.169 0 3.544 1.765 3.544 3.58 0 1.84-1.19 3.557-3.544 3.557s-3.544-1.717-3.544-3.557" clip-rule="evenodd"></path><path fill="#fff" d="M134.361 9.162v12.6h3.254l-.005-6.519c0-2.25 1.573-3.09 3.279-3.09 1.067 0 1.68.272 2.347.791l1.466-2.62c-.72-.667-2.026-1.162-3.386-1.162-1.333 0-2.693.223-3.706 1.73l.005-1.73zM79.411 9.162v12.6h3.254l-.005-6.519c0-2.25 1.574-3.09 3.28-3.09 1.066 0 1.68.272 2.346.791l1.466-2.62c-.72-.667-2.026-1.162-3.386-1.162-1.333 0-2.692.223-3.706 1.73l.005-1.73z"></path><path fill="#fff" fill-rule="evenodd" d="M111.279 19.077c-1.795 0-3.039-.681-3.571-1.71l9.816-1.274c.293-4.613-2.36-6.93-6.532-6.93s-6.834 2.611-6.834 6.239c0 3.82 2.635 6.36 7.069 6.36 1.956 0 4.174-.629 5.53-1.935l-2.035-1.862c-.73.701-2.269 1.112-3.443 1.112m3.147-5.045-7.055.918.001-.02c.003-.083.016-.415.133-.862.478-1.53 1.88-2.294 3.592-2.294 1.8 0 3.094.753 3.329 2.258M71.117 19.077c-1.796 0-3.04-.681-3.572-1.71l9.817-1.274c.292-4.613-2.36-6.93-6.532-6.93-4.174 0-6.835 2.611-6.835 6.239 0 3.82 2.635 6.36 7.07 6.36 1.956 0 4.173-.629 5.53-1.935l-2.035-1.862c-.73.701-2.27 1.112-3.443 1.112m3.147-5.045-7.055.918v-.02c.004-.083.017-.415.134-.862.477-1.53 1.88-2.294 3.591-2.294 1.8 0 3.094.753 3.33 2.258" clip-rule="evenodd"></path><defs><linearGradient id="logo-large_svg__a" x1="28.89" x2="28.89" y1="31.771" y2="0" gradientUnits="userSpaceOnUse"><stop stop-color="#564FFF"></stop><stop offset="1" stop-color="#FD3F5B"></stop></linearGradient></defs></svg>