<svg width="14" height="13" viewBox="0 0 14 13" fill="none" xmlns="http://www.w3.org/2000/svg">
<path d="M6.83366 3.26034C7.13281 3.26034 7.37532 3.50285 7.37532 3.802V5.95898H9.03338C9.33254 5.95898 9.57505 6.2015 9.57505 6.50065C9.57505 6.7998 9.33254 7.04232 9.03338 7.04232H6.93617C6.90298 7.04867 6.86871 7.052 6.83366 7.052C6.5345 7.052 6.29199 6.80949 6.29199 6.51034V3.802C6.29199 3.50285 6.5345 3.26034 6.83366 3.26034Z" fill="#A7A7C8"/>
<path fill-rule="evenodd" clip-rule="evenodd" d="M1.41699 6.50065C1.41699 3.50911 3.84212 1.08398 6.83366 1.08398C9.8252 1.08398 12.2503 3.50911 12.2503 6.50065C12.2503 9.49219 9.8252 11.9173 6.83366 11.9173C3.84212 11.9173 1.41699 9.49219 1.41699 6.50065ZM6.83366 2.16732C4.44042 2.16732 2.50033 4.10742 2.50033 6.50065C2.50033 8.89388 4.44042 10.834 6.83366 10.834C9.22689 10.834 11.167 8.89388 11.167 6.50065C11.167 4.10742 9.22689 2.16732 6.83366 2.16732Z" fill="#A7A7C8"/>
</svg>
