<svg width="229" height="60" viewBox="0 0 229 60" fill="none" xmlns="http://www.w3.org/2000/svg">
<path d="M79.1562 6.52148H90.6245V20.5807H88.1542V8.75077H81.6265V20.5807H79.1562V6.52148Z" fill="#EF7A1C" stroke="#EF7A1C" stroke-width="0.0011623" stroke-miterlimit="10"/>
<path d="M102.756 14.9977L100.326 9.37414L97.9158 14.9977H102.756ZM99.2211 6.42188H101.511L107.697 20.5809H105.086L103.66 17.1871H97.0117L95.5658 20.5809H93.0352L99.2211 6.42188Z" fill="#EF7A1C" stroke="#EF7A1C" stroke-width="0.0011623" stroke-miterlimit="10"/>
<path d="M109.384 20.0987L110.328 18.2511C110.891 18.5725 111.433 18.6927 112.056 18.6927C112.678 18.6927 113.562 18.311 114.265 17.1664L108.4 6.52148H111.172L115.55 14.6962L119.407 6.52148H122.077L116.595 17.5077C115.41 19.8977 113.964 20.8017 112.136 20.8017C111.051 20.8017 110.208 20.5408 109.384 20.0987Z" fill="#EF7A1C" stroke="#EF7A1C" stroke-width="0.0011623" stroke-miterlimit="10"/>
<path d="M123.242 18.4121L124.829 16.785C126.054 17.9101 127.178 18.6132 128.946 18.6132C131.336 18.6132 133.144 16.8858 133.525 14.5558H127.219V12.4472H133.505C133.083 10.1775 131.276 8.51054 128.946 8.51054C127.32 8.51054 126.074 9.17314 124.949 10.1775L123.544 8.49057C124.869 7.24521 126.396 6.28125 128.926 6.28125C133.164 6.28125 136.156 9.5748 136.156 13.5519C136.156 17.6287 133.124 20.8225 129.026 20.8225C126.375 20.8225 124.688 19.9384 123.242 18.4121Z" fill="#EF7A1C" stroke="#EF7A1C" stroke-width="0.0011623" stroke-miterlimit="10"/>
<path d="M144.495 13.833C146.363 13.833 147.527 12.7887 147.527 11.2824C147.527 9.63538 146.343 8.77171 144.495 8.77171H141.623V13.833H144.495ZM139.152 6.52246H144.696C147.969 6.52246 150.038 8.39002 150.038 11.2624C150.038 14.4153 147.507 16.0623 144.414 16.0623H141.623V20.5812H139.152V6.52246Z" fill="#EF7A1C" stroke="#EF7A1C" stroke-width="0.0011623" stroke-miterlimit="10"/>
<path d="M79.1562 24.5586H81.5866V34.8219L88.6965 24.5586H91.0062V38.6178H88.5758V28.3745L81.4863 38.6178H79.1562V24.5586Z" fill="#EF7A1C" stroke="#EF7A1C" stroke-width="0.0011623" stroke-miterlimit="10"/>
<path d="M94.6406 24.5586H97.1109V30.4032H103.819V24.5586H106.289V38.6178H103.819V32.6929H97.1109V38.6178H94.6406V24.5586Z" fill="#EF7A1C" stroke="#EF7A1C" stroke-width="0.0011623" stroke-miterlimit="10"/>
<path d="M113.361 26.8482H108.902V24.5586H120.31V26.8482H115.851V38.6178H113.361V26.8482Z" fill="#EF7A1C" stroke="#EF7A1C" stroke-width="0.0011623" stroke-miterlimit="10"/>
<path d="M122.922 24.5586H133.346V26.7679H125.392V30.4232H132.442V32.6325H125.392V36.4085H133.446V38.6178H122.922V24.5586Z" fill="#EF7A1C" stroke="#EF7A1C" stroke-width="0.0011623" stroke-miterlimit="10"/>
<path d="M141.721 31.8691C143.589 31.8691 144.754 30.8248 144.754 29.3185C144.754 27.6715 143.569 26.8078 141.721 26.8078H138.849V31.8691H141.721ZM136.379 24.5586H141.922C145.196 24.5586 147.264 26.4262 147.264 29.2986C147.264 32.4514 144.734 34.0984 141.641 34.0984H138.849V38.6174H136.379V24.5586Z" fill="#EF7A1C" stroke="#EF7A1C" stroke-width="0.0011623" stroke-miterlimit="10"/>
<path d="M149.797 24.5586H152.267V30.4032H158.975V24.5586H161.446V38.6178H158.975V32.6929H152.267V38.6178H149.797V24.5586Z" fill="#EF7A1C" stroke="#EF7A1C" stroke-width="0.0011623" stroke-miterlimit="10"/>
<path d="M163.896 36.4482L165.484 34.8212C166.709 35.9463 167.833 36.6493 169.6 36.6493C171.99 36.6493 173.799 34.9219 174.18 32.5919H167.874V30.4833H174.16C173.738 28.2136 171.93 26.5467 169.6 26.5467C167.974 26.5467 166.728 27.2093 165.604 28.2136L164.198 26.5267C165.524 25.2813 167.05 24.3174 169.58 24.3174C173.818 24.3174 176.811 27.6109 176.811 31.588C176.811 35.6649 173.778 38.8586 169.681 38.8586C167.03 38.8586 165.342 37.9745 163.896 36.4482Z" fill="#EF7A1C" stroke="#EF7A1C" stroke-width="0.0011623" stroke-miterlimit="10"/>
<path d="M179.805 24.5586H182.255V36.4085H187.778V24.5586H190.249V36.4085H195.772V24.5586H198.222V38.6178H179.805V24.5586Z" fill="#EF7A1C" stroke="#EF7A1C" stroke-width="0.0011623" stroke-miterlimit="10"/>
<path d="M201.84 24.5586H204.31V30.4032H211.018V24.5586H213.489V38.6178H211.018V32.6929H204.31V38.6178H201.84V24.5586Z" fill="#EF7A1C" stroke="#EF7A1C" stroke-width="0.0011623" stroke-miterlimit="10"/>
<path d="M215.396 38.5575L215.637 36.5288C215.818 36.5891 216.139 36.6495 216.441 36.6495C217.867 36.6495 219.192 35.7454 219.192 27.3302V24.5586H228.833V38.6178H226.363V26.7879H221.502V28.0532C221.502 36.9908 219.875 38.7785 217.103 38.7785C216.561 38.7785 215.778 38.6578 215.396 38.5575Z" fill="#EF7A1C" stroke="#EF7A1C" stroke-width="0.0011623" stroke-miterlimit="10"/>
<path d="M79.1562 42.5938H81.6066V54.4437H87.1299V42.5938H89.6001V54.4437H95.1235V42.5938H97.5738V56.653H79.1562V42.5938Z" fill="#818282" stroke="#818282" stroke-width="0.0011623" stroke-miterlimit="10"/>
<path d="M101.188 42.5938H103.618V52.857L110.728 42.5938H113.037V56.653H110.607V46.4097L103.518 56.653H101.188V42.5938Z" fill="#818282" stroke="#818282" stroke-width="0.0011623" stroke-miterlimit="10"/>
<path d="M116.674 42.5938H119.144V48.4384H125.852V42.5938H128.323V56.653H125.852V50.728H119.144V56.653H116.674V42.5938Z" fill="#818282" stroke="#818282" stroke-width="0.0011623" stroke-miterlimit="10"/>
<path d="M144.572 42.5938H147.023V56.653H144.572V42.5938ZM137.563 54.4437C139.391 54.4437 140.455 53.6204 140.455 52.0338C140.455 50.5873 139.391 49.804 137.523 49.804H134.39V54.4437H137.563ZM131.939 42.5938H134.39V47.655H137.623C140.776 47.655 142.905 49.2217 142.905 52.0537C142.905 54.8857 140.857 56.653 137.603 56.653H131.939V42.5938Z" fill="#818282" stroke="#818282" stroke-width="0.0011623" stroke-miterlimit="10"/>
<path d="M43.4417 12.5662L49.8995 0L61.4181 19.7218L51.1211 38.5709H42.3945L53.2154 19.8963L48.974 12.6309L43.4417 12.5662Z" fill="#EF7A1C"/>
<path d="M31.0273 41.9727L35.214 49.2537H56.5111L67.4327 30.6869L63.5193 23.6787L52.747 41.9318L31.0273 41.9727Z" fill="#EF7A1C"/>
<path d="M54.8699 52.4741L50.8225 60H28.878L18.6328 41.0277L22.5538 34.1973L33.1151 52.2844L54.8699 52.4741Z" fill="#818282"/>
<path d="M25.4304 22.2129H17.1221L6.21289 40.9247L16.7609 59.8532H24.9969L14.5211 40.8524L25.4304 22.2129Z" fill="#818282"/>
<path d="M12.5703 8.70201L17.2665 1.33301H38.5788L42.7693 8.70201L40.3128 14.626H46.454L49.7048 19.7558L45.298 26.4023L34.172 8.84651L12.5703 8.70201Z" fill="#BABABA"/>
<path d="M0 30.3486L4.65013 37.3644L15.4187 19.0087H36.7927L32.3874 11.748H11.0951L0 30.3486Z" fill="#BABABA"/>
</svg>
