<svg width="44" height="40" viewBox="0 0 44 40" fill="none" xmlns="http://www.w3.org/2000/svg">
<path d="M28.2043 9.15672L32.397 0.998047L39.8755 13.8025L33.1902 26.0404H27.5244L34.5499 13.9158L31.7962 9.1987L28.2043 9.15672Z" fill="#BABABA"/>
<path d="M20.1445 28.2505L22.8628 32.9777H36.6899L43.7808 20.9232L41.2401 16.373L34.2461 28.2239L20.1445 28.2505Z" fill="#BABABA"/>
<path d="M35.6247 35.0684L32.9969 39.9546H18.7494L12.0977 27.6368L14.6434 23.2021L21.5003 34.9453L35.6247 35.0684Z" fill="#BABABA"/>
<path d="M16.5122 15.4199H11.118L4.03516 27.5686L10.8835 39.858H16.2307L9.42932 27.5217L16.5122 15.4199Z" fill="#BABABA"/>
<path d="M8.16211 6.64861L11.2112 1.86426H25.0482L27.7689 6.64861L26.174 10.4948H30.1612L32.2718 13.8253L29.4107 18.1406L22.1871 6.74243L8.16211 6.64861Z" fill="#BABABA"/>
<path d="M0 20.7024L3.01911 25.2575L10.0106 13.34H23.8878L21.0276 8.62598H7.20353L0 20.7024Z" fill="#BABABA"/>
</svg>
