<svg width="436" height="30" viewBox="0 0 436 30" fill="none" xmlns="http://www.w3.org/2000/svg">
<mask id="mask0_295_22" style="mask-type:luminance" maskUnits="userSpaceOnUse" x="0" y="0" width="436" height="30">
<path d="M436 0H0V30H436V0Z" fill="white"/>
</mask>
<g mask="url(#mask0_295_22)">
<path d="M436.219 -0.554688H424.703V30.1687H436.219V-0.554688Z" fill="white"/>
<path d="M281.494 -0.554688L277.763 3.28571V26.3283L281.494 30.2754H316.041L319.985 26.3283V3.28571L316.041 -0.554688H281.494ZM289.066 7.12621H308.364V22.4879H289.066V7.12621Z" fill="white"/>
<path d="M129.974 -0.554688L126.242 3.28571V26.3283L129.974 30.2754H164.52L168.465 26.3283V3.28571L164.52 -0.554688H129.974ZM137.544 7.12621H156.843V22.4879H137.544V7.12621Z" fill="white"/>
<path d="M268.176 7.12611V-0.554688H225.953V7.12611H241.2V30.1687H252.822V7.12611H268.176Z" fill="white"/>
<path d="M386.211 -0.554688H374.804V30.1687H386.211V18.6476H392.716L403.805 30.2754L417.025 30.1687L402.206 15.3404L417.025 -0.554688H403.805L392.716 11.0732H386.211V-0.554688Z" fill="white"/>
<path d="M366.257 30.1218V-0.554688H360.852C357.311 -0.554688 355.544 -0.554686 353.869 -0.0587864C352.198 0.437014 350.713 1.40151 347.746 3.33031L330.618 14.463C330.498 14.542 330.435 14.5817 330.378 14.6208C329.121 15.4913 328.349 16.9095 328.307 18.4401C328.304 18.5084 328.304 18.5811 328.304 18.7263C328.304 18.9821 328.304 19.1102 328.31 19.2181C328.421 21.7043 330.411 23.6945 332.897 23.8063C333.005 23.8115 333.134 23.8115 333.39 23.8115H354.861V30.1218H366.257ZM341.716 16.0107L354.861 7.55271V16.0107H341.716Z" fill="white"/>
<path d="M81.3926 -0.554688V30.1218H92.7867V20.7436H108.768V12.0228H92.7867V8.16621H117.328V-0.554688H81.3926Z" fill="white"/>
<path d="M177.602 -0.554688V30.1218H188.996V22.1462H205.649V30.1218H217.043V18.4648L214.896 16.3174L217.043 14.1702V3.34561L213.143 -0.554688H177.602ZM205.649 13.6442H188.996V8.69211H205.649V13.6442Z" fill="white"/>
<path d="M24.7709 22.9415C27.909 22.9415 30.4529 20.3976 30.4529 17.2595V-2.09119C30.4529 -5.22929 27.909 -7.77319 24.7709 -7.77319C21.6328 -7.77319 19.0889 -5.22929 19.0889 -2.09119V17.2595C19.0889 20.3976 21.6328 22.9415 24.7709 22.9415Z" fill="url(#paint0_linear_295_22)"/>
<path d="M62.4838 22.9415C65.6219 22.9415 68.1658 20.3976 68.1658 17.2595V-2.09119C68.1658 -5.22929 65.6219 -7.77319 62.4838 -7.77319C59.3457 -7.77319 56.8018 -5.22929 56.8018 -2.09119V17.2595C56.8018 20.3976 59.3457 22.9415 62.4838 22.9415Z" fill="url(#paint1_linear_295_22)"/>
<path d="M0.232422 12.2838C0.232422 9.14561 2.77637 6.60181 5.91447 6.60181C9.05257 6.60181 11.5966 9.14561 11.5966 12.2838V31.6345C11.5966 34.7724 9.05257 37.3164 5.91447 37.3164C2.77637 37.3164 0.232422 34.7724 0.232422 31.6345V12.2838Z" fill="url(#paint2_linear_295_22)"/>
<path d="M37.9453 12.2838C37.9453 9.14561 40.4893 6.60181 43.6272 6.60181C46.7654 6.60181 49.3093 9.14561 49.3093 12.2838V31.6345C49.3093 34.7724 46.7654 37.3164 43.6272 37.3164C40.4893 37.3164 37.9453 34.7724 37.9453 31.6345V12.2838Z" fill="url(#paint3_linear_295_22)"/>
<path d="M5.91446 17.9658C9.05257 17.9658 11.5965 15.4219 11.5965 12.2838C11.5965 9.14571 9.05257 6.60181 5.91446 6.60181C2.77636 6.60181 0.232422 9.14571 0.232422 12.2838C0.232422 15.4219 2.77636 17.9658 5.91446 17.9658Z" fill="url(#paint4_linear_295_22)"/>
<path d="M24.769 22.95C27.9071 22.95 30.451 20.406 30.451 17.2679C30.451 14.1299 27.9071 11.5859 24.769 11.5859C21.6309 11.5859 19.0869 14.1299 19.0869 17.2679C19.0869 20.406 21.6309 22.95 24.769 22.95Z" fill="url(#paint5_linear_295_22)"/>
<path d="M62.4857 22.95C65.6239 22.95 68.1678 20.406 68.1678 17.2679C68.1678 14.1299 65.6239 11.5859 62.4857 11.5859C59.3476 11.5859 56.8037 14.1299 56.8037 17.2679C56.8037 20.406 59.3476 22.95 62.4857 22.95Z" fill="url(#paint6_linear_295_22)"/>
<path d="M43.6274 17.9658C46.7655 17.9658 49.3094 15.4219 49.3094 12.2838C49.3094 9.14571 46.7655 6.60181 43.6274 6.60181C40.4892 6.60181 37.9453 9.14571 37.9453 12.2838C37.9453 15.4219 40.4892 17.9658 43.6274 17.9658Z" fill="url(#paint7_linear_295_22)"/>
</g>
<defs>
<linearGradient id="paint0_linear_295_22" x1="24.7708" y1="19.1195" x2="24.7708" y2="-11.5195" gradientUnits="userSpaceOnUse">
<stop stop-color="white"/>
<stop offset="1" stop-color="white" stop-opacity="0"/>
</linearGradient>
<linearGradient id="paint1_linear_295_22" x1="62.484" y1="19.1195" x2="62.484" y2="-11.5195" gradientUnits="userSpaceOnUse">
<stop stop-color="white"/>
<stop offset="1" stop-color="white" stop-opacity="0"/>
</linearGradient>
<linearGradient id="paint2_linear_295_22" x1="5.91447" y1="9.20121" x2="5.91447" y2="41.0627" gradientUnits="userSpaceOnUse">
<stop stop-color="white"/>
<stop offset="0.907762" stop-color="white" stop-opacity="0"/>
</linearGradient>
<linearGradient id="paint3_linear_295_22" x1="43.6272" y1="9.20121" x2="43.6272" y2="41.0627" gradientUnits="userSpaceOnUse">
<stop stop-color="white"/>
<stop offset="0.907762" stop-color="white" stop-opacity="0"/>
</linearGradient>
<linearGradient id="paint4_linear_295_22" x1="5.91446" y1="7.56351" x2="5.91446" y2="19.3519" gradientUnits="userSpaceOnUse">
<stop stop-color="white" stop-opacity="0"/>
<stop offset="1" stop-color="white"/>
</linearGradient>
<linearGradient id="paint5_linear_295_22" x1="24.769" y1="12.5477" x2="24.769" y2="24.3361" gradientUnits="userSpaceOnUse">
<stop stop-color="white"/>
<stop offset="1" stop-color="white" stop-opacity="0"/>
</linearGradient>
<linearGradient id="paint6_linear_295_22" x1="62.4858" y1="12.5477" x2="62.4858" y2="24.3361" gradientUnits="userSpaceOnUse">
<stop stop-color="white"/>
<stop offset="1" stop-color="white" stop-opacity="0"/>
</linearGradient>
<linearGradient id="paint7_linear_295_22" x1="43.6274" y1="7.56351" x2="43.6274" y2="17.9659" gradientUnits="userSpaceOnUse">
<stop stop-color="white" stop-opacity="0"/>
<stop offset="1" stop-color="white"/>
</linearGradient>
</defs>
</svg>
