<svg width="17" height="17" viewBox="0 0 17 17" fill="none" xmlns="http://www.w3.org/2000/svg">
<g style="mix-blend-mode:soft-light" opacity="1">
<path d="M11.3752 1.74419C11.5744 1.94343 11.6863 2.21364 11.6863 2.49537C11.6863 2.77711 11.5744 3.04731 11.3752 3.24656L6.11588 8.50593L11.3752 13.7653C11.5688 13.9657 11.6759 14.2341 11.6735 14.5127C11.671 14.7912 11.5593 15.0577 11.3623 15.2547C11.1653 15.4517 10.8988 15.5635 10.6202 15.5659C10.3417 15.5683 10.0733 15.4612 9.87288 15.2677L3.86232 9.25712C3.66313 9.05787 3.55123 8.78767 3.55123 8.50593C3.55123 8.22419 3.66313 7.95399 3.86232 7.75474L9.87288 1.74419C10.0721 1.545 10.3423 1.4331 10.6241 1.4331C10.9058 1.4331 11.176 1.545 11.3752 1.74419Z" fill="white"/>
</g>
</svg>
