<svg width="17" height="17" viewBox="0 0 17 17" fill="none" xmlns="http://www.w3.org/2000/svg">
<g style="mix-blend-mode:soft-light" opacity="1">
<path d="M5.62387 1.74419C5.42469 1.94343 5.31279 2.21364 5.31279 2.49537C5.31279 2.77711 5.42469 3.04731 5.62387 3.24656L10.8832 8.50593L5.62387 13.7653C5.43033 13.9657 5.32324 14.2341 5.32566 14.5127C5.32808 14.7912 5.43982 15.0577 5.63682 15.2547C5.83381 15.4517 6.1003 15.5635 6.37888 15.5659C6.65747 15.5683 6.92586 15.4612 7.12625 15.2677L13.1368 9.25712C13.336 9.05787 13.4479 8.78767 13.4479 8.50593C13.4479 8.22419 13.336 7.95399 13.1368 7.75474L7.12625 1.74419C6.927 1.545 6.6568 1.4331 6.37506 1.4331C6.09332 1.4331 5.82312 1.545 5.62387 1.74419Z" fill="white"/>
</g>
</svg>
