<svg width="153" height="34" viewBox="0 0 153 34" fill="none" xmlns="http://www.w3.org/2000/svg">
<g clip-path="url(#clip0_1_31)">
<path d="M60.61 18.8456L56.3334 9.33109H52.9121L58.8993 22.6515H62.3206L68.3078 9.33109H64.8865L60.61 18.8456Z" fill="white"/>
<path fill-rule="evenodd" clip-rule="evenodd" d="M139.951 22.6515V16.1415C139.953 16.0929 139.953 16.0444 139.953 15.9956C139.953 12.3392 137.137 9.33109 132.76 9.33109C128.383 9.33109 125.651 12.3392 125.651 15.9956C125.651 19.6779 128.327 22.6601 132.788 22.6601C134.229 22.6601 135.488 22.3486 136.531 21.8028V22.6515H139.951ZM129.052 15.9956C129.052 14.0766 130.335 12.2096 132.788 12.2096C135.074 12.2096 136.524 14.0766 136.524 15.9956C136.524 17.9405 135.27 19.7557 132.788 19.7557C130.306 19.7557 129.052 17.9405 129.052 15.9956Z" fill="white"/>
<path fill-rule="evenodd" clip-rule="evenodd" d="M53.3381 15.9956C53.3381 12.3392 50.5223 9.33109 46.1451 9.33109C41.7681 9.33109 39.0358 12.3392 39.0358 15.9956C39.0358 19.6779 41.7123 22.6601 46.173 22.6601C50.6337 22.6601 53.3381 19.6779 53.3381 15.9956ZM42.4372 15.9956C42.4372 14.0766 43.7196 12.2096 46.173 12.2096C48.4591 12.2096 49.9089 14.0766 49.9089 15.9956C49.9089 17.9405 48.6543 19.7557 46.173 19.7557C43.6918 19.7557 42.4372 17.9405 42.4372 15.9956Z" fill="white"/>
<path fill-rule="evenodd" clip-rule="evenodd" d="M105.276 7.40479L104.003 9.67829C103.257 9.45265 102.437 9.33013 101.554 9.33013C97.1768 9.33013 94.4446 12.3382 94.4446 15.9946C94.4446 19.6769 97.121 22.6591 101.582 22.6591C103.02 22.6591 104.276 22.349 105.317 21.8053V22.6504L105.316 22.6507C105.317 22.6849 105.318 22.7194 105.318 22.7542C105.318 24.6991 103.995 26.5143 101.378 26.5143C99.5746 26.5143 98.3951 25.7282 97.6244 24.6689L96.1613 27.2839C97.3906 28.5971 99.2404 29.4187 101.582 29.4187C106.043 29.4187 108.747 26.4365 108.747 22.7542C108.747 22.7067 108.746 22.6596 108.745 22.6126V16.1405C108.746 16.092 108.747 16.0434 108.747 15.9946C108.747 14.2188 108.082 12.596 106.898 11.3964L108.31 8.87361L105.276 7.40479ZM97.8459 15.9946C97.8459 14.0756 99.1284 12.2086 101.582 12.2086C103.868 12.2086 105.318 14.0756 105.318 15.9946C105.318 17.9395 104.063 19.7547 101.582 19.7547C99.1005 19.7547 97.8459 17.9395 97.8459 15.9946Z" fill="white"/>
<path d="M142.093 9.33109V22.6515H145.522L145.518 15.7597C145.518 13.3817 147.176 12.4931 148.975 12.4931C150.099 12.4931 150.746 12.7806 151.448 13.3294L152.994 10.5593C152.235 9.85373 150.858 9.33109 149.424 9.33109C148.019 9.33109 146.586 9.56628 145.518 11.1603L145.522 9.33109H142.093Z" fill="white"/>
<path d="M84.1732 9.33109V22.6515H87.6031L87.5982 15.7597C87.5982 13.3817 89.2565 12.4931 91.0554 12.4931C92.1796 12.4931 92.8261 12.7806 93.5287 13.3294L95.0745 10.5593C94.3157 9.85373 92.9384 9.33109 91.5051 9.33109C90.0997 9.33109 88.6663 9.56628 87.5982 11.1603L87.6031 9.33109H84.1732Z" fill="white"/>
<path fill-rule="evenodd" clip-rule="evenodd" d="M117.768 19.8135C115.875 19.8135 114.564 19.0929 114.003 18.0056L124.352 16.6584C124.66 11.7813 121.864 9.33109 117.466 9.33109C113.066 9.33109 110.261 12.0923 110.261 15.9273C110.261 19.9669 113.038 22.6515 117.714 22.6515C119.775 22.6515 122.113 21.9867 123.542 20.606L121.398 18.6374C120.628 19.3788 119.005 19.8135 117.768 19.8135ZM121.086 14.4793L113.648 15.4502C113.648 15.4502 113.649 15.4417 113.65 15.429C113.653 15.341 113.666 14.9897 113.789 14.5179C114.294 12.9008 115.771 12.0923 117.575 12.0923C119.474 12.0923 120.837 12.888 121.086 14.4793Z" fill="white"/>
<path fill-rule="evenodd" clip-rule="evenodd" d="M75.4305 19.8135C73.5378 19.8135 72.2263 19.0929 71.6654 18.0056L82.0137 16.6584C82.3221 11.7813 79.526 9.33109 75.128 9.33109C70.7283 9.33109 67.9235 12.0923 67.9235 15.9273C67.9235 19.9669 70.7008 22.6515 75.3754 22.6515C77.4379 22.6515 79.7752 21.9867 81.2051 20.606L79.0602 18.6374C78.2903 19.3788 76.6679 19.8135 75.4305 19.8135ZM78.748 14.4793L71.3108 15.4502C71.3108 15.4502 71.3115 15.4417 71.3119 15.429C71.3152 15.341 71.3288 14.9897 71.4521 14.5179C71.9557 12.9008 73.4338 12.0923 75.238 12.0923C77.1363 12.0923 78.4997 12.888 78.748 14.4793Z" fill="white"/>
<path fill-rule="evenodd" clip-rule="evenodd" d="M30.4676 3.73272L29.6557 3.33244C25.235 1.15271 20.3493 0.00225983 15.3006 0.00225983C10.2519 0.00225983 5.36633 1.15271 0.945481 3.33244L0.133638 3.73272L0.0731304 4.62699C0.0248627 5.34037 0.000626034 6.05728 0.000626034 6.77696C0.000626034 17.569 5.48845 27.442 14.4262 33.293L15.3006 33.8654L16.175 33.293C25.1128 27.442 30.6006 17.569 30.6006 6.77696C30.6006 6.05728 30.5764 5.34037 30.5281 4.62699L30.4676 3.73272ZM3.18478 5.73897C6.94797 4.02826 11.0578 3.12901 15.3006 3.12901C19.5435 3.12901 23.6533 4.02826 27.4164 5.73897C27.4289 6.08411 27.4351 6.43013 27.4351 6.77693C27.4351 16.1524 22.8446 24.755 15.3006 30.0915C7.75667 24.755 3.16612 16.1524 3.16612 6.77693C3.16612 6.43013 3.17236 6.08411 3.18478 5.73897Z" fill="url(#paint0_linear_1_31)"/>
<path d="M22.0101 9.3513C22.0104 9.34958 22.0106 9.34785 22.0108 9.34614C19.8844 8.73698 17.5649 8.33909 15.3027 8.33909C12.9677 8.33909 10.7829 8.69797 8.59468 9.34614C9.17389 14.6442 11.5559 19.5255 15.2997 23.2666C17.8336 20.7347 19.7431 17.7077 20.8925 14.3735C19.1331 13.833 17.2896 13.5547 15.4059 13.5547H15.3016L15.3015 10.425C15.304 10.425 15.411 10.425 15.4135 10.425C17.5665 10.4258 19.678 10.7379 21.6974 11.3439C22.7085 11.6475 23.78 12.0548 24.7341 12.5055C22.874 20.87 17.1577 26.0291 15.2997 27.5149C13.0775 25.7247 5.27732 18.6574 5.27732 7.08675C9.6357 5.52519 12.1943 5.21703 15.3027 5.21703C18.3316 5.21703 21 5.5383 25.3256 7.08542C25.3254 8.24917 25.2464 9.36751 25.1021 10.4396C24.118 10.0082 23.0476 9.64811 22.0101 9.3513C22.0104 9.35123 22.0099 9.35138 22.0101 9.3513Z" fill="white"/>
</g>
<defs>
<linearGradient id="paint0_linear_1_31" x1="30.6006" y1="33.8654" x2="30.6006" y2="0.00225983" gradientUnits="userSpaceOnUse">
<stop stop-color="#564FFF"/>
<stop offset="1" stop-color="#FD3F5B"/>
</linearGradient>
<clipPath id="clip0_1_31">
<rect width="152.896" height="33.8402" fill="white" transform="scale(1.00068)"/>
</clipPath>
</defs>
</svg>
