<svg width="197" height="44" viewBox="0 0 197 44" fill="none" xmlns="http://www.w3.org/2000/svg">
<g clip-path="url(#clip0_1_94)">
<path d="M77.6878 24.4862L72.2069 12.1235H67.8221L75.4954 29.4313H79.8802L87.5534 12.1235H83.1687L77.6878 24.4862Z" fill="white"/>
<path fill-rule="evenodd" clip-rule="evenodd" d="M179.373 29.4313V20.9726C179.375 20.9095 179.375 20.8464 179.375 20.783C179.375 16.0321 175.767 12.1235 170.157 12.1235C164.547 12.1235 161.045 16.0321 161.045 20.783C161.045 25.5676 164.475 29.4425 170.193 29.4425C172.04 29.4425 173.653 29.0378 174.989 28.3286V29.4313H179.373ZM165.404 20.783C165.404 18.2896 167.048 15.8637 170.193 15.8637C173.123 15.8637 174.981 18.2896 174.981 20.783C174.981 23.3101 173.373 25.6687 170.193 25.6687C167.012 25.6687 165.404 23.3101 165.404 20.783Z" fill="white"/>
<path fill-rule="evenodd" clip-rule="evenodd" d="M68.3778 20.783C68.3778 16.0321 64.7689 12.1235 59.1591 12.1235C53.5494 12.1235 50.0477 16.0321 50.0477 20.783C50.0477 25.5676 53.4779 29.4425 59.1948 29.4425C64.9118 29.4425 68.3778 25.5676 68.3778 20.783ZM54.4069 20.783C54.4069 18.2896 56.0505 15.8637 59.1948 15.8637C62.1247 15.8637 63.9828 18.2896 63.9828 20.783C63.9828 23.3101 62.3749 25.6687 59.1948 25.6687C56.0148 25.6687 54.4069 23.3101 54.4069 20.783Z" fill="white"/>
<path fill-rule="evenodd" clip-rule="evenodd" d="M134.926 9.625L133.295 12.5791C132.339 12.2859 131.288 12.1267 130.156 12.1267C124.546 12.1267 121.045 16.0352 121.045 20.7861C121.045 25.5707 124.475 29.4456 130.192 29.4456C132.035 29.4456 133.645 29.0427 134.979 28.3363V29.4343L134.978 29.4348C134.979 29.4792 134.98 29.524 134.98 29.5692C134.98 32.0963 133.284 34.4549 129.931 34.4549C127.619 34.4549 126.108 33.4334 125.12 32.057L123.245 35.4548C124.82 37.1612 127.191 38.2287 130.192 38.2287C135.909 38.2287 139.375 34.3538 139.375 29.5692C139.375 29.5075 139.374 29.4463 139.372 29.3853V20.9758C139.374 20.9126 139.375 20.8495 139.375 20.7861C139.375 18.4788 138.523 16.3702 137.006 14.8115L138.815 11.5335L134.926 9.625ZM125.404 20.7861C125.404 18.2927 127.047 15.8668 130.192 15.8668C133.122 15.8668 134.98 18.2927 134.98 20.7861C134.98 23.3133 133.372 25.6718 130.192 25.6718C127.012 25.6718 125.404 23.3133 125.404 20.7861Z" fill="white"/>
<path d="M182.123 12.1235V29.4313H186.518L186.513 20.4765C186.513 17.3866 188.637 16.232 190.943 16.232C192.383 16.232 193.212 16.6056 194.113 17.3187L196.094 13.7194C195.122 12.8026 193.357 12.1235 191.519 12.1235C189.718 12.1235 187.881 12.4291 186.513 14.5004L186.518 12.1235H182.123Z" fill="white"/>
<path d="M107.89 12.1235V29.4313H112.286L112.279 20.4765C112.279 17.3866 114.405 16.232 116.71 16.232C118.151 16.232 118.98 16.6056 119.88 17.3187L121.861 13.7194C120.889 12.8026 119.124 12.1235 117.287 12.1235C115.485 12.1235 113.648 12.4291 112.279 14.5004L112.286 12.1235H107.89Z" fill="white"/>
<path fill-rule="evenodd" clip-rule="evenodd" d="M150.939 25.7439C148.513 25.7439 146.832 24.8075 146.113 23.3947L159.376 21.6443C159.771 15.3072 156.188 12.1235 150.551 12.1235C144.912 12.1235 141.318 15.7113 141.318 20.6943C141.318 25.9431 144.877 29.4313 150.869 29.4313C153.511 29.4313 156.507 28.5676 158.339 26.7736L155.591 24.2157C154.604 25.179 152.524 25.7439 150.939 25.7439ZM155.191 18.8129L145.658 20.0743C145.658 20.0743 145.66 20.0633 145.661 20.0468C145.665 19.9324 145.681 19.4761 145.84 18.863C146.486 16.7618 148.379 15.7113 150.692 15.7113C153.125 15.7113 154.872 16.7452 155.191 18.8129Z" fill="white"/>
<path fill-rule="evenodd" clip-rule="evenodd" d="M96.6848 25.7439C94.259 25.7439 92.5782 24.8075 91.8593 23.3947L105.122 21.6443C105.517 15.3072 101.934 12.1235 96.2971 12.1235C90.6583 12.1235 87.0637 15.7113 87.0637 20.6943C87.0637 25.9431 90.6231 29.4313 96.6142 29.4313C99.2575 29.4313 102.253 28.5676 104.086 26.7736L101.337 24.2157C100.35 25.179 98.2707 25.7439 96.6848 25.7439ZM100.937 18.8129L91.4049 20.0743C91.4049 20.0743 91.4057 20.0633 91.4063 20.0468C91.4106 19.9324 91.4279 19.4761 91.586 18.863C92.2315 16.7618 94.1258 15.7113 96.438 15.7113C98.871 15.7113 100.618 16.7452 100.937 18.8129Z" fill="white"/>
<path fill-rule="evenodd" clip-rule="evenodd" d="M39.0496 4.84716L38.0091 4.32706C32.3434 1.49483 26.0819 0 19.6114 0C13.1409 0 6.87947 1.49483 1.21366 4.32706L0.173186 4.84716L0.0956387 6.00912C0.0337781 6.93605 0.00271606 7.86757 0.00271606 8.80268C0.00271606 22.8253 7.03599 35.6538 18.4907 43.2563L19.6114 44L20.7321 43.2563C32.1868 35.6538 39.2201 22.8253 39.2201 8.80268C39.2201 7.86757 39.189 6.93605 39.1272 6.00912L39.0496 4.84716ZM4.08357 7.45397C8.90652 5.23117 14.1737 4.06273 19.6114 4.06273C25.0491 4.06273 30.3163 5.23117 35.1392 7.45397C35.1552 7.90243 35.1631 8.35203 35.1631 8.80264C35.1631 20.9846 29.2799 32.1623 19.6114 39.0963C9.94297 32.1623 4.05966 20.9846 4.05966 8.80264C4.05966 8.35203 4.06765 7.90243 4.08357 7.45397Z" fill="url(#paint0_linear_1_94)"/>
<path d="M28.2221 12.1546C28.2224 12.1523 28.2227 12.1501 28.2229 12.1479C25.4977 11.3563 22.5251 10.8394 19.6258 10.8394C16.6332 10.8394 13.8331 11.3057 11.0287 12.1479C11.771 19.0318 14.8238 25.3744 19.6219 30.2353C22.8694 26.9455 25.3167 23.0124 26.7897 18.6801C24.5349 17.9779 22.1722 17.6163 19.7581 17.6163H19.6243L19.6242 13.5497C19.6274 13.5497 19.7646 13.5497 19.7678 13.5497C22.5271 13.5507 25.2332 13.9563 27.8213 14.7436C29.1171 15.1381 30.4904 15.6673 31.7131 16.2529C29.3293 27.1214 22.0032 33.8248 19.6219 35.7554C16.7739 33.4293 6.77711 24.2464 6.77711 9.21212C12.3629 7.18312 15.642 6.78271 19.6258 6.78271C23.5077 6.78271 26.9275 7.20015 32.4713 9.2104C32.471 10.7225 32.3697 12.1756 32.1848 13.5686C30.9235 13.008 29.5517 12.5402 28.2221 12.1546C28.2224 12.1545 28.2219 12.1547 28.2221 12.1546Z" fill="white"/>
</g>
<defs>
<linearGradient id="paint0_linear_1_94" x1="39.2201" y1="44" x2="39.2201" y2="0" gradientUnits="userSpaceOnUse">
<stop stop-color="#564FFF"/>
<stop offset="1" stop-color="#FD3F5B"/>
</linearGradient>
<clipPath id="clip0_1_94">
<rect width="196.087" height="44" fill="white"/>
</clipPath>
</defs>
</svg>
