<svg width="32" height="32" viewBox="0 0 32 32" fill="none" xmlns="http://www.w3.org/2000/svg">
<g clip-path="url(#clip0_4704_14268)">
<path d="M27.103 0H4.16969C1.86683 0 0 1.91025 0 4.26667V27.7333C0 30.0898 1.86683 32 4.16969 32H27.103C29.4058 32 31.2727 30.0898 31.2727 27.7333V4.26667C31.2727 1.91025 29.4058 0 27.103 0Z" fill="white"/>
<path d="M23.5581 11.4146C23.6624 10.988 23.5581 10.668 23.0369 10.668H20.9521C20.5351 10.668 20.3266 10.8813 20.2224 11.2013C20.2224 11.2013 19.1799 13.6546 17.8248 15.2546C17.4078 15.788 17.1993 15.8946 16.8866 15.8946C16.8866 15.8946 16.5739 15.788 16.5739 15.3613V11.4146C16.5739 10.8813 16.4696 10.668 16.0527 10.668H12.9254C12.7169 10.668 12.5084 10.8813 12.5084 11.0946C12.5084 11.628 13.2381 11.7346 13.3424 13.0146V16.0013C13.3424 16.6413 13.1339 16.748 12.9254 16.748C12.3 16.748 10.6321 14.2946 9.79814 11.4146C9.58966 10.8813 9.38117 10.668 8.85996 10.668H6.87936C6.35815 10.668 6.25391 10.8813 6.25391 11.2013C6.25391 11.7346 6.87936 14.4013 9.38117 17.8146C10.9448 20.1613 13.1339 21.4413 15.2187 21.4413C16.4696 21.4413 16.5739 21.1213 16.5739 20.6946C16.5739 18.4546 16.5739 18.2413 17.0951 18.2413C17.4078 18.2413 17.929 18.348 19.0757 19.5213C20.3266 20.8013 20.5351 21.4413 21.369 21.4413H23.2454C23.7666 21.4413 24.0793 21.1213 23.9751 20.588C23.5581 19.5213 21.0563 16.9613 20.9521 16.8546C20.6393 16.428 20.7436 16.3213 20.9521 16.0013C20.9521 16.0013 23.3496 12.588 23.5581 11.4146Z" fill="#2D2D2D"/>
</g>
<defs>
<clipPath id="clip0_4704_14268">
<rect width="31.2727" height="32" fill="white"/>
</clipPath>
</defs>
</svg>
