<svg width="139" height="32" viewBox="0 0 139 32" fill="none" xmlns="http://www.w3.org/2000/svg">
<g clip-path="url(#clip0_4704_14271)">
<path d="M43.5471 5.29371C43.0399 3.35641 41.5186 1.83425 39.6253 1.31533C36.1768 0.34668 22.3831 0.34668 22.3831 0.34668C22.3831 0.34668 8.52168 0.34668 5.10704 1.31533C3.21378 1.83425 1.72622 3.35641 1.18528 5.29371C0.272461 8.82236 0.272461 16.191 0.272461 16.191C0.272461 16.191 0.272461 23.5251 1.18528 27.0537C1.69241 29.0256 3.21378 30.5132 5.10704 31.0667C8.55549 32.0007 22.3493 32.0007 22.3493 32.0007C22.3493 32.0007 36.2107 32.0007 39.6253 31.0667C41.5186 30.5478 43.0061 28.991 43.5471 27.0537C44.4599 23.5251 44.4599 16.191 44.4599 16.191C44.4599 16.191 44.4599 8.82236 43.5471 5.29371Z" fill="white"/>
<path d="M17.9541 22.9712L29.4489 16.1907L17.9541 9.41016V22.9712Z" fill="#2D2D2D"/>
<path d="M69.3101 26.0513C69.5467 25.394 69.6482 24.3215 69.6482 22.8686V16.7107C69.6482 15.2923 69.5467 14.2545 69.3101 13.5972C69.0734 12.9053 68.6339 12.594 68.0254 12.594C67.4506 12.594 67.0111 12.9399 66.7745 13.5972C66.5378 14.2545 66.4364 15.2923 66.4364 16.7107V22.834C66.4364 24.3215 66.5378 25.3594 66.7745 26.0167C66.9773 26.674 67.4168 26.9853 68.0254 26.9853C68.6339 26.9853 69.0396 26.6394 69.3101 26.0167V26.0513ZM64.4079 29.1648C63.4764 28.4772 62.8167 27.4708 62.5484 26.328C62.1223 24.6811 61.9287 22.9802 61.9737 21.2772V18.3367C61.9737 16.2264 62.2103 14.5313 62.6499 13.2167C63.0555 11.9021 63.6979 10.968 64.6107 10.3799C65.6741 9.74096 66.8947 9.42871 68.1268 9.48044C69.5467 9.48044 70.6962 9.79179 71.5752 10.3799C72.4204 11.0026 73.0628 11.9367 73.4685 13.2167C73.8742 14.4967 74.0432 16.2264 74.0432 18.3367V21.2426C74.0432 23.3183 73.8742 25.048 73.4685 26.328C73.0966 27.608 72.4542 28.5421 71.5752 29.1302C70.6962 29.7183 69.5467 30.0296 68.0254 30.0296C66.7592 30.1018 65.5005 29.7888 64.4079 29.1302V29.1648ZM132.058 12.9745C131.792 13.3866 131.64 13.8649 131.619 14.3583C131.551 14.981 131.517 15.9496 131.517 17.2296V18.648H134.695V17.2988C134.695 15.9842 134.695 15.0502 134.594 14.3929C134.561 13.8965 134.397 13.4184 134.121 13.0091C133.918 12.7323 133.546 12.594 133.106 12.594C132.633 12.594 132.295 12.7323 132.092 13.0091L132.058 12.9745ZM131.517 21.2772V22.315C131.517 23.595 131.551 24.5291 131.619 25.1864C131.686 25.8091 131.855 26.2588 132.092 26.5702C132.329 26.8469 132.667 26.9853 133.174 26.9853C133.816 26.9853 134.256 26.7431 134.526 26.2242C134.729 25.7053 134.864 24.8404 134.898 23.6296L138.651 23.8718L138.685 24.5637C138.685 26.3972 138.211 27.781 137.231 28.6804C136.217 29.5799 134.864 30.0642 133.072 30.0642C130.909 30.0642 129.421 29.3723 128.542 27.9886C127.543 26.0058 127.098 23.779 127.257 21.554V18.0945C127.257 15.1194 127.697 12.9745 128.61 11.5907C129.489 10.2069 131.01 9.51504 133.208 9.51504C134.695 9.51504 135.845 9.82639 136.622 10.3799C137.434 10.9334 137.975 11.7983 138.313 13.0091C138.651 14.1853 138.82 15.8113 138.82 17.9215V21.3118H131.517V21.2772ZM53.7921 20.9313L48.8223 2.59612H53.1497L54.9078 10.8988C55.3473 12.9745 55.6515 14.7042 55.8882 16.1572H55.9896C56.1587 15.1194 56.4629 13.3896 57.0039 10.968L58.7619 2.56152H63.0894L58.0519 20.8967V29.7529H53.7583V20.9313H53.7921ZM88.1413 9.93017V29.7183H84.7266L84.3548 27.2967H84.2533C83.3405 29.1302 81.9206 30.0642 80.0949 30.0642C78.8102 30.0642 77.8636 29.6145 77.2212 28.7496C76.6127 27.8848 76.3084 26.5702 76.3084 24.7367V9.93017H80.7035V24.4599C80.7035 25.3594 80.7711 25.9821 80.9739 26.3626C81.143 26.7086 81.4811 26.9161 81.9206 26.9161C82.3116 26.9 82.691 26.7757 83.0185 26.5564C83.3459 26.337 83.6091 26.031 83.78 25.6707V9.93017H88.1413ZM110.489 9.93017V29.7183H107.108L106.702 27.2967H106.634C105.688 29.1302 104.302 30.0642 102.442 30.0642C101.157 30.0642 100.211 29.6145 99.6023 28.7496C98.9937 27.8848 98.6895 26.5702 98.6895 24.7367V9.93017H103.051V24.4599C103.051 25.3594 103.152 25.9821 103.321 26.3626C103.524 26.7086 103.828 26.9161 104.268 26.9161C104.659 26.9 105.038 26.7757 105.366 26.5564C105.693 26.337 105.956 26.031 106.127 25.6707V9.93017H110.522H110.489Z" fill="white"/>
<path d="M100.007 6.19385H95.6117V29.7182H91.3519V6.22845H87.0244V2.59602H99.9392V6.22845L100.007 6.19385ZM120.968 21.1733C120.968 22.6263 120.866 23.7333 120.765 24.5636C120.664 25.3939 120.427 25.9474 120.19 26.2933C120.057 26.4636 119.887 26.5993 119.693 26.6895C119.499 26.7797 119.287 26.8217 119.075 26.8122C118.721 26.8212 118.372 26.7288 118.068 26.5454C117.763 26.3619 117.514 26.0949 117.35 25.7744V14.5312C117.477 14.0319 117.734 13.5774 118.094 13.2166C118.406 12.8907 118.832 12.7041 119.278 12.6976C119.717 12.6976 120.055 12.8706 120.292 13.2166C120.528 13.5625 120.697 14.1852 120.799 15.0155C120.9 15.8803 120.934 17.0912 120.934 18.6133V21.1733H120.968ZM124.923 13.0782C124.687 11.8328 124.247 10.9333 123.639 10.3798C122.976 9.78891 122.117 9.47953 121.238 9.51494C120.427 9.51494 119.683 9.7571 118.973 10.2068C118.297 10.6912 117.756 11.2793 117.384 12.0403H117.35V1.59277H113.124V29.7528H116.742L117.181 27.8847H117.283C117.621 28.5766 118.128 29.0955 118.804 29.476C119.48 29.8566 120.224 30.0641 121.036 30.0641C121.718 30.0942 122.394 29.912 122.973 29.5415C123.552 29.171 124.008 28.6295 124.281 27.9885C124.957 26.6047 125.329 24.4252 125.329 21.4501V18.3366C125.329 16.0879 125.194 14.3582 124.923 13.1474V13.0782Z" fill="white"/>
</g>
<defs>
<clipPath id="clip0_4704_14271">
<rect width="138.614" height="32" fill="white" transform="translate(0.272461)"/>
</clipPath>
</defs>
</svg>
