<svg width="161" height="17" viewBox="0 0 161 17" fill="none" xmlns="http://www.w3.org/2000/svg">
<path d="M160.326 0.0979102H154.377V16.3071H160.323V0.0979102H160.326ZM98.4818 4.17891V0.0979102H78.4795L76.5104 2.12958V14.2555L78.4795 16.306H98.4818V12.2647H82.4584V4.1767H98.4818V4.17891ZM118.407 0.0979102V6.20947H108.388V0.0990138H102.441V16.3082H108.388V10.2353H118.407V16.3082H124.411V0.0990138L118.407 0.0979102ZM56.5092 4.17891H66.5286V12.2636H56.507V4.17891H56.5092ZM52.5304 0.0979102L50.5613 2.12958V14.2566L52.5293 16.3049H70.5063L72.5327 14.2555V2.12737L70.5063 0.0957031H52.5293L52.5304 0.0979102ZM46.5835 4.17891V0.0979102H24.6133V4.17891H32.5666V16.306H38.5685V4.17891H46.5835Z" fill="#fff"/>
<path fill-rule="evenodd" clip-rule="evenodd" d="M16.3507 9.8061H3.97798L16.3507 3.57861V9.8061ZM20.4805 0H16.7901C15.9675 0 15.1834 0.193231 14.4378 0.579689L3.65311 6.36331C1.205 7.58231 -0.0185099 8.81898 0.000211621 10.0954C0.0189331 12.2242 1.24464 13.2864 3.69165 13.2864H16.3507V16.1506H20.4805V0Z" fill="#fff"/>
<path fill-rule="evenodd" clip-rule="evenodd" d="M134.336 0.0966797H128.39V16.3058H134.336V10.2307H137.722L143.497 16.3445L150.362 16.3058L142.636 8.49166L150.362 0.0977832H143.496L137.722 6.20935H134.336V0.0966797Z" fill="#fff"/>
</svg>
