<svg xmlns="http://www.w3.org/2000/svg" width="256" height="79" viewBox="0 0 256 79" fill="none">
    <g clip-path="url(#clip0_4666_3529)">
        <path d="M248.874 26.0208C249.493 19.1234 246.764 13.958 240.687 10.5231C234.611 7.08978 225.58 5.33019 213.595 5.24431H156.708C151.361 4.76148 144.497 8.73434 136.114 17.1921L135.016 18.2144C136.506 18.7815 137.999 19.4069 139.488 20.0875C145.79 14.4976 151.306 11.4029 156.004 10.8634C156.764 10.7791 159.971 10.7791 165.598 10.8634H213.595C234.329 10.7791 246.089 15.831 248.874 26.0208Z" fill="#28508A"></path>
        <path d="M140.755 20.3143C140.559 20.2284 140.418 20.2009 140.333 20.1717C140.051 20.0308 139.77 19.9157 139.489 19.8023C137.999 19.1218 136.506 18.4964 135.016 17.9293C123.65 13.4461 113.043 11.458 103.225 11.9976C93.9115 12.0543 84.036 15.6026 73.5984 22.6134C64.6238 29.0847 52.9483 32.2912 38.6009 32.2053C17.8633 31.7225 4.97904 40.6906 0 59.1113C7.85013 46.0844 18.4271 39.0169 31.7634 37.9103C32.3257 37.8244 37.4748 37.6834 47.2093 37.4841C55.3397 37.2848 63.2741 35.044 70.9833 30.786C88.2293 18.6114 105.193 14.9772 121.934 19.8882L129.277 22.5843L134.565 24.5432L158.057 33.1986C175.501 40.0944 190.187 39.7266 202.088 32.1486C188.471 34.9015 176.457 34.2193 166.021 30.0747C164.754 29.5643 156.341 26.2995 140.756 20.3127" fill="#F47218"></path>
        <path d="M80.9969 34.1364C75.3422 38.166 72.0515 43.4172 71.123 49.8593C78.0156 39.3293 87.0177 34.3049 98.076 34.7893L113.663 34.5042C119.654 34.7893 125.675 32.5469 131.724 27.8061C132.68 26.7561 133.636 25.7645 134.566 24.8264L129.276 22.8691C126.379 24.9414 123.705 26.3883 121.229 27.239C119.006 28.6308 111.72 29.4247 99.3398 29.6531C91.1542 29.2821 85.02 30.7873 80.9969 34.1364Z" fill="#28508A"></path>
        <path d="M250.491 4.66177H251.409C251.848 4.66177 252.147 4.59695 252.307 4.46247C252.385 4.40003 252.447 4.32039 252.488 4.22985C252.53 4.13932 252.55 4.04035 252.547 3.94075C252.549 3.80595 252.509 3.67386 252.432 3.56323C252.352 3.45088 252.24 3.36509 252.111 3.31695C251.975 3.26187 251.722 3.23594 251.353 3.23594H250.492L250.491 4.66177ZM249.736 7.32222V2.59432H251.346C251.897 2.59432 252.294 2.63807 252.54 2.72394C252.782 2.80779 252.989 2.96895 253.13 3.18247C253.276 3.39797 253.349 3.62966 253.349 3.87432C253.35 4.04147 253.319 4.20726 253.256 4.36215C253.193 4.51704 253.1 4.65796 252.983 4.7768C252.725 5.03825 252.377 5.19225 252.01 5.20779C252.158 5.26602 252.293 5.35119 252.409 5.45893C252.597 5.64364 252.827 5.95635 253.101 6.39544L253.671 7.3206H252.748L252.333 6.5769C252.007 5.99037 251.742 5.62257 251.542 5.47513C251.405 5.36657 251.202 5.31311 250.936 5.31311H250.492V7.32222H249.736ZM251.648 1.22521C251.035 1.22521 250.439 1.38399 249.86 1.69994C249.285 2.01134 248.813 2.48229 248.499 3.05609C248.175 3.64425 248.01 4.25508 248.01 4.89346C248.01 5.52536 248.17 6.13296 248.491 6.71301C248.812 7.29306 249.261 7.74673 249.839 8.06916C250.416 8.39321 251.019 8.55523 251.646 8.55523C252.273 8.55523 252.876 8.39321 253.453 8.06916C254.029 7.74511 254.478 7.29306 254.797 6.71301C255.117 6.13296 255.277 5.52536 255.277 4.89346C255.277 4.2567 255.115 3.64425 254.789 3.05609C254.477 2.48119 254.005 2.00942 253.43 1.69832C252.885 1.39243 252.273 1.22966 251.648 1.22521ZM251.646 0.496094C252.378 0.496094 253.091 0.687284 253.788 1.06318C254.485 1.44394 255.027 1.98511 255.416 2.68992C255.805 3.39473 256 4.1287 256 4.89346C256 5.65012 255.807 6.37923 255.424 7.07756C255.054 7.76255 254.495 8.32708 253.814 8.7043C253.154 9.08265 252.407 9.28257 251.646 9.28435C250.893 9.28435 250.17 9.08992 249.48 8.7043C248.797 8.3272 248.238 7.76273 247.866 7.07756C247.489 6.41105 247.291 5.65892 247.289 4.89346C247.289 4.1287 247.484 3.39473 247.874 2.68992C248.264 1.98511 248.809 1.44394 249.506 1.0648C250.202 0.687284 250.915 0.496094 251.646 0.496094Z" fill="#315795"></path>
        <path d="M243.054 54.4319H234.302V78.2173H243.051V54.4319H243.054ZM152.066 60.4204V54.4319H122.637L119.74 57.4132V75.2068L122.637 78.2156H152.066V72.2855H128.491V60.4172H152.066V60.4204ZM181.381 54.4319V63.4001H166.64V54.4336H157.891V78.2189H166.64V69.3075H181.381V78.2189H190.215V54.4336L181.381 54.4319ZM90.3131 60.4204H105.054V72.2839H90.3099V60.4204H90.3131ZM84.4592 54.4319L81.5621 57.4132V75.2085L84.4575 78.214H110.907L113.888 75.2068V57.41L110.907 54.4287H84.4575L84.4592 54.4319ZM75.7098 60.4204V54.4319H43.3857V60.4204H55.0872V78.2156H63.9176V60.4204H75.7098Z" fill="#28508A"></path>
        <path fill-rule="evenodd" clip-rule="evenodd" d="M31.2291 68.6785H13.0255L31.2291 59.5403V68.6785ZM37.305 54.2891H31.8755C30.6652 54.2891 29.5116 54.5726 28.4147 55.1397L12.5475 63.6266C8.94572 65.4153 7.14562 67.23 7.17316 69.103C7.20071 72.2269 9.00405 73.7856 12.6043 73.7856H31.2291V77.9885H37.305V54.2891Z" fill="#F47218"></path>
        <path fill-rule="evenodd" clip-rule="evenodd" d="M204.816 54.4316H196.066V78.217H204.816V69.3023H209.796L218.293 78.2737L228.394 78.217L217.026 66.7504L228.394 54.4333H218.291L209.796 63.4014H204.816V54.4316Z" fill="#28508A"></path>
    </g>
    <defs>
        <clipPath id="clip0_4666_3529">
            <rect width="256" height="77.7721" fill="white" transform="translate(0 0.5)"></rect>
        </clipPath>
    </defs>
</svg>