<svg xmlns="http://www.w3.org/2000/svg" xmlns:xlink="http://www.w3.org/1999/xlink" width="30" height="30" viewBox="0 0 30 30" fill="none">
    <path d="M19.36 5c0 .33-.18.61-.47.75-.66.32-2.56 1.06-5.85 1.06h-.61c-1.8 0-3.58-.36-5.23-1.06a.82.82 0 010-1.48c.66-.32 2.56-1.07 5.84-1.07 3.29 0 5.19.75 5.85 1.07.29.13.47.42.47.74zm-6.32-.8c-1.71-.04-3.42.23-5.04.8 1.47.53 3.02.8 4.58.8h.93c1.56 0 3.11-.27 4.58-.8a13.91 13.91 0 00-5.05-.8z" fill="#383838ff"/>
    <path d="M29.9 16.3c-.17.9-.45 1.78-.84 2.62a3.86 3.86 0 01-1.25 1.48c.25.98.28 2 .1 3-.1.57-.25 1.13-.43 1.68a4.72 4.72 0 01-.79 1.61 6.2 6.2 0 01-1.98 1.45c-.8.4-1.63.7-2.49.94-1 .28-2.03.49-3.07.63a30.18 30.18 0 01-4.2.28 24.3 24.3 0 01-8.6-1.34 9.85 9.85 0 01-2.31-1.16C2.47 26.37 1.89 24 1.87 22.16c0-1.06.2-2.11.63-3.09.03-.62.35-1.48 1.53-2.35l-.12-.76a7.45 7.45 0 01-.02-1.68 5.52 5.52 0 01-2.8-2.24 8.96 8.96 0 01-.84-2.25A7.6 7.6 0 01.6 4.9C.77 2.14 6.18 0 13.05 0c6.9 0 12.3 2.15 12.45 4.9a7.56 7.56 0 01.6 3.76c2.05.89 3.2 2.06 3.27 3.32a7.53 7.53 0 01.53 4.32zM4.61 26.68c.65.43 1.34.78 2.08 1.03a23.33 23.33 0 008.92 1.27c1.14-.02 2.27-.1 3.4-.26.99-.13 1.97-.33 2.93-.6.8-.22 1.57-.5 2.32-.87.62-.29 1.19-.7 1.66-1.2.27-.39.48-.82.6-1.28.16-.51.3-1.03.4-1.56.13-.75.13-1.52-.02-2.27l-.52.26c-1.9 1.82-6.37 3-11.45 3-5.69 0-10.37-1.47-11.91-3.53-.1.48-.16.98-.16 1.48.02 1.52.48 3.62 1.75 4.53zm-1.12-7.5c0 2.36 6.03 4.01 11.44 4.01 1.74 0 3.47-.14 5.19-.45l-.63.06a31.83 31.83 0 01-5.9-.07c-2.02-.17-4-.65-5.88-1.41a8.1 8.1 0 01-1.98-1.16 4.78 4.78 0 01-1.45-2.37c-.45.33-.74.84-.8 1.4zm1.4-3.35c.16 1.23.47 2.74 1.48 3.56.53.42 1.11.76 1.74 1.01a19.2 19.2 0 005.59 1.34c1.9.2 3.8.22 5.7.06 1.41-.1 2.8-.33 4.16-.67.8-.2 1.6-.48 2.36-.82h.02l.7-.37.28-.16.03-.02c.22-.12.42-.27.61-.44.24-.24.44-.52.58-.83.35-.76.6-1.56.76-2.38a6.1 6.1 0 00-.08-2.5c-.87 1.18-2.77 2.16-5.51 2.8-2.1.48-4.25.7-6.4.7a25.73 25.73 0 01-8.44-1.29c-.48-.17-.95-.38-1.41-.6-.26-.06-.54-.11-.8-.18-.46-.12-.93-.25-1.4-.4-.03.4-.02.8.03 1.2zM1.22 9.55c.16.7.4 1.36.74 1.99a4.7 4.7 0 002.55 1.9c.08.01.16.05.23.1.57.21 1.18.38 1.79.53 2.13.52 4.32.77 6.51.75 2.12.02 4.22-.21 6.28-.69 1.48-.35 3.31-.79 4.42-2a5.7 5.7 0 001.32-3.32l.05-.63a6.54 6.54 0 00-.16-1.68 6.72 6.72 0 01-2.87 1.98c-2.25.95-5.44 1.54-9.03 1.54-5.68 0-10.36-1.46-11.9-3.51-.21 1-.19 2.04.07 3.04zM13.04 1C7.64 1 1.6 2.65 1.6 5c0 2.37 6.03 4.02 11.44 4.02C18.46 9.02 24.5 7.37 24.5 5S18.46 1 13.04 1zm12.9 8.7a6.35 6.35 0 01-1.46 3.1c-1.32 1.44-3.32 1.92-4.93 2.3-2.13.5-4.32.74-6.5.72l-.35-.01a29.44 29.44 0 0010.4-.36c3.2-.75 5.27-2.07 5.27-3.35 0-.84-.88-1.7-2.43-2.4z" fill="#383838ff"/>
    <path d="M21.74 5.93a.5.5 0 01-.77-.42c0-.18.1-.35.25-.44.3-.17.37-.3.37-.35-.07-.43-1.85-1.26-3.74-1.74a.5.5 0 11.24-.97c1 .25 4.28 1.18 4.49 2.57.05.35-.05.87-.84 1.35zM19.47 6.5a.5.5 0 101 0 .5.5 0 00-1 0z" fill="#383838ff"/>
</svg>
