<svg class="projects-logo-img" width="436" height="72" viewBox="0 0 436 72" fill="none" xmlns="http://www.w3.org/2000/svg">
    <g clip-path="url(#clip0_4666_3663)">
        <path d="M436.219 20.4453H424.703V51.1687H436.219V20.4453Z" fill="white"></path>
        <path d="M281.494 20.4453L277.763 24.2857V47.3283L281.494 51.2754H316.041L319.985 47.3283V24.2857L316.041 20.4453H281.494ZM289.066 28.1262H308.364V43.4879H289.066V28.1262Z" fill="white"></path>
        <path d="M129.974 20.4453L126.242 24.2857V47.3283L129.974 51.2754H164.52L168.465 47.3283V24.2857L164.52 20.4453H129.974ZM137.544 28.1262H156.843V43.4879H137.544V28.1262Z" fill="white"></path>
        <path d="M268.176 28.1261V20.4453H225.953V28.1261H241.2V51.1687H252.822V28.1261H268.176Z" fill="white"></path>
        <path d="M386.211 20.4453H374.804V51.1687H386.211V39.6476H392.716L403.805 51.2754L417.025 51.1687L402.206 36.3404L417.025 20.4453H403.805L392.716 32.0732H386.211V20.4453Z" fill="white"></path>
        <path d="M366.257 51.1218V20.4453H360.852C357.311 20.4453 355.544 20.4453 353.869 20.9412C352.198 21.437 350.713 22.4015 347.746 24.3303L330.618 35.463C330.498 35.542 330.435 35.5817 330.378 35.6208C329.121 36.4913 328.349 37.9095 328.307 39.4401C328.304 39.5084 328.304 39.5811 328.304 39.7263C328.304 39.9821 328.304 40.1102 328.31 40.2181C328.421 42.7043 330.411 44.6945 332.897 44.8063C333.005 44.8115 333.134 44.8115 333.39 44.8115H354.861V51.1218H366.257ZM341.716 37.0107L354.861 28.5527V37.0107H341.716Z" fill="#F47117"></path>
        <path d="M81.3926 20.4453V51.1218H92.7867V41.7436H108.768V33.0228H92.7867V29.1662H117.328V20.4453H81.3926Z" fill="white"></path>
        <path d="M177.602 20.4453V51.1218H188.996V43.1462H205.649V51.1218H217.043V39.4648L214.896 37.3174L217.043 35.1702V24.3456L213.143 20.4453H177.602ZM205.649 34.6442H188.996V29.6921H205.649V34.6442Z" fill="white"></path>
        <path d="M24.7711 43.9414H24.7711C27.9092 43.9414 30.4531 41.3975 30.4531 38.2594L30.4531 18.9087C30.4531 15.7706 27.9092 13.2267 24.7711 13.2267H24.7711C21.633 13.2267 19.0891 15.7706 19.0891 18.9087L19.0891 38.2594C19.0891 41.3975 21.633 43.9414 24.7711 43.9414Z" fill="url(#paint0_linear_4666_3663)"></path>
        <path d="M62.484 43.9414H62.484C65.6221 43.9414 68.166 41.3975 68.166 38.2594V18.9087C68.166 15.7706 65.6221 13.2267 62.484 13.2267H62.484C59.3459 13.2267 56.802 15.7706 56.802 18.9087V38.2594C56.802 41.3975 59.3459 43.9414 62.484 43.9414Z" fill="url(#paint1_linear_4666_3663)"></path>
        <path d="M0.232422 33.2836C0.232422 30.1454 2.77637 27.6016 5.91447 27.6016C9.05257 27.6016 11.5966 30.1454 11.5966 33.2836V52.6343C11.5966 55.7722 9.05257 58.3162 5.91447 58.3162C2.77637 58.3162 0.232422 55.7722 0.232422 52.6343V33.2836Z" fill="url(#paint2_linear_4666_3663)"></path>
        <path d="M37.9453 33.2836C37.9453 30.1454 40.4893 27.6016 43.6272 27.6016C46.7654 27.6016 49.3093 30.1454 49.3093 33.2836V52.6343C49.3093 55.7722 46.7654 58.3162 43.6272 58.3162C40.4893 58.3162 37.9453 55.7722 37.9453 52.6343V33.2836Z" fill="url(#paint3_linear_4666_3663)"></path>
        <path d="M5.91446 38.9656C9.05257 38.9656 11.5965 36.4217 11.5965 33.2836C11.5965 30.1455 9.05257 27.6016 5.91446 27.6016C2.77636 27.6016 0.232422 30.1455 0.232422 33.2836C0.232422 36.4217 2.77636 38.9656 5.91446 38.9656Z" fill="url(#paint4_linear_4666_3663)"></path>
        <path d="M24.769 43.95C27.9071 43.95 30.451 41.406 30.451 38.2679C30.451 35.1299 27.9071 32.5859 24.769 32.5859C21.6309 32.5859 19.0869 35.1299 19.0869 38.2679C19.0869 41.406 21.6309 43.95 24.769 43.95Z" fill="url(#paint5_linear_4666_3663)"></path>
        <path d="M62.4857 43.95C65.6239 43.95 68.1678 41.406 68.1678 38.2679C68.1678 35.1299 65.6239 32.5859 62.4857 32.5859C59.3476 32.5859 56.8037 35.1299 56.8037 38.2679C56.8037 41.406 59.3476 43.95 62.4857 43.95Z" fill="url(#paint6_linear_4666_3663)"></path>
        <path d="M43.6274 38.9656C46.7655 38.9656 49.3094 36.4217 49.3094 33.2836C49.3094 30.1455 46.7655 27.6016 43.6274 27.6016C40.4892 27.6016 37.9453 30.1455 37.9453 33.2836C37.9453 36.4217 40.4892 38.9656 43.6274 38.9656Z" fill="url(#paint7_linear_4666_3663)"></path>
    </g>
    <defs>
        <linearGradient id="paint0_linear_4666_3663" x1="24.771" y1="40.1194" x2="24.771" y2="9.4804" gradientUnits="userSpaceOnUse">
            <stop stop-color="white"></stop>
            <stop offset="1" stop-color="white" stop-opacity="0"></stop>
        </linearGradient>
        <linearGradient id="paint1_linear_4666_3663" x1="62.4842" y1="40.1194" x2="62.4842" y2="9.4804" gradientUnits="userSpaceOnUse">
            <stop stop-color="white"></stop>
            <stop offset="1" stop-color="white" stop-opacity="0"></stop>
        </linearGradient>
        <linearGradient id="paint2_linear_4666_3663" x1="5.91447" y1="30.201" x2="5.91447" y2="62.0625" gradientUnits="userSpaceOnUse">
            <stop stop-color="#F47117"></stop>
            <stop offset="0.907762" stop-color="#F47117" stop-opacity="0"></stop>
        </linearGradient>
        <linearGradient id="paint3_linear_4666_3663" x1="43.6272" y1="30.201" x2="43.6272" y2="62.0625" gradientUnits="userSpaceOnUse">
            <stop stop-color="#F47117"></stop>
            <stop offset="0.907762" stop-color="#F47117" stop-opacity="0"></stop>
        </linearGradient>
        <linearGradient id="paint4_linear_4666_3663" x1="5.91446" y1="28.5633" x2="5.91446" y2="40.3517" gradientUnits="userSpaceOnUse">
            <stop stop-color="#F47117" stop-opacity="0"></stop>
            <stop offset="1" stop-color="#F47117"></stop>
        </linearGradient>
        <linearGradient id="paint5_linear_4666_3663" x1="24.769" y1="33.5477" x2="24.769" y2="45.3361" gradientUnits="userSpaceOnUse">
            <stop stop-color="white"></stop>
            <stop offset="1" stop-color="white" stop-opacity="0"></stop>
        </linearGradient>
        <linearGradient id="paint6_linear_4666_3663" x1="62.4858" y1="33.5477" x2="62.4858" y2="45.3361" gradientUnits="userSpaceOnUse">
            <stop stop-color="white"></stop>
            <stop offset="1" stop-color="white" stop-opacity="0"></stop>
        </linearGradient>
        <linearGradient id="paint7_linear_4666_3663" x1="43.6274" y1="28.5633" x2="43.6274" y2="38.9657" gradientUnits="userSpaceOnUse">
            <stop stop-color="#F47117" stop-opacity="0"></stop>
            <stop offset="1" stop-color="#F47117"></stop>
        </linearGradient>
        <clipPath id="clip0_4666_3663">
            <rect width="436" height="71.5414" fill="white"></rect>
        </clipPath>
    </defs>
</svg>