<svg width="355" height="30" viewBox="0 0 355 30" fill="none" xmlns="http://www.w3.org/2000/svg">
<mask id="mask0_307_3" style="mask-type:luminance" maskUnits="userSpaceOnUse" x="0" y="0" width="355" height="30">
<path d="M355 0H0V30H355V0Z" fill="white"/>
</mask>
<g mask="url(#mask0_307_3)">
<path d="M355.219 -0.554688H343.703V30.1687H355.219V-0.554688Z" fill="white"/>
<path d="M200.494 -0.554688L196.763 3.28571V26.3283L200.494 30.2754H235.041L238.985 26.3283V3.28571L235.041 -0.554688H200.494ZM208.066 7.12621H227.364V22.4879H208.066V7.12621Z" fill="white"/>
<path d="M48.9742 -0.554688L45.2422 3.28571V26.3283L48.9742 30.2754H83.5202L87.4652 26.3283V3.28571L83.5202 -0.554688H48.9742ZM56.5442 7.12621H75.8432V22.4879H56.5442V7.12621Z" fill="white"/>
<path d="M187.176 7.12611V-0.554688H144.953V7.12611H160.2V30.1687H171.822V7.12611H187.176Z" fill="white"/>
<path d="M305.211 -0.554688H293.804V30.1687H305.211V18.6476H311.716L322.805 30.2754L336.025 30.1687L321.206 15.3404L336.025 -0.554688H322.805L311.716 11.0732H305.211V-0.554688Z" fill="white"/>
<path d="M285.257 30.1218V-0.554688H279.852C276.311 -0.554688 274.544 -0.554686 272.869 -0.0587864C271.198 0.437014 269.713 1.40151 266.746 3.33031L249.618 14.463C249.498 14.542 249.435 14.5817 249.378 14.6208C248.121 15.4913 247.349 16.9095 247.307 18.4401C247.304 18.5084 247.304 18.5811 247.304 18.7263C247.304 18.9821 247.304 19.1102 247.31 19.2181C247.421 21.7043 249.411 23.6945 251.897 23.8063C252.005 23.8115 252.134 23.8115 252.39 23.8115H273.861V30.1218H285.257ZM260.716 16.0107L273.861 7.55271V16.0107H260.716Z" fill="white"/>
<path d="M0.392578 -0.554688V30.1218H11.7867V20.7436H27.768V12.0228H11.7867V8.16621H36.328V-0.554688H0.392578Z" fill="white"/>
<path d="M96.6016 -0.554688V30.1218H107.996V22.1462H124.649V30.1218H136.043V18.4648L133.896 16.3174L136.043 14.1702V3.34561L132.143 -0.554688H96.6016ZM124.649 13.6442H107.996V8.69211H124.649V13.6442Z" fill="white"/>
</g>
</svg>
