<?xml version="1.0" encoding="UTF-8"?>
<svg id="Layer_1" xmlns="http://www.w3.org/2000/svg" version="1.1" viewBox="0 0 2070.58 622.96">
  <!-- Generator: Adobe Illustrator 29.8.4, SVG Export Plug-In . SVG Version: 2.1.1 Build 6)  -->
  <defs>
    <style>
      .st0 {
        fill: #0796bc;
      }
    </style>
  </defs>
  <g id="Design">
    <path class="st0" d="M616.47,208.15c-6.22,5.15-13.18,9.4-20.66,12.47-9.73,3.99-20.23,5.94-30.74,5.94-17.49,0-35.01-5.4-49.12-15.77-6.68-4.92-13.13-11.2-20.28-19.78-1.45-1.74-2.83-3.56-4.16-5.31-3.81-5.02-7.41-9.77-12.69-13.02-17.2-10.6-37.1-3-54.66,3.7-.7.27-1.39.53-2.08.79-4.63,1.76-8.49,3.03-12.17,4-4.81,1.27-9.08,1.98-13.07,2.15-4.7.2-8.95-.37-12.64-1.7-4.21-1.52-7.83-4.08-10.74-7.6-.26-.31-.21-.77.1-1.03.31-.26.77-.21,1.03.1,5.23,6.32,12.48,9.2,22.19,8.78,8.83-.38,17.88-3.44,24.78-6.06.69-.26,1.38-.53,2.08-.79,8.54-3.26,18.23-6.96,27.77-8.39,11-1.66,20.22-.08,28.18,4.82,5.52,3.4,9.37,8.48,13.09,13.39,1.32,1.74,2.69,3.55,4.12,5.26,7.08,8.48,13.44,14.69,20.03,19.54,22.18,16.31,52.97,20.1,78.44,9.66,7.04-2.89,13.6-6.83,19.51-11.6-1.57-.49-3.11-1.07-4.59-1.75-3.08-1.42-6.04-3.3-8.87-5.63-6.49,3.97-13.74,6.86-21.6,8.63-9.75,2.19-20.37,2.61-31.56,1.25-.46-.06-.92-.11-1.36-.17-10.27-1.38-20.28-4.42-28.96-8.79-4.72-2.38-9.04-5.15-12.84-8.23-4.06-3.29-7.57-6.98-10.44-10.96-2.81-3.91-5.17-8.23-7.02-12.85-1.78-4.45-3.09-9.19-3.9-14.1-1.57-9.51-1.22-19.58,1-29.12,6.37-27.3,27.69-50.6,54.31-59.37,26.62-8.77,57.62-2.69,78.96,15.48,21.34,18.17,32.28,47.8,27.87,75.48-3.04,19.1-13.32,36.81-27.93,49.45M564.03,64.07c-8.35,0-16.69,1.27-24.64,3.89-26.15,8.61-47.09,31.5-53.35,58.31-4.57,19.59-.95,40.1,9.69,54.88,10.22,14.21,29.38,24.44,51.25,27.39.44.06.89.12,1.35.17,21.45,2.61,38.83-1.54,51.86-9.38-1.62-1.42-3.19-2.99-4.71-4.7-.33-.37-.65-.75-.98-1.13-1.95,1.52-4.12,3.01-6.26,2.41-.51-.14-.98-.39-1.43-.76-1.59.76-3.22,1.44-4.89,2.04-3.98,1.44-8.27,2.49-12.76,3.1-9.26,1.26-20.28-1.57-26.02-3.37-.38-.12-.76-.24-1.14-.37-.83,1.78-1.64,3.31-2.65,4.43-1.51,1.68-3.31,2.27-5.66,1.86-1.65-.29-4.47-1.6-7.35-3.43-2.61-1.65-6.6-4.56-10.82-9-4.25-4.47-7.82-9.55-10.62-15.08-3.36-6.64-5.58-13.91-6.6-21.62-1.16-8.74-.14-18.22,2.94-27.41,3.14-9.36,8.32-18.12,15-25.32,3.15-3.4,6.64-6.46,10.36-9.1,3.89-2.76,8.08-5.08,12.46-6.91,9.45-3.95,19.8-5.64,30.74-5.03,10.38.58,19.73,3.05,27.79,7.35,7.23,3.85,13.46,9.19,18.52,15.86,6.4,8.44,10.9,19.04,13.01,30.67.93,5.11,1.37,10.28,1.33,15.36-.04,4.81-.53,9.33-1.43,13.42-.74,3.37-1.84,6.72-3.25,9.98-1.44,3.31-3.22,6.53-5.29,9.57-4.37,6.42-9.94,11.95-16.54,16.43-.44.3-.89.59-1.34.88,2.61,2.1,5.33,3.8,8.18,5.12,1.76.81,3.54,1.46,5.33,1.96,14.76-12.45,25.17-30.14,28.21-49.24,4.33-27.19-6.41-56.29-27.37-74.14-14.59-12.43-33.78-19.1-52.92-19.1ZM565.59,81.3c-18.8,0-35.81,7.26-48.26,20.69-13.16,14.2-19.89,33.96-17.56,51.55,2.31,17.44,10.43,29.14,16.83,35.88,4.12,4.34,8,7.16,10.54,8.77,3.27,2.07,5.72,3.03,6.82,3.22,3.33.58,4.75-1.29,6.66-5.33-2.82-.97-5.45-2.03-7.59-3.07-1.3-.63-2.35-1.22-3.12-1.74-.94-.65-1.41-1.16-1.52-1.68-.09-.46.09-1.07.92-1.3.16-.04.31-.1.47-.17-.41-.34-.82-.71-1.24-1.09-2.26-2.04-5.69-5.52-9.21-10.47-3.35-4.7-5.98-9.6-7.81-14.56-1.01-2.74-1.77-5.47-2.26-8.17-.51.18-.93.23-1.33.04-.39-.18-.65-.54-.78-1.08-.28-1.1-.77-4.13-.96-7.12-.25-4.04.11-6.52,1.12-7.59.48-.51,1.1-.72,1.79-.59.09.02.18.03.28.05,1.73-9.65,6.11-19.42,12.5-27.65,2.17-2.79,4.52-5.35,7.02-7.64-.66-.24-1.09-.45-1.21-.96-.05-.23-.05-.58.3-.94.62-.66,4.28-3.1,7.46-5.07,1.89-1.17,3.57-2.17,4.87-2.87,2.3-1.25,2.87-1.31,3.22-1.27.28.03.53.18.66.41.13.21.19.44.21.69,3.03-1.25,6.14-2.16,9.31-2.73,6-1.07,12.35-.97,18.87.3,4.01.78,8.05,1.99,12.06,3.62,0-.21,0-.39,0-.55,0-.58-.01-1.07.4-1.4.4-.32.9-.2,1.12-.15.72.17,4,1.64,6.89,3.08,1.7.85,3.17,1.64,4.24,2.29,1.87,1.13,2.29,1.65,2.44,2.02.13.3.12.61-.03.87-.23.39-.6.69-1.12,1.11-.04.03-.08.06-.12.09,1.65,1.11,3.23,2.27,4.73,3.46,3.62,2.89,6.62,5.94,8.44,8.56,2.5,3.61,6.86,10.95,8.87,20.71.25-.1.5-.12.76-.01.52.21.64.77.7,1.04.27,1.23.54,4.9.51,8.21-.04,4.8-.67,6.52-1.36,7.15-.02.15-.04.3-.06.44-.84,5.68-2.76,11.22-5.7,16.46-3.03,5.38-6.4,10.18-10.04,14.25-2.35,2.63-4.85,5.02-7.48,7.14.01.07.03.13.04.2.27,1.56-.01,2.63-.84,3.18-.44.29-.9.63-1.37,1,1.88,2.23,3.82,4.2,5.83,5.93,14.27-9.04,23.1-22.57,26.12-36.24,3.42-15.51.93-40.35-12.64-58.25-10.56-13.93-25.78-21.54-45.22-22.63-1.39-.08-2.77-.12-4.14-.12ZM542.62,195.23c.45.15.89.29,1.35.43,5.55,1.71,16.17,4.4,25.01,3.19,6.04-.83,11.63-2.43,16.79-4.82-.57-.79-1.09-1.81-1.56-3.07-1.33-3.6-4.67-9.09-8.71-14.35-4.08-5.31-8.05-9.26-10.36-10.32-.73-.33-1.09-.29-1.23-.24-1.56.58-5.42,4.83-10.07,11.07-4.21,5.65-8.21,11.77-9.72,14.88-.49,1.01-.93,1.98-1.36,2.92-.04.1-.09.2-.13.3ZM530.09,189.58c.43.38,1.47,1.13,3.93,2.3,2.06.98,4.55,1.97,7.2,2.88.06-.14.13-.29.2-.43.43-.95.87-1.93,1.37-2.96,1.55-3.18,5.6-9.4,9.86-15.12,2.91-3.91,8.18-10.62,10.73-11.57.64-.24,1.43-.15,2.35.28,1.35.62,3.07,1.97,5.09,4,1.82,1.83,3.83,4.16,5.82,6.76,4.12,5.36,7.54,11,8.92,14.73.47,1.27.98,2.25,1.54,2.93,1.72-.86,3.4-1.81,5.02-2.85-2.46-3.27-4.79-6.98-7.07-11.22-4.14-7.7-7.99-12.35-10.54-15.43-.61-.74-1.15-1.39-1.6-1.97-1.38.63-2.84,1.1-4.38,1.43-2.11.44-4.29.57-6.31.37-3.39-.34-4.51-2.05-4.87-3.04-.2-.55-.28-1.14-.23-1.73-.68-.37-1.39-.83-2.11-1.4-3.57-2.82-5.44-5.9-6.02-8.47-.13-.19-.25-.4-.37-.64-.87-1.8-1.11-4.86-.64-7.99.31-2.03,1.19-5.82,3.62-8.37,1.48-1.55,2.76-2.28,3.82-2.56,1.08-1.14,2.63-2.04,4.41-2.56,2.39-.7,5.13-.74,8.15-.12,2.67.55,4.78,1.45,6.27,2.69,1.29,1.06,2.1,2.37,2.35,3.77,0,.02,0,.04,0,.05,2.05,1.91,3.74,5.72,3.68,11.25-.05,4.02-.74,6.18-1.62,7.31-.24.64-.58,1.28-1,1.91-.98,1.47-2.34,2.76-3.92,3.71-.61.36-.93.69-.98,1.01-.06.36.16.86.57,1.49,3.96-2.1,7.35-5.78,8.3-11.64,1.07-6.64-.19-12.8-3.45-16.92-2.78-3.51-6.83-5.49-12.05-5.87-5.79-.43-11.11,1.59-14.99,5.67-3.69,3.88-5.61,9.29-5.01,14.11.81,6.47,3.88,9.83,5.91,12.06,1.06,1.16,1.83,2.01,2.02,2.95.05.24.19.95-1.12,5.01-.85,2.64-2.02,5.76-3.3,8.79-1.98,4.69-5.86,13.06-9.66,16.45-1.49,1.33-2.88,1.8-4.14,1.4-1.27-.41-2.96-1.43-4.85-2.9-.31.18-.62.33-.93.44ZM588.35,194.4c.1.04.2.08.29.11,1.47.41,3.21-.79,4.93-2.13-.18-.22-.36-.45-.54-.68-1.52.98-3.08,1.88-4.69,2.7ZM594.25,190.89c.16.2.31.4.47.59.51-.4,1.01-.77,1.5-1.1.12-.08.33-.33.28-1.12-.74.56-1.49,1.1-2.25,1.62ZM532.26,188.25c1.7,1.28,3.11,2.09,4.06,2.4.67.21,1.5-.09,2.48-.89,2.61-2.15,6.02-7.89,9.36-15.73,1.28-3.01,2.47-6.14,3.35-8.82.98-3.01,1.19-4.28,1.16-4.54-.11-.54-.83-1.33-1.66-2.24-2.16-2.36-5.41-5.94-6.28-12.86-.32-2.59,0-5.38.95-8.05.94-2.67,2.48-5.18,4.45-7.25,4.19-4.41,9.92-6.58,16.16-6.12,2.88.21,5.47.9,7.72,2.03,2.11,1.07,3.92,2.55,5.37,4.39,1.82,2.3,3.06,5.11,3.68,8.35.59,3.05.61,6.31.06,9.71-1.08,6.7-5.06,10.36-8.22,12.26-.21.12-.42.25-.63.36.41.52.88,1.09,1.39,1.71,2.59,3.12,6.49,7.85,10.7,15.67,2.24,4.16,4.57,7.86,7.01,11.1.96-.65,1.91-1.34,2.83-2.06-.24-.82-.62-1.88-1.23-3.26-1.52-3.42-3.88-7.63-6.16-11.7-2.53-4.51-4.93-8.77-5.77-11.31-.9-2.73-.73-5.03.5-6.83,1.07-1.57,2.9-2.74,5.59-3.59,2.57-.81,5.87-1.31,10.09-1.52,6.81-.34,11.63-.37,15.15-.39,2.62-.02,4.44-.03,5.46-.17.56-4.62.35-9.02-.32-13.05-1.82,1.05-5.28,2.52-11.96,2.52-11.43,0-19.45-1.17-23.19-3.37-1.84-1.08-2.03-4.42-.58-9.92,1.17-4.4,3.37-9.95,5.9-14.85,2.65-5.13,4.82-7.75,6.4-9.26-2.16-1.37-4.52-2.71-7.08-3.97-.97-.48-2-.96-3.09-1.44-.07.4-.17.83-.3,1.3-.61,2.2-5.06,8.8-8.68,13.77-1.32,1.81-7.99,10.89-10.13,12.01-.63.33-1.3.5-1.99.5-1.14,0-2.35-.45-3.63-1.35-1.95-1.37-4.09-3.86-6.36-7.39-4.42-6.85-8.2-12.1-10.47-15.23l-.19-.26c-1.17-1.62-1.41-3.12-1.39-4.31-3.98,1.9-7.69,4.36-11.07,7.23,1.88.95,4.28,2.74,6.17,6.53,3.31,6.66,8.91,18.43,9.29,22.31.21,2.17-.89,3.77-3.38,4.91-2.33,1.07-6.14,1.85-11.98,2.48-9.8,1.06-17.05,1.42-21.2,1.09-.3,1.92-.49,3.82-.56,5.69-.09,2.35.04,4.65.35,6.87,1.98-.97,5.13-2.37,10.05-2.49,9.23-.23,21.62.91,24.64,2.92,1.67,1.11,2.3,3.33,1.87,6.58-.41,3.12-1.78,7.15-4.07,11.96-3.71,7.79-7.13,14.56-10.63,17.55ZM529.65,189.73,510.62,153.23c1.59,9.16,6,17.03,9.9,22.5,3.65,5.13,7.47,9.04,10.57,11.59,1.2-.95,2.5-2.55,3.94-4.81,2.14-3.37,4.41-7.98,6.54-12.45,2.23-4.68,3.55-8.56,3.94-11.53.24-1.83.22-4.21-1.24-5.18-2.44-1.63-14-2.93-23.8-2.68-4.96.13-8.02,1.63-9.85,2.54ZM619.61,150.4c-1.13.11-2.82.12-5.25.14-3.51.02-8.31.05-15.08.39-4.04.2-7.31.69-9.72,1.45-2.33.74-3.96,1.75-4.83,3.02-.98,1.42-1.08,3.24-.32,5.54.79,2.4,3.15,6.6,5.65,11.05,2.3,4.1,4.68,8.33,6.22,11.82.48,1.08.85,2.04,1.12,2.87,6.35-5.22,11.88-12.05,16.66-20.56,3.04-5.4,4.75-10.69,5.53-15.73ZM558.59,159.6c.02.19.07.38.13.56.43,1.16,1.72,1.9,3.65,2.09,2.76.28,6.33-.14,9.66-1.58-.56-.9-.81-1.64-.69-2.37.17-1.01,1.03-1.63,1.66-2.01,1.51-.91,2.67-2.08,3.46-3.26-1.25-.06-2.37-1.09-2.77-2.17-.55-1.48-.18-3.23.85-4.07.87-.71,2.04-.69,3.2.05.36.23.66.53.88.88.12-.87.2-1.91.22-3.13.05-4.35-1.03-7.34-2.31-9.12-.25.95-.79,1.76-1.53,2.22-1.19.74-2.54.61-3.44-.35-.86-.92-1.25-2.67-.05-4.37.67-.95,1.83-1.27,3.1-.86,0,0,0,0,0,0-.8-1.32-2.66-2.96-6.91-3.84-4.6-.95-7.98-.1-10.04,1.27.29.1.53.22.71.33,1.3.82,1.92,2.53,1.4,3.89-.48,1.26-1.52,2.06-2.73,2.08-.01,0-.03,0-.04,0-1.25,0-2.36-.83-2.91-2.17-.22-.54-.24-1.16-.06-1.81-.45.33-.9.74-1.36,1.22-2.75,2.89-3.76,8.34-3.38,12.05.44-.85,1.15-1.4,2.04-1.54,1.01-.16,1.94.21,2.56,1.01.77.99.94,2.46.41,3.66-.5,1.16-1.59,1.9-2.97,2.03-.12.01-.26.01-.41,0,.82,1.92,2.42,4.08,4.99,6.11.53.42,1.06.78,1.58,1.08.23-.51.55-1,.96-1.43,1.28-1.34,3.13-1.8,4.94-1.23,2.02.64,2.42,1.76,2.48,2.37.09.93-.48,1.83-1.53,2.4-1.26.69-3.32.94-5.76.02ZM552.66,160.67s0,0,0,0c0,0,0,0,0,0ZM558.81,158.12c2.02.83,3.77.77,4.84.18.51-.28.8-.65.77-.98-.03-.32-.43-.79-1.47-1.12-1.28-.41-2.54-.1-3.44.85-.31.32-.54.69-.7,1.07ZM508.71,138.94c-.13,0-.23.05-.34.16-.32.34-1.03,1.66-.73,6.51.19,3.01.69,5.95.92,6.86,0,.03.01.05.02.08.11-.02.26-.08.44-.16-.38-2.56-.53-5.09-.44-7.59.07-1.92.26-3.85.55-5.8-.1-.02-.2-.03-.3-.05-.04,0-.09-.01-.12-.01ZM576.02,147.73c-.21,0-.39.06-.55.19-.55.45-.73,1.54-.4,2.43.25.66,1.02,1.32,1.68,1.2.22-.04.45-.17.66-.4.18-.53.27-1.03.28-1.47,0-.77-.23-1.31-.72-1.62-.36-.23-.67-.34-.95-.34ZM550.37,148.44c.26.28.54.41.84.39,1.09-.1,1.56-.69,1.77-1.16.31-.7.21-1.62-.23-2.19-.3-.38-.69-.54-1.18-.46-.76.12-1.06.87-1.18,1.31-.15.59-.17,1.31-.02,2.11ZM510.84,137.73c4.04.31,11.15-.06,20.8-1.1,5.68-.61,9.34-1.36,11.53-2.36,2.42-1.11,2.64-2.36,2.53-3.44-.26-2.67-3.6-10.62-9.15-21.81-1.87-3.78-4.31-5.35-6.06-6.13-10.26,9.23-17.32,22.3-19.65,34.84ZM597.33,101.79c-1.51,1.39-3.67,3.88-6.36,9.11-2.48,4.82-4.65,10.26-5.79,14.56-.62,2.32-.93,4.24-.92,5.7,0,.96.15,2.19.83,2.59,2.45,1.44,8.34,3.17,22.45,3.17,6.94,0,10.14-1.63,11.68-2.6-1.96-9.9-6.54-17.43-8.78-20.65-2.15-3.09-6.61-7.57-13.11-11.88ZM573.57,133.39c-.31,0-.63.1-.86.42-.73,1.03-.55,2.03-.08,2.53.42.45,1.01.48,1.61.11.55-.34,1.04-1.25,1-2.36-.37-.29-.74-.48-1.07-.59-.16-.05-.37-.1-.6-.1ZM556.21,130.84c-.77.95-.94,1.82-.76,2.27.33.8.92,1.28,1.58,1.27.6,0,1.12-.43,1.38-1.13.24-.63,0-1.63-.82-2.14-.4-.25-.87-.33-1.39-.26ZM544.26,93.92c-.12,1.11-.1,2.52,1.06,4.14l.19.26c2.27,3.14,6.07,8.41,10.51,15.29,2.86,4.44,6.93,9.38,10.08,7.74,1.13-.59,5.17-5.45,9.63-11.57,4.53-6.23,8.01-11.7,8.45-13.31.16-.56.26-1.06.33-1.5-8.13-3.35-18.99-6.07-30.55-4.01-3.38.6-6.62,1.6-9.71,2.95ZM529.56,100.96s.07.02.1.03c.15.05.31.11.48.17,1.87-1.62,3.81-3.09,5.84-4.42,2.26-1.49,4.58-2.77,6.95-3.84,0-.05.01-.09.01-.14-.9.36-2.98,1.44-6.92,3.9-2.83,1.77-5.38,3.48-6.46,4.29ZM586.09,94.06c1.19.51,2.37,1.06,3.55,1.64,2.59,1.28,5.13,2.72,7.56,4.28.17-.14.33-.27.48-.39.21-.17.4-.32.54-.45-.54-.49-2.19-1.58-5.94-3.45-2.68-1.34-5.26-2.48-6.16-2.81,0,0,0,.02,0,.03,0,.3,0,.69-.02,1.16ZM542.94,92.31s0,0,0,0c0,0,0,0,0,0Z"/>
  </g>
  <path class="st0" d="M513.92,140.93c-13.92-6.1-27.24-6.94-37.52-2.35-6.12,2.73-11.16,7.3-16.04,11.73-3.82,3.46-7.77,7.05-12.2,9.72-3.72,2.23-7.89,3.91-12.4,4.99-9.34,2.23-18.22,1.61-26.42.61-8.59-1.05-16.22-3.81-22.26-8.03h14.58c3.73,0,6.76-3.03,6.76-6.76v-.13c0-3.73-3.03-6.76-6.76-6.76h-30.36c.04-.59.06-1.18.06-1.79v-4.95h16.17c17.15,0,31.31-13.74,31.57-30.62.13-8.39-3.05-16.31-8.95-22.3-5.9-5.99-13.77-9.29-22.15-9.29h-17.24c-7.19,0-13.04,5.85-13.04,13.04v32.47c0,2.21,1.8,4.01,4.01,4.01h8.68v11.74h-11.74v-4.08c0-6.28-1.44-8.61-5.32-8.61h-3.14c-3.73,0-6.76,3.03-6.76,6.76v.13c0,3.73,3.03,6.76,6.76,6.76h7.5v6.74h-7.5c-3.73,0-6.76,3.03-6.76,6.76v.13c0,3.73,3.03,6.76,6.76,6.76h4.29c2.3,0,4.17-1.87,4.17-4.17v-8.53h11.6c-.45,4.25-1.98,8.12-4.67,11.74h-1.31c-3.32,0-6.57.35-6.57,4.52v3.16c-7.04,5.26-16.82,6.52-24.96,3.2-5.47-2.23-10.01-6.31-14.41-10.26-1.6-1.44-3.26-2.92-4.94-4.3-10.43-8.57-23.4-13.97-37.5-15.62-14.1-1.65-27.96.61-40.1,6.54-5.22,2.55-10.2,5.77-15.02,8.89-7.51,4.86-15.28,9.88-23.96,12.33-12.63,3.55-27.66,1.76-44.66-5.34-6.63-2.77-13.15-6.09-19.45-9.3-7.19-3.66-14.63-7.45-22.27-10.44-15.7-6.15-29.73-7.64-41.77-4.46v.98c11.89-3.21,25.81-1.75,41.42,4.37,7.6,2.98,15.02,6.75,22.19,10.41,6.32,3.22,12.86,6.55,19.52,9.33,17.21,7.18,32.45,8.99,45.29,5.38,8.82-2.48,16.65-7.55,24.22-12.44,4.79-3.1,9.75-6.31,14.92-8.83,24.24-11.84,55.73-8.16,76.58,8.96,1.67,1.37,3.31,2.85,4.91,4.28,4.45,4,9.06,8.13,14.68,10.43,8.22,3.36,18.07,2.21,25.32-2.9v8.47c0,3.73,3.03,6.76,6.76,6.76h.13c3.73,0,6.76-3.03,6.76-6.76,0-1.07-.05-2.17-.11-3.23-.05-1.06-.1-2.17-.1-3.23,0-3.1.14-6.66,1.16-9.59.04-.11.08-.21.12-.32h13.04c6.33,4.75,14.5,7.84,23.77,8.97,8.29,1.01,17.27,1.64,26.76-.62,4.61-1.1,8.87-2.82,12.67-5.1,4.51-2.72,8.5-6.33,12.35-9.83,4.82-4.37,9.81-8.9,15.79-11.57,13.54-6.04,28.84-1.12,36.75,2.35M357.71,153.42c0,1.77-1.44,3.22-3.22,3.22h-4.29c-3.2,0-5.81-2.61-5.81-5.81v-.13c0-3.2,2.61-5.81,5.81-5.81h7.5v8.53ZM357.71,136.26h-7.5c-3.2,0-5.81-2.61-5.81-5.81v-.13c0-3.2,2.61-5.81,5.81-5.81h3.14c2.9,0,4.37,1.18,4.37,7.66v4.08ZM361.72,123.57c-1.69,0-3.06-1.37-3.06-3.1v-32.43c0-6.67,5.42-12.09,12.09-12.09h17.24c8.13,0,15.76,3.2,21.48,9.01,5.72,5.81,8.8,13.48,8.68,21.62-.25,16.37-13.98,29.69-30.62,29.69h-16.17v-11.74h16.64c9.98,0,18.24-8.12,18.41-18.09.08-4.87-1.79-9.51-5.28-13.05-3.55-3.61-8.46-5.68-13.49-5.68h-12.96c-2.35,0-4.27,1.92-4.27,4.27v31.61h-8.68ZM371.35,123.57v-31.61c0-1.83,1.49-3.32,3.32-3.32h12.96c4.77,0,9.44,1.97,12.81,5.4,3.31,3.36,5.09,7.76,5.01,12.37-.16,9.46-7.99,17.16-17.46,17.16h-16.64ZM358.66,143.95v-6.74h11.74v4.95c0,.6-.02,1.2-.06,1.79h-11.68ZM358.66,161.16c0-3.02,1.89-3.57,5.62-3.57h.58c-1.67,2.07-3.73,4.06-6.2,6v-2.43ZM371.41,157.6c-1.07,3.06-1.21,6.73-1.21,9.9,0,1.09.06,2.2.11,3.28.05,1.05.1,2.14.1,3.18,0,3.2-2.61,5.81-5.81,5.81h-.13c-3.2,0-5.81-2.61-5.81-5.81v-9.18c2.41-1.84,5.13-4.19,7.43-7.2h5.32s0,0,0,.01ZM372.83,156.64c.69-1.4,1.78-2.83,3.49-3.42,1.61-.56,3.26.1,4.1.55,1.09.58,2.08,1.41,3.03,2.21.2.17.41.34.61.51.06.05.13.11.19.16h-11.41ZM384.66,155.75c-.2-.17-.4-.34-.6-.5-.99-.83-2.01-1.69-3.19-2.32-1.69-.89-3.41-1.11-4.85-.61-1.81.63-3.25,2.11-4.22,4.32h-5c2.22-3.17,3.94-7.03,4.43-11.74h30.44c3.2,0,5.81,2.61,5.81,5.81v.13c0,3.2-2.61,5.81-5.81,5.81h-15.88c-.38-.29-.75-.59-1.12-.89Z"/>
  <path class="st0" d="M1209.2,293.36c-7.74,0-36.9-1.58-54.86-2.55-7.31-.4-12.59-.68-13.15-.68-2.15,0-9.37-2.89-12.36-11.74-1.75-5.18-.04-13.98,1.21-20.4.59-3.05,1.27-6.49.99-7.28-.11.11-.4.43-.83,1.33-2.3,4.84-5.82,21.38-2.21,31.42l-.94.34c-4.02-11.19.56-30.51,3.07-33.55.36-.44.74-.63,1.11-.58.23.04.43.16.58.37.61.86.17,3.25-.78,8.15-1.23,6.31-2.91,14.95-1.25,19.89,2.82,8.34,9.44,11.06,11.41,11.06.59,0,5.61.27,13.2.68,18.11.98,51.83,2.8,56.17,2.52,5.74-.38,18.5-4.82,21.34-16.15,2.84-11.32,37.9-180.16,39.09-186.96,1.12-6.42-5.46-15.65-12.15-17.02-6.86-1.41-67.52,1.79-74.44,3-7.23,1.27-11.04,7.42-12.16,10.86-1.21,3.72-2.61,11.37-2.56,12.07.11.14.85.49,1.25.57.02-.1.05-.24.09-.4,1.68-7.69,3.98-13.21,6.84-16.42,4.54-5.08,15.62-5.41,18.92-5.37.25,0,.4.07.51.19.26.28.22.73.13,1.62-.1,1.13-.26,2.84.4,3.58.22.25.53.37.94.38,3.53.1,32.52-.32,35.74-.88,2-.35,2.75-3.18,3.2-4.87.29-1.1.43-1.61.88-1.74.85-.24,15.07-1.15,18.91-.37,3.82.78,5.42,5.07,4.27,11.47-1.04,5.78-40.53,181.96-40.9,183.57-1.68,7.37-8.48,12.32-13.76,12.32-.71,0-72-.63-74.47-3.44-1.48-1.68-.12-11.31,1.67-22.77.49-3.12.95-6.07.89-6.49l.35-.04.54-.38c.23.32.2.74-.79,7.07-1.04,6.65-3.2,20.49-1.91,21.95,2.44,2.01,62.33,3.1,73.72,3.1,4.9,0,11.21-4.64,12.79-11.54,2.38-10.4,39.98-178.43,40.9-183.53,1.04-5.8-.26-9.65-3.48-10.31-3.68-.75-16.68.1-18.31.33-.09.21-.21.67-.31,1.05-.51,1.92-1.37,5.14-4,5.6-3.46.61-33.31.98-35.94.9-.7-.02-1.26-.26-1.67-.72-.95-1.07-.76-3.04-.64-4.34.02-.24.05-.51.06-.72-3,0-13.7.36-17.88,5.03-2.75,3.07-4.97,8.44-6.61,15.96-.12.56-.15.7-.2.8-.06.14-.27.45-.84.4-.59-.05-2.07-.62-2.26-1.37-.2-.77,1.43-9.04,2.58-12.59,1.18-3.65,5.24-10.18,12.94-11.54,6.95-1.22,67.91-4.42,74.81-3,7.27,1.5,14.16,11.18,12.94,18.18-1.19,6.8-36.26,175.7-39.1,187.03-1.64,6.56-6.31,10.57-9.93,12.77-4.52,2.75-9.32,3.94-12.31,4.14-.33.02-.81.03-1.44.03ZM1196.86,77.51h0,0Z"/>
  <path class="st0" d="M1114.23,237.55c-5.43,0-9.86-1.81-11.07-3.71-4.58-1.69-9.55-5.08-14.18-11.44-8.66-11.9-12.67-23.06-10.84-30.03-3.61-13.66-5.19-28.89-3.78-41.15,1.12-9.75,2.8-15.17,5.12-16.47,3-10.69,8.51-20.33,18.48-23.38,1.71-.52,3.25-.88,4.62-1.06,7.74-1.09,14.4,1.15,20.23,6.83,2.69-3.74,7.48-5.99,20.23-2.26,19.61,5.74,29,29.06,38.09,51.61,9.4,23.33,19.13,47.46,40.07,52.51l-.23.97c-21.45-5.17-31.27-29.54-40.76-53.11-9-22.33-18.3-45.42-37.44-51.02-12.27-3.59-16.7-1.55-19.22,2.03.67.69,1.32,1.43,1.97,2.21,7.57,9.19,15.56,22.42,17.42,50.83,1.12,17.02.21,38.79-5.9,45.18-.97,3.54-1.99,6.57-2.91,8.61-4.65,10.36-13.41,12.46-18.22,12.79-.57.04-1.12.06-1.67.06ZM1105.46,234.56c2.17,1.27,6.15,2.22,10.38,1.93,4.58-.31,12.93-2.32,17.37-12.2.83-1.85,1.7-4.36,2.54-7.22-.62.26-1.27.26-1.93-.02-4.49-1.93-8.12-16.71-8.21-19.39-.12-3.45,1.89-12.63,3.16-15.36.57-1.24,1.83-2.08,3.55-2.39,2.51-.45,5.62.34,7.06,1.79,3.6,3.6,1.39,19.67-1.65,31.75,4.31-7.57,5.28-26,4.2-42.46-1.85-28.13-9.73-41.2-17.2-50.26-.58-.7-1.16-1.36-1.75-1.98-.26.44-.5.89-.73,1.35,1.87,2.07,3.49,4.31,4.83,6.4,6.4,9.98,10.83,23.94,9.11,28.72-1.34,3.74-2.98,3.76-6.23,3.79-.97,0-2.08.02-3.41.12-2.35.19-3.47-2.54-5.32-7.06-.82-2.01-1.76-4.3-3.01-6.91-2.33-4.84-.09-18.57,1.96-23l.32-.71c.18-.39.36-.78.54-1.17-3.43-3.64-7-5.9-10.45-6.58.9,2.52.35,5.96-.14,9.08-.15.92-.29,1.82-.38,2.63-.79,6.86-1.5,10.53-7.69,12.56-5.57,1.82-6.86-1.02-8.8-5.31-.43-.95-.91-2.02-1.49-3.14-2.19-4.28-2.24-8.54-.11-11.7,2.7-4.03,8.63-5.92,16.71-5.36-.06-.06-.12-.11-.18-.16-1.74-1.52-5.19-1.51-10.24.04-9.4,2.87-14.7,11.93-17.65,22.11,0,0,.02,0,.03,0,1.74,0,3.55,2.05,5.37,6.1l.81,1.79c3.1,6.79,3.65,8.02,2.05,17.65-1.11,6.68-5.32,12.74-8.69,12.38-2.01-.19-4.34-2.48-4.1-12.31.17-6.62.85-15.25,2.93-23.47-1.18,1.67-2.58,5.65-3.64,14.76-1.35,11.73.06,26.21,3.38,39.36.86-1.85,2.24-3.14,4.04-3.76,6.2-2.13,6.92-.19,8.69,4.47.85,2.23,2.01,5.29,4.18,9.04,1.13,1.95,1.37,6.6,1.09,10.33-.17,2.37-.83,8.03-3.17,9.49-1.49.93-3.15.03-4.93-2.67-3.94-5.96-7.32-14.01-9.84-22.86-.32,4.36.9,13.18,11,27.08,4.18,5.75,8.65,8.99,12.82,10.73-1.26-4.47.44-14.29,2.02-18.91.94-2.75,1.64-3.28,2.08-3.44,1.58-.58,3.07-.77,5.12-1.04,1.04-.13,2.22-.29,3.62-.52.68-.12,1.4.14,2.12.75,3.97,3.36,7.69,16.91,7.69,19.92,0,1.63-2.76,3.71-6.56,4.95-2.16.7-7.22,1.89-13.25.32ZM1103.85,233.01c6.6,2.33,12.27,1.01,14.55.27,3.78-1.23,5.87-3.14,5.87-4,0-3.15-3.9-16.24-7.34-19.15-.49-.41-.93-.58-1.31-.53-1.42.24-2.61.39-3.66.53-1.99.26-3.43.45-4.9.99-.02,0-.6.25-1.48,2.83-1.85,5.41-3.29,15.82-1.73,19.06ZM1079.18,192.39c2.55,9.55,6.09,18.29,10.29,24.65.98,1.48,2.39,3.09,3.57,2.37,3.1-1.92,3.49-15.44,1.74-18.46-2.21-3.82-3.39-6.92-4.25-9.19-1.74-4.59-2.15-5.69-7.43-3.88-1.84.63-3.17,2.1-3.85,4.25-.02.08-.05.16-.08.25ZM1133.79,180.78c-.45,0-.88.04-1.3.11-.98.17-2.26.63-2.81,1.82-1.23,2.66-3.17,11.56-3.06,14.91.1,2.94,3.79,16.87,7.6,18.5.6.26,1.15.14,1.71-.36.09-.08.17-.16.26-.24,3.35-12.21,5.9-29.71,2.48-33.12-.99-.99-2.99-1.62-4.88-1.62ZM1080.31,135.48c-2.32,8.51-3.06,17.67-3.24,24.58-.17,6.86,1.02,11.08,3.19,11.28,2.54.28,6.52-5.04,7.61-11.55,1.55-9.33,1.08-10.36-1.97-17.07l-.81-1.79c-1.69-3.74-3.33-5.7-4.65-5.49-.04,0-.09.02-.13.03ZM1121.78,121.07c-.12.26-.24.53-.36.79l-.33.71c-2.16,4.68-4.02,17.88-1.96,22.14,1.27,2.64,2.25,5.03,3.04,6.96,1.67,4.1,2.7,6.55,4.31,6.44,1.36-.11,2.49-.12,3.47-.13,3.13-.03,4.19-.04,5.3-3.12,1.47-4.09-2.15-17.14-9.01-27.85-1.44-2.25-2.93-4.24-4.46-5.95ZM1105.95,113.36c-6.34,0-10.95,1.74-13.15,5.01-1.91,2.85-1.85,6.74.17,10.68.59,1.14,1.08,2.23,1.51,3.18,1.96,4.34,2.86,6.31,7.57,4.77,5.64-1.84,6.22-4.92,7.01-11.72.1-.83.24-1.74.39-2.68.52-3.23,1.09-6.83-.03-9.1-.03,0-.06,0-.08,0-1.18-.1-2.31-.15-3.4-.15ZM1110.06,112.58c4.37.59,8.25,3.34,11.47,6.71.23-.44.47-.88.73-1.3-4.08-4.02-8.56-6.27-13.57-6.82.17.11.32.23.47.36.36.31.65.66.9,1.05Z"/>
  <path id="design" class="st0" d="M1701.75,187.53c.17.22.36.43.57.62.89.8,2.03,1.2,3.23,1.12,2.25-.15,4.01-1.96,4.09-4.22.01-.42.04-.88.06-1.38,21.12-10,36.61-14.67,47.24-14.26,10.22.39,14.98,5.2,20.01,10.29,1.98,2,4.03,4.07,6.42,5.83,1.66,1.22,3.71,1.81,5.77,1.66,2.06-.15,4-1.04,5.47-2.49l30.16-29.82c.84-.83,1.27-1.98,1.19-3.16-.08-1.18-.66-2.26-1.61-2.97-1.6-1.21-3.89-1.05-5.31.37l-1.85,1.85c-1.11-1.89-2.67-4.34-4.68-7.02.4-.87.96-1.89,1.71-3.01,1.5-2.24,4.16-5.39,8.32-7.7,9.32-5.18,21.96-3.8,36.56,3.98,4.14,2.21,8,3.29,11.82,3.3.03,0,.06,0,.09,0,3.4,0,6.69-.85,10.06-2.6,6.27-3.26,11.77-9.1,17.59-15.28,5.98-6.36,12.17-12.93,19.58-16.99.27-.15.36-.48.22-.75-.15-.27-.48-.36-.75-.22-7.56,4.14-13.81,10.78-19.85,17.2-5.75,6.11-11.19,11.88-17.29,15.06-6.79,3.53-13.45,3.31-20.95-.7-8.21-4.38-15.81-6.79-22.59-7.17-5.6-.31-10.66.77-15.02,3.19-4.36,2.42-7.13,5.71-8.7,8.05-.63.94-1.14,1.84-1.54,2.64-1.69-2.19-3.68-4.51-5.95-6.79-7.49-7.53-15.84-12.46-24.84-14.67.54-.73,1.45-2.01,2.51-3.75,1.56-2.55,3.75-6.59,5.35-11.37,1.8-5.4,2.5-10.62,2.08-15.53-.53-6.15-2.84-11.81-6.86-16.83-3.56-4.44-8.23-7.82-13.5-9.78-5.03-1.86-10.48-2.4-15.75-1.55-5.06.81-9.8,2.89-13.72,6.01-2.05,1.64-3.88,3.56-5.44,5.71-1.63,2.25-2.96,4.76-3.97,7.48-1.63,4.37-2.32,8.97-2.05,13.67.27,4.66,1.47,9.16,3.56,13.37,2.85,5.72,6.48,11.16,7.74,13-1.07.29-3.16.91-5.87,2.07-3.62,1.54-9.07,4.37-14.45,9.04-6.06,5.25-10.81,11.73-14.12,19.24-4.13,9.37-6.02,20.4-5.61,32.76.02.53.13,1.04.32,1.52M1708.54,185.02c-.06,1.69-1.38,3.05-3.06,3.16-.89.06-1.75-.24-2.42-.84-.1-.09-.2-.19-.29-.3.38-.18.75-.37,1.13-.55,1.59-.79,3.15-1.54,4.68-2.28-.01.28-.02.55-.03.81ZM1708.65,182.96c-1.7.81-3.45,1.66-5.23,2.54-.4.2-.81.4-1.21.59-.13-.34-.2-.7-.22-1.08-.91-27.57,10-43,19.31-51.1,5.28-4.59,10.61-7.36,14.16-8.88,3.85-1.65,6.48-2.21,6.51-2.22.18-.04.33-.17.4-.34.07-.17.04-.37-.06-.52-.05-.06-4.66-6.58-8.11-13.51-4.07-8.18-4.61-17.72-1.46-26.16,3.75-10.08,11.87-16.82,22.28-18.5,1.57-.25,3.15-.38,4.72-.38,9.02,0,17.73,4.11,23.5,11.31,7.05,8.79,8.6,19.32,4.61,31.29-2.99,8.98-8.16,15.43-8.21,15.5-.12.15-.15.35-.09.53s.21.31.4.36c14.69,3.31,25.04,13.36,31.36,21.69-.45,1.07-.66,1.9-.69,2.35-.11,1.7-1.77,3.12-3.35,3.64-.95.31-1.78.26-2.12-.13-.26-.3-2.24-2.42-5.48-5.13-3.03-2.55-7.93-6.25-14-9.41-6.78-3.53-13.64-5.7-20.38-6.44-8.42-.93-16.68.38-24.56,3.87-6.56,2.91-12.26,6.96-16.93,12.04-3.93,4.27-7.17,9.31-9.65,14.99-3.91,8.96-5.13,17.7-5.49,23.1ZM1817.17,153.09c.67,1.2.44,2.71-.55,3.66l-26.09,25.1c-1.32,1.27-3.41,1.29-4.75.03l-14.54-13.7c-.72-.68-.77-1.79-.12-2.53.33-.38.8-.6,1.3-.62.02,0,.04,0,.07,0,.48,0,.93.18,1.28.52l12.11,11.94c.88.87,2.03,1.3,3.19,1.3,1.16,0,2.33-.44,3.21-1.32l24.71-24.71c.06.11.12.22.18.33ZM1816.42,151.78l-24.92,24.92c-1.33,1.33-3.51,1.34-4.85.02l-12.11-11.94c-.58-.57-1.34-.87-2.15-.84-.81.03-1.55.38-2.09.99-1.05,1.19-.96,2.97.19,4.06l14.54,13.7c1.76,1.66,4.52,1.65,6.26-.03l26.09-25.1c1.35-1.3,1.66-3.35.75-4.99-.11-.19-.22-.39-.34-.6l2.05-2.05c1.04-1.04,2.7-1.15,3.87-.27.69.52,1.11,1.31,1.17,2.16.06.86-.26,1.7-.87,2.3l-30.16,29.82c-2.68,2.65-6.81,2.95-9.82.73-2.33-1.72-4.34-3.75-6.29-5.72-2.47-2.5-5.03-5.08-8.26-7.05-3.63-2.21-7.72-3.38-12.5-3.56-.46-.02-.93-.03-1.41-.03-5.38,0-11.69,1.14-19.24,3.46-7.63,2.35-16.36,5.86-26.55,10.67.86-11.11,5.68-37.19,31.37-48.58,17.46-7.75,33.56-2.9,43.98,2.54,11.69,6.09,19.08,14.2,19.14,14.28.64.76,1.88.93,3.3.47,1.87-.62,3.96-2.32,4.11-4.61.02-.24.13-.72.37-1.38,1.82,2.49,3.27,4.79,4.36,6.66Z"/>
  <path class="st0" d="M1112.74,251.77c-7.01,0-14.04-2.6-19.74-7.38-12.31-10.34-21.26-29.04-25.27-52.76-6.55,1.98-14.68,2.94-24.59,2.02-43.21-4.05-57.25-17.12-67.5-26.67-11.09-10.33-18.43-17.16-54.27-5.7-10.21,3.26-19.36,4.67-27.69,4.67-26.31,0-44.46-13.99-62.16-27.64-22.86-17.62-44.45-34.25-81.94-22.12-25.73,8.33-35.25,30.52-44.46,51.97-9.44,22-18.35,42.77-43.4,48.68-28.58,6.73-47.11-8.63-47.29-8.79l.65-.76c.18.15,18.36,15.19,46.41,8.58,24.56-5.79,33.38-26.34,42.71-48.1,9.29-21.66,18.91-44.06,45.07-52.53,38-12.3,59.79,4.5,82.86,22.28,23.1,17.8,46.98,36.22,88.93,22.81,36.41-11.64,43.91-4.65,55.26,5.92,10.15,9.45,24.04,22.39,66.91,26.41,9.83.92,17.88-.04,24.33-2.01-.02-.13-.04-.25-.06-.38-3.52-22.04-2.22-45.27,3.46-62.15,6.32-18.77,17.91-30.94,31-32.55,11.58-1.43,23.15,5.88,32.54,20.56,8.33,13.02,13.79,28.24,15.77,44.02,3.29,26.13.1,50.89-8.99,69.71-2,4.14-3.77,6.29-5.26,6.39-.46.04-1.16-.12-1.76-1.03-1.81-2.74-3.57-7.27-5.61-12.51-3.91-10.05-8.57-22.03-15.48-26.11-1.78,1.78-3.82,2.83-6.03,2.94-6.88.32-13.28-8.64-15.86-22.3-.2-1.03-1.04-1.8-2.06-1.94-2.2,4.93-8.61,12.14-20.46,16.02,3.67,21.52,11.94,41.46,24.87,52.32,6.51,5.47,14.8,7.98,22.73,6.9,6.81-.93,12.78-4.46,16.38-9.7.21-.3.54-.51.9-.56.36-.05.73.04,1.01.27,2.04,1.62,7.64,5.43,15.43,5.75,11.51.47,19.35-2.4,25.42-9.29,4.99-5.67,20.97-27.63,17.06-72.1-.68-7.74-2.01-15.13-3.89-22.02-7.52-10.96-14.61-21.19-20.25-25.04-6.18-4.21-12.29-6.29-17.32-6.89,9.85,5.59,18.05,17.81,23.94,35.82,6.12,18.73,6.38,37,.82,59.24-4.45,17.81-15.89,27.57-24.64,29.09-1.6.28-2.98.57-4.2.82-3.26.68-4.9,1.02-5.56.1-.56-.79-.13-2.06,1.75-5.23,9.76-16.39,13.34-40.23,10.35-68.92-1.53-14.68-6.62-29.88-14.7-43.94-1.24-2.16-1.01-4.2.66-5.74,1.35-1.25,3.68-2.12,6.67-2.38-.45-.16-.91-.3-1.37-.43-5.22-1.46-7.67-1.08-9.29-.82-1.91.3-2.92.34-5.12-1.9-.51-.52-.98-.99-1.41-1.42-2.01-2-3.01-3.01-2.84-4.1.18-1.14,1.51-1.86,4.78-3.51,6.34-3.21,16.92-5.05,25.16-1.49,15.14,6.54,27.3,23.79,33.5,46.3.16.23.32.46.47.69,12.82,18.7,27.35,39.9,41.64,42.06,4.43.66,8.49-.52,12.42-3.63,8.76-6.94,15.93-16.5,22.86-25.74,14.1-18.79,27.41-36.54,49.69-22.15,79.15,51.13,112.38,29.16,139.08,11.51,17.27-11.42,32.19-21.28,54.96-7.68,11.11,6.64,23.71,16.43,37.05,26.81,17.58,13.67,35.75,27.8,50.49,34.34,26.15,11.59,51.5,8.67,104.35-12.05l.37.93c-53.15,20.83-78.69,23.75-105.13,12.03-14.85-6.58-33.07-20.76-50.7-34.46-13.31-10.35-25.89-20.13-36.94-26.74-22.23-13.28-36.9-3.58-53.89,7.66-26.94,17.81-60.47,39.98-140.17-11.51-21.49-13.88-33.93,2.7-48.34,21.91-6.97,9.3-14.18,18.91-23.04,25.92-4.1,3.25-8.54,4.54-13.19,3.84-14.3-2.16-28.55-22.41-41.21-40.87,1.53,6.17,2.63,12.71,3.22,19.5,2.67,30.28-3.8,57.51-17.3,72.85-6.28,7.13-14.36,10.09-26.21,9.63-8.08-.33-13.89-4.28-16.01-5.96-.09-.07-.19-.07-.24-.06-.09.01-.17.06-.22.14-3.76,5.47-9.98,9.16-17.07,10.13-1.25.17-2.51.25-3.78.25ZM1148.01,110.74c-3.6,0-6.37.84-7.81,2.17-1.31,1.21-1.47,2.77-.47,4.51,8.15,14.18,13.28,29.52,14.83,44.34,3.02,28.91-.61,52.95-10.48,69.54-1.78,3-1.96,3.9-1.8,4.13.28.39,2.44-.06,4.54-.5,1.23-.26,2.62-.55,4.24-.83,8.44-1.47,19.5-10.97,23.84-28.34,5.51-22.05,5.27-40.15-.8-58.68-6.22-19.03-15-31.47-25.54-36.32-.18,0-.36,0-.54,0ZM1113.89,195.82c7.1,4.37,11.78,16.39,15.71,26.5,2.02,5.19,3.76,9.67,5.51,12.32.4.61.74.59.86.58,1.04-.07,2.7-2.25,4.42-5.82,9-18.65,12.17-43.21,8.9-69.15-1.97-15.63-7.37-30.71-15.62-43.61-9.18-14.34-20.39-21.48-31.58-20.1-12.51,1.54-24.07,13.75-30.17,31.87-5.74,17.03-6.85,40.2-3.31,61.88,11.67-3.85,17.86-11,19.84-15.74l.13-.31h.33s0,0,0,0c1.64,0,3.05,1.17,3.36,2.77,2.49,13.15,8.47,21.74,14.83,21.48,1.88-.09,3.64-.95,5.19-2.41-1.62-.78-3.36-1.11-5.24-.91-6.46.74-11.88-10.13-13.37-21.04-1.25-9.12.46-17.77,4.45-22.56,1.88-2.26,4.16-3.51,6.61-3.62.12,0,.24,0,.36,0,7.54,0,14.13,11.14,14.79,25.13.45,9.58-2,18.09-6,22.73ZM1108.15,194.13c1.75,0,3.37.43,4.88,1.21,3.89-4.36,6.3-12.73,5.85-22.2-.63-13.45-6.78-24.17-13.78-24.17-.11,0-.21,0-.32,0-2.16.1-4.19,1.23-5.88,3.26-3.82,4.58-5.44,12.93-4.23,21.78,1.6,11.7,7.08,20.77,12.27,20.18.41-.05.81-.07,1.21-.07ZM1148.73,109.72c5.59.15,12.84,2.2,20.27,7.27,5.38,3.67,11.64,12.4,18.8,22.81-6.33-20.81-17.88-36.62-32.1-42.76-7.94-3.43-18.16-1.64-24.3,1.47-2.4,1.22-4.13,2.09-4.24,2.77-.09.59.96,1.64,2.56,3.24.43.43.9.9,1.42,1.42,1.94,1.98,2.61,1.87,4.25,1.61,1.71-.27,4.29-.68,9.72.85,1.24.35,2.45.79,3.64,1.32Z"/>
  <path class="st0" d="M442.81,561.35c-11.55,0-21.62-2.36-31.87-6.9-13.74-6.09-30.36-19.21-46.43-31.89-14.1-11.13-28.68-22.64-41.19-29.29-44.38-23.61-91.89-13.33-141.22,30.56l-.67-.75c49.67-44.2,97.57-54.53,142.35-30.7,12.59,6.7,27.2,18.23,41.34,29.39,16.02,12.65,32.59,25.72,46.21,31.76,26.23,11.63,51.48,8.77,103.89-11.76l.37.93c-32.35,12.68-54.43,18.65-72.79,18.65Z"/>
  <path class="st0" d="M646.71,545.29h-44.16c-.22,0-.43.12-.54.31-.04.07-4.43,7.33-11.34,12-.76-.48-2.71-1.78-5-3.79-4.88-4.27-7.54-8.4-8.9-11.11-1.3-2.58-1.99-5.28-1.98-7.81,0-2.85,1-5.48,2.74-7.2.9-.89,2.04-1.52,3.32-1.83,1.27-.31,2.58-.27,3.79.1,3.8,1.19,5.09,6.23,5.1,6.28.08.31.38.52.7.48.32-.04.56-.32.55-.64,0-.02-.03-1.58.67-3.31.92-2.29,2.61-3.74,5.03-4.31,2.18-.52,4.5.07,6.36,1.63,1.08.9,1.96,2.09,2.54,3.44.63,1.47.9,3.06.81,4.75-.22,4.14-2.11,7.53-2.13,7.57-.16.29-.08.66.2.84.28.18.65.12.85-.14,3.83-4.97,8.17-10.6,9.8-17.21.83-3.36.77-6.97-.15-10.18-1.02-3.54-3.01-6.33-5.75-8.07-1.82-1.16-4-1.85-6.31-2-2.21-.14-4.48.21-6.57,1.02-3.54,1.37-6.77,4.05-9.2,7.62-2.84-5.14-7.12-8.78-11.88-10.04-2.78-.74-5.82-.57-8.56.48-2.87,1.1-5.12,3.07-6.34,5.55-1.27,2.58-1.57,5.83-.9,9.65.58,3.27,1.71,6.42,3.37,9.37,1.39,2.46,3.09,4.69,5.07,6.63h-41.87c-.35,0-.63.28-.63.63s.28.63.63.63h43.48c.26,0,.5-.16.59-.41.09-.25.02-.53-.18-.7-2.39-2.09-4.41-4.59-6-7.41-1.59-2.82-2.68-5.84-3.23-8.97-.63-3.56-.36-6.54.79-8.88,1.08-2.19,3.09-3.94,5.66-4.92,2.5-.95,5.26-1.11,7.78-.44,4.7,1.25,8.92,5.02,11.58,10.35.1.21.31.34.54.35.23.01.45-.1.57-.3,2.34-3.79,5.59-6.64,9.17-8.02,3.99-1.54,8.49-1.21,11.75.87,2.47,1.58,4.28,4.12,5.21,7.36.87,3,.91,6.38.14,9.52-1.19,4.84-3.95,9.2-6.85,13.16.3-1.14.55-2.44.62-3.84.1-1.88-.21-3.67-.91-5.32-.66-1.53-1.66-2.88-2.89-3.91-2.17-1.81-4.89-2.5-7.46-1.89-3.54.84-5.17,3.23-5.91,5.07-.17.43-.31.86-.41,1.26-.86-1.76-2.43-3.98-5.05-4.8-2.92-.91-6.2-.11-8.37,2.03-1.98,1.96-3.12,4.92-3.12,8.1,0,2.72.73,5.62,2.12,8.38,2.57,5.1,6.43,9.08,9.22,11.51,3.02,2.64,5.4,4.05,5.5,4.11.1.06.21.09.32.09.12,0,.24-.03.35-.1,3.85-2.52,6.92-5.82,8.82-8.14,1.6-1.96,2.65-3.54,3.05-4.18h43.81c.35,0,.63-.28.63-.63s-.28-.63-.63-.63Z"/>
  <path class="st0" d="M731.6,459.83c-.15-.27-.48-.36-.75-.22-7.56,4.14-13.81,10.78-19.85,17.2-5.75,6.11-11.19,11.88-17.29,15.06-6.79,3.53-13.45,3.31-20.95-.7-8.21-4.38-15.81-6.79-22.59-7.17-5.6-.31-10.66.77-15.02,3.19-4.36,2.42-7.13,5.71-8.7,8.05-.63.94-1.14,1.84-1.54,2.64-1.69-2.19-3.68-4.51-5.95-6.79-7.49-7.53-15.84-12.46-24.84-14.67.54-.73,1.45-2.01,2.51-3.75,1.56-2.55,3.75-6.59,5.35-11.37,1.8-5.4,2.5-10.62,2.08-15.53-.53-6.15-2.84-11.81-6.86-16.83-3.56-4.44-8.23-7.82-13.5-9.78-5.03-1.86-10.48-2.4-15.75-1.55-5.06.81-9.8,2.89-13.72,6.01-2.05,1.64-3.88,3.56-5.44,5.71-1.63,2.25-2.96,4.76-3.97,7.48-1.63,4.37-2.32,8.97-2.05,13.67.27,4.66,1.47,9.16,3.56,13.37,2.85,5.72,6.48,11.16,7.74,13-1.07.29-3.16.91-5.87,2.07-3.62,1.54-9.07,4.37-14.45,9.04-6.06,5.25-10.81,11.73-14.12,19.24-4.13,9.37-6.02,20.4-5.61,32.76.02.53.13,1.04.32,1.52l.54.96c.17.22.36.43.57.62.89.8,2.03,1.2,3.23,1.12,2.25-.15,4.01-1.96,4.09-4.22,0-.19.02-.4.02-.61,0,0,0,0,0,0,.02-.57.07-1.3.13-2.03,0,0,0,0,0,0,.07-.89.17-1.88.3-2.95.02-.18.03-.29.03-.29h0c1.54-12.32,7.6-34.94,31.04-45.34,17.46-7.75,33.56-2.9,43.98,2.54,11.69,6.09,19.08,14.2,19.14,14.28.64.76,1.88.93,3.3.47,1.87-.62,3.96-2.32,4.11-4.61,0-.07.02-.17.04-.29,0,0,0,0,0,0,.14-1.4,1.65-3.87,1.65-3.87h0c.25-.44.53-.9.86-1.38,1.5-2.24,4.16-5.39,8.32-7.7,9.32-5.18,21.96-3.8,36.56,3.98,4.14,2.21,8,3.29,11.82,3.3.03,0,.06,0,.09,0,3.4,0,6.69-.85,10.06-2.6,6.27-3.26,11.77-9.1,17.59-15.28,5.98-6.36,12.17-12.93,19.58-16.99.27-.15.36-.48.22-.75ZM623.72,501.34c-.11,1.7-1.77,3.12-3.35,3.64-.95.31-1.78.26-2.12-.13-.26-.3-2.24-2.42-5.48-5.13-3.03-2.55-7.93-6.25-14-9.41-6.78-3.53-13.64-5.7-20.38-6.44-8.42-.93-16.68.38-24.56,3.87-6.56,2.91-12.26,6.96-16.93,12.04-3.93,4.27-7.17,9.31-9.65,14.99-3.68,8.43-4.97,16.65-5.41,22.09l-.17,2.74c0,.11,0,.22-.01.33-.06,1.69-1.38,3.05-3.06,3.16-.89.06-1.75-.24-2.42-.84,0,0-.7-.41-.98-1.66-.02-.1-.04-.19-.05-.29,0-.05-.02-.1-.03-.16,0-.04,0-.07,0-.1,0-.04-.01-.07-.01-.11-.91-27.57,10-43,19.31-51.1,5.28-4.59,10.61-7.36,14.16-8.88,3.85-1.65,6.48-2.21,6.51-2.22.18-.04.33-.17.4-.34.07-.17.04-.37-.06-.52-.05-.06-4.66-6.58-8.11-13.51-4.07-8.18-4.61-17.72-1.46-26.16,3.75-10.08,11.87-16.82,22.28-18.5,1.57-.25,3.15-.38,4.72-.38,9.02,0,17.73,4.11,23.5,11.31,7.05,8.79,8.6,19.32,4.61,31.29-2.99,8.98-8.16,15.43-8.21,15.5-.12.15-.15.35-.09.53s.21.31.4.36c14.69,3.31,25.04,13.36,31.36,21.69-.45,1.07-.66,1.9-.69,2.35Z"/>
  <g>
    <path class="st0" d="M1352.67,526.49c-6.58-2.78-13.32-5.07-20.33-6.49-7.92-1.6-15.91-2.3-23.99-2.08-1.22.03-2.48-.06-3.64.46.27,2.34.73,4.62.77,6.91.17,8.51-6.17,13.37-14.42,11.11-5.59-1.53-9.3-5.21-11.73-10.58-2.6,1.3-4.73,3.12-6.96,4.77-3.2,2.36-6.32,4.85-9.86,6.72-7.01,3.7-13.55,2.58-18.91-3.27-3.24-3.54-5.27-7.82-7.23-12.13-1.31-2.87-2.44-5.81-4.06-8.53-1.24-2.09-2.73-3.95-4.6-5.52-7.72-6.47-18-4.46-22.73,4.44-2.85,5.35-3.38,11.22-3.92,17.1-.17,1.91-.43,3.8-1.17,5.58-.88,2.12-2.29,3.74-4.72,3.88-1.61.09-2.22,1.73-3.61,2.01-6,1.2-12,1.6-17.9-.5-1.76-.62-3.01-2.02-4.41-3.79-2.35,3.45-5.57,5.15-9.63,5.24-3.94.09-7.36-.99-10-4.02-5.57,4.69-15.52,4.8-21.48.16-4.38,4.52-9.97,5.77-15.9,4.56-3.35-.69-6.33-.81-9.7-.03-4.48,1.03-8.89-.21-12.75-2.8-6.32,3.52-12.36,3.53-19.53.06-2.09,1.91-4.67,2.66-7.44,3.01-4.66.59-9.28.4-13.83-.73-3.92-.98-5.4-2.78-5.67-6.83-.19-2.9-.18-5.81.2-8.7.48-3.55,1.69-4.92,5.21-5.74,4.07-.94,8.21-1.06,12.37-.8.89.06,1.78.12,2.64.17,2.88-10.19,4.37-11.02,19.42-10.95,4.39-9.66,12.9-8.43,21.11-7.93,5.65-10.16,9.13-11.89,20.37-10,1.25-4.33,2.39-8.87,7.84-9.97,4.58-.92,9.06-.47,14.17,1.06,0-4.15-.06-7.95.02-11.74.11-5.24,1.88-7.17,7.14-7.63,2.39-.21,4.8-.11,7.2-.06,2.34.05,4.58.67,7.04,1.39.8-4.05,1.12-8.05.85-12.11-.36-5.49.76-6.8,6.22-7.29,4.3-.39,8.61-.63,12.9.04,3.14.49,4.17,1.55,4.4,4.71.13,1.73.08,3.48.08,5.23-.03,26.4-.07,52.79-.09,79.19,0,1.5-.52,3.43,1.67,3.88,2.16.45,3.67-.75,4.62-2.6,1.43-2.82,1.45-5.94,1.71-8.99.39-4.58,1.25-9.04,3.14-13.25,4.92-10.99,17.47-13.3,26.02-4.8,2.57,2.56,4.29,5.67,5.75,8.95,2.03,4.54,3.88,9.17,6.7,13.32,5.75,8.45,13.22,10.24,21.83,4.84,4.84-3.04,9.34-6.6,14.04-9.86,1.15-.8.73-1.67.48-2.62-1.19-4.52-1.21-9.05.23-13.5,2.43-7.54,9.1-9.89,15.78-5.61,4.28,2.75,7.01,6.79,8.89,11.4.59,1.44,1.18,2.02,2.83,1.93,15.56-.82,30.57,1.62,44.96,7.7.84.35,1.72.61,2.56.97M1192.91,538.6c-1.56-1.04-1.43-2.56-1.42-4.06.02-25.24.05-50.47.07-75.71,0-2.91-.06-5.81,0-8.72.04-2.61-1.13-3.98-3.76-4.29-4.65-.55-9.27-.38-13.9.15-3.43.39-4.3,1.39-4.13,4.88.21,4.16.18,8.29-.55,12.41-.12.71-.38,1.46.22,2.13,2.72,3.05,3.59,6.87,4.26,10.73,2.18,12.69,2.02,25.46,1.12,38.24-.46,6.46-1.09,13-3.86,18.93-1.28,2.74-.27,3.94,1.53,5.34,1.14.88,2.44,1.41,3.84,1.68,4.53.89,9.08.66,13.62.08,1.08-.14,2.1-.51,2.97-1.79ZM1157.24,463.58c-1.03.09-2.44.17-3.83.35-4.3.57-5.62,1.96-5.84,6.26-.19,3.81-.26,7.63-.41,11.45-.03.7.12,1.26.55,1.83,1.5,1.96,2.19,4.26,2.62,6.65,1.8,10.1,2.09,20.3,1.85,30.52-.12,5.06-.25,10.14-1.89,15.01-.31.91-.1,1.53.54,2.22,4.3,4.63,13.74,3.96,17.2-1.25.43-.65.68-1.21.37-2.06-2.81-7.7-2.96-15.77-3.13-23.82-.29-14.39.83-28.7,2.5-42.97.24-2.05-.43-2.81-2.26-3.23-2.61-.6-5.24-.8-8.27-.97ZM1144.94,502.28c.25-4.95.55-11.08.89-17.21.06-1.07.07-1.87-1.25-2.27-4.23-1.27-8.47-1.61-12.74-.4-3.16.9-6.11,5.21-6,8.43.01.45.1.78.49,1.05,3.1,2.11,3.92,5.44,4.59,8.79,1.35,6.72,1.29,13.52,1.03,20.33-.17,4.49-.57,8.94-2.05,13.23-1.19,3.45-.93,3.98,2.62,5.21.62.22,1.26.43,1.91.53,4.22.64,8.44.96,12.36-1.21,1.36-.75,2.35-1.68,1.28-3.57-1.06-1.87-1.5-4.03-1.86-6.16-1.43-8.47-1.32-17.02-1.28-26.74ZM1108.54,540.35c4.78,2.76,12.47,2.11,17.07-1.39,1.45-1.11,2.02-2.09,1-3.89-.72-1.26-1.01-2.8-1.3-4.26-2-9.99-2.17-20.09-1.66-30.22.14-2.71.44-5.42.66-8.1-9.66-2.71-17.02.68-18.68,9.3,3.41,1.17,5.83,3.56,6.75,7.03,2.89,10.92,2.19,21.45-3.84,31.54ZM1084.54,509.34c8.4,2.38,9.26,6.44,9.53,13.24.22,5.76-.21,11.4-3.65,16.3,5.36,3.57,12.61,4,15.79,1.3-6.13-12.32-3.97-25.06-2.32-37.72-9.57-2.2-17.33.54-19.35,6.88ZM1082.92,510.49c-3.86-.88-8.06-.78-11.34.25-4.38,1.39-6.65,4.76-6.34,9.41,5.05,1.51,6.59,1.6,6.92,9.7.13,3.08-.43,6.05-1.34,8.88,5.6,3.61,14.17,3.6,17.76.19-7.41-8.34-6.55-18.3-5.65-28.44ZM1063.91,521.18c-5.37-.63-10.47-.61-15.53.62-2.38.58-3.7,2.08-3.94,4.52-.31,3.06-.36,6.14-.18,9.2.18,3.17,1.4,4.74,4.44,5.52,5.38,1.38,10.83,1.55,16.28.46,1.6-.32,3.18-.9,4.33-2.47-5.02-4.86-5.32-11.18-5.4-17.86ZM1169.32,534.52c1.64-2.86,2.31-5.51,2.84-8.19,2.78-13.88,2.68-27.88,1.69-41.9-.35-4.97-1-9.91-2.79-14.62-.44-1.16-.79-2.45-2.23-3.24-2.16,18.59-3.47,36.94-2.09,55.39.31,4.12.96,8.21,2.58,12.56ZM1303.24,517.35c-2.71-6.41-5.82-11.81-12.35-14.11-4.03-1.42-7.58-.33-9.77,3.2-3.49,5.61-3.13,11.6-1.42,17.92,7.43-3.97,15.1-6.15,23.55-7.01ZM1303.3,518.32c-8.29.77-15.93,2.92-23.03,6.86,2.29,6.33,7.82,10.52,14.03,10.75,5.46.2,9.3-2.73,10.07-7.89.49-3.23.13-6.43-1.08-9.73ZM1107.45,539.29c1.74-1.3,2.5-3.03,3.18-4.81,1.34-3.51,1.96-7.19,2.19-10.91.31-4.96.44-9.95-1.36-14.72-1.12-2.97-3-5.2-6.5-6.18-1.93,10.86-2.93,21.42-.16,32,.44,1.67,1.06,3.31,2.64,4.62ZM1125.55,492.8c-2.65,10.19-1.04,37.02,2.58,42.91.24-.38.52-.69.63-1.05.42-1.34.9-2.68,1.15-4.06,1.62-8.8,1.55-17.65.63-26.51-.27-2.64-.76-5.26-1.82-7.72-.62-1.45-1.32-2.86-3.17-3.57ZM1146.72,484.03c-.55,17.56-2.56,34.43,2.25,51.06.99-.94,1.18-2.06,1.32-3.17,1.74-14.27,1.29-28.49-1.07-42.66-.27-1.65-.75-3.32-2.5-5.23ZM1089.62,538.05c.28-.38.62-.73.84-1.14,3.55-6.77,3.51-13.89,1.55-21.01-.94-3.42-4.32-5.26-7.86-5.09-2.82,9.37-.1,23.21,5.46,27.24ZM1064.9,521.36c0,6.1.18,11.9,5.02,16.84,1.62-4.31,1.58-8.18.96-12.03-.52-3.28-2.04-4.43-5.98-4.81Z"/>
    <path class="st0" d="M845.08,534.08c1.1-.58,2.02-.36,2.9-.37,13.93-.02,27.87-.07,41.8.01,2.53.02,4.47-.75,6.2-2.51,2.98-3.03,6.29-5.64,9.86-7.95,10.94-7.06,22.57-7.31,34.66-3.72,9.33,2.77,18.08,7,27.15,10.44,5.99,2.27,12.11,4.03,18.46,4.94,2.64.38,5.28.48,7.94.26,5.38-.45,8.54-2.93,10.11-8.1.62-2.06.96-4.2,1.51-6.29,1.83-6.93,5.2-9.52,12.33-9.37,6.14.13,12.27.31,18.37-.6,3.95-.59,7.07-2.43,8.91-6.02,3.79-7.4,10.2-10.52,18.05-11.5,8.8-1.09,17.61-2.11,26.21-4.46,7.85-2.14,14.11-6.4,18.78-13.07,3.23-4.62,6.48-9.23,10.09-13.58,5.24-6.32,11.63-10.73,19.63-12.87,9.33-2.49,18.34-5.78,26.38-11.32,5.1-3.52,9.24-8.07,13.38-12.6,5.09-5.57,10.01-11.31,15.65-16.36.24-.21.52-.41.36-1.01-1.63.43-3.28.89-4.95,1.31-2.36.59-4.75.85-7.14.23-1.17-.3-2.18-.98-2.33-2.3-.14-1.23.71-1.98,1.68-2.54.5-.29,1.03-.55,1.57-.74,5.26-1.79,10.65-2.38,16.18-1.9,1.73.15,2.64.87,2.15,2.74-1.45,5.54-2.89,11.07-4.33,16.61-.04.16-.08.33-.15.47-.58,1.15-.91,2.86-2.56,2.59-1.73-.28-1.42-2-1.42-3.28,0-2.77.76-5.41,1.65-8.01.48-1.4.93-2.8,1.2-4.34-3.63,2.98-6.96,6.23-10.1,9.67-2.52,2.76-5.13,5.44-7.51,8.31-9.68,11.69-22.18,18.9-36.7,22.49-10.53,2.61-18.65,8.3-24.85,17.03-1.54,2.16-3.29,4.19-4.64,6.47-6.49,10.95-16.38,16.48-28.63,18.56-6.71,1.14-13.44,2.06-20.18,2.92-7.28.93-13.07,3.99-16.53,10.79-2.05,4.03-5.59,5.97-9.93,6.65-5.69.9-11.42.62-17.14.56-8.38-.09-11.12,2.04-13,10.19-.32,1.37-.55,2.77-.93,4.13-1.73,6.29-5.47,9.3-12.02,9.54-7.92.29-15.46-1.67-22.85-4.25-9.15-3.2-17.88-7.52-27.1-10.55-8.38-2.76-16.85-4.36-25.66-2.23-7.82,1.89-14.3,6.15-19.9,11.72-2.75,2.74-5.66,3.84-9.51,3.8-13.43-.17-26.87-.05-40.31-.07-.85,0-1.78.3-2.81-.53ZM1199.06,403.28c-5.91-.72-11.67-.24-17.21,2.05-.3.12-.59.32-.84.53-1.12.94-1.03,1.88.22,2.54.71.37,1.58.63,2.37.61,5.74-.16,11.08-1.51,15.46-5.72ZM1200.27,404.69c-2.78.7-3.21,2.45-3.76,4.56-.99,3.81-2.86,7.4-2.98,11.44-.03.98-.38,2.11,1.05,3.15,2.87-6.21,3.11-12.9,5.69-19.15Z"/>
    <path class="st0" d="M1021.48,519.16c3.49.13,6.96.25,10.4.91,2.93.56,4.47,2.41,4.84,5.24.43,3.3.42,6.62.04,9.93-.29,2.59-1.71,4.32-4.24,4.91-6.64,1.53-13.31,1.49-19.93-.1-2.48-.6-3.96-2.32-4.38-4.87-.57-3.55-.59-7.09.1-10.63.56-2.91,2.41-4.48,5.26-4.81,2.63-.3,5.28-.39,7.92-.58ZM1020.69,520.24c-1.63.05-4.28-.03-6.92.37-2.63.4-4.21,1.77-4.64,4.41-.53,3.3-.56,6.62-.12,9.92.29,2.17,1.59,3.7,3.73,4.2,6.55,1.54,13.14,1.54,19.71.08,2.01-.45,3.07-1.8,3.36-3.83.46-3.23.46-6.45.02-9.67-.43-3.1-1.61-4.36-4.69-4.91-3.11-.55-6.26-.61-10.44-.57Z"/>
  </g>
  <g id="Main_Design">
    <path class="st0" d="M1353.63,525.84,1692.54,515.7c-.03-.08-.06-.16-.09-.24-1.58-4.03-2.5-6.61-1.69-8.66.82-2.05,3.27-3.35,7.8-5.17,2.25-.9,4-1.58,5.28-1.95,1.24-.36,2.46-.59,3.02.18.77,1.05-.24,2.82-4.95,8.59-2.11,2.59-4.49,5.29-7.67,7.74.04.1.07.19.11.29,1.27,3.28,2.03,5.27,3.29,6.01,1.2.7,3.1.41,6.99-1.08,4.05-1.54,6.15-2.24,7.93-1.99,1.83.26,3.06,1.47,5.29,3.66.36.36.74.72,1.15,1.12,2.91,2.81,4.34,4.53,4.6,6.66.27,2.15-.73,4.46-2.81,8.25-1.63,2.97-2.13,5.05-1.59,6.53.69,1.9,3.2,3.19,7.29,4.78.63.24,1.21.48,1.77.7,2.88,1.15,4.78,1.91,6.18,1.5,1.38-.4,2.55-2.05,4.07-5.68,1.56-3.76,2.83-6.15,4.64-7.26,1.73-1.06,3.74-.95,7.09-.78.35.02.71.04,1.08.05,3.83.18,5.9.34,7.47,1.63,1.53,1.26,2.34,3.43,3.72,7.73,1.08,3.38,2.17,5.16,3.54,5.76,1.86.82,4.77-.41,8.68-2.23.35-.16.68-.31,1-.46,3.23-1.5,5.18-2.4,5.8-3.64.57-1.13.23-2.79-1.35-6.6-1.72-4.15-2.12-6.46-1.44-8.52.68-2.1,2.49-3.79,5.22-6.35l.26-.24c2.39-2.24,3.97-3.63,5.63-3.87,1.61-.24,3.12.52,5.88,1.91.62.31,1.33.67,2.11,1.05,2.92,1.43,4.84,1.85,6.22,1.37,1.4-.49,2.45-1.93,3.72-4.33-6.97-.81-13.14-2.68-18.38-5.57-3.26-1.8-5.75-3.77-7.65-5.64-.13.22-.26.45-.4.67-3.35,5.5-7.79,9.69-13.2,12.46-4.89,2.51-10.5,3.75-16.22,3.59-5.91-.16-11.71-1.78-16.79-4.67-5.23-2.98-9.4-7.17-12.05-12.12-6.02-11.23-10.87-12.07-13.77-12.57-1.09-.19-2.02-.35-2.7-.99-.71-.68-.99-1.73-.94-3.5.04-1.24.12-2.33.19-3.3.18-2.54.3-4.22-.48-5.52-.8-1.33-2.65-2.45-6.38-3.87-4.42-1.68-6.42-3.04-7.13-4.83-.89-2.25.4-4.88,2.54-9.23l.34-.7c.47-.97.88-1.84,1.23-2.61,1.4-3.02,2.18-4.68,3.91-5.08,1.63-.38,3.77.49,8.07,2.34,4.05,1.74,6.08,2.59,7.41,2.59.01,0,.03,0,.04,0,1.12-.01,1.78-.66,3.52-2.51.44-.47.94-1,1.52-1.6l.36-.36c4.67-4.74,5.64-5.73,2.4-13.1-1.6-3.65-2.33-5.95-1.6-7.68.8-1.91,3.14-2.79,7.4-4.38l.58-.22c4.63-1.74,7.78-2.51,10.24-1.3,1.95.96,3.29,3.07,4.48,7.03l.15.48c.96,3.19,1.49,4.95,2.27,5.71.69.67,1.77.73,4.37.83.62.02,1.32.05,2.11.09,1.27.07,2.33.17,3.26.27,2.19.22,3.39.35,4.4-.36,1.03-.72,2.05-2.38,3.74-6.14,1.95-4.33,3.31-6.66,5.31-7.39,2.22-.81,4.94.49,9.44,2.65,4.32,2.07,7,3.49,7.73,5.69.66,2-.27,4.35-2.49,8.54-1.87,3.55-2.5,5.23-2.42,6.4.08,1.15.93,1.98,2.47,3.48.57.56,1.22,1.19,1.95,1.96.61.65,1.15,1.24,1.63,1.77,1.56,1.72,2.5,2.77,3.72,3.03,1.21.26,2.91-.16,6.27-1.53.53-.22,1.03-.42,1.5-.62,3.57-1.48,5.72-2.38,7.63-1.56,1.63.7,2.84,2.55,4.45,6.8l.16.42c1.92,5.04,3.18,8.37,1.9,10.94-.92,1.85-3.04,3.15-7.09,4.33-3.68,1.08-5.71,1.8-6.6,2.75-.8.86-.81,2.06-.83,4.44,0,.91-.01,1.93-.07,3.15-.03.62-.06,1.19-.09,1.73-.16,3.01-.23,4.52.5,5.53.73,1.01,2.39,1.75,6.08,3.12,4.12,1.54,6.1,2.92,6.84,4.75.87,2.15-.05,4.81-2.06,8.96-.21.43-.41.84-.6,1.24.82.07,1.66.12,2.52.17,23.25,1.12,53.04-8.55,88.53-28.73,18.2-10.35,34.71-16.9,49.09-19.48,11.66-2.09,21.98-1.58,30.67,1.5,8.31,2.95,13.57,7.76,16.53,11.27,3.21,3.82,4.44,6.92,4.49,7.05.14.36-.04.77-.4.91-.36.14-.77-.04-.91-.4h0s-1.22-3.06-4.3-6.72c-2.84-3.37-7.91-7.98-15.91-10.81-4.98-1.76-10.53-2.64-16.58-2.64-17.03,0-38.08,6.93-61.98,20.52-19.09,10.86-36.79,18.77-52.62,23.54-13.59,4.09-25.93,5.9-36.68,5.38-1.06-.05-2.1-.12-3.13-.22-1.55,3.02-2.82,4.83-4.76,5.5-1.78.62-3.97.19-7.3-1.44-.79-.39-1.5-.74-2.13-1.06-2.49-1.26-3.87-1.95-5.04-1.78-1.16.17-2.39,1.18-4.88,3.51l-.26.24c-5.35,5.01-6.46,6.05-3.44,13.3,1.57,3.77,2.2,6.01,1.31,7.77-.84,1.67-2.84,2.6-6.47,4.28-.32.15-.65.3-.99.46-3.29,1.53-5.83,2.62-7.91,2.62-.69,0-1.33-.12-1.93-.38-1.79-.79-3.08-2.77-4.31-6.62-1.34-4.19-2.09-6.1-3.27-7.08-1.22-1.01-3.12-1.14-6.64-1.31-.38-.02-.74-.04-1.09-.05-3.07-.16-4.92-.25-6.28.58-1.32.81-2.39,2.53-4.08,6.6-1.72,4.13-3.11,5.95-4.97,6.49-1.86.54-3.95-.29-7.1-1.54-.56-.22-1.13-.45-1.76-.69-4.58-1.78-7.23-3.2-8.11-5.61-.7-1.92-.18-4.29,1.68-7.69,1.88-3.44,2.86-5.64,2.64-7.4-.21-1.7-1.58-3.3-4.19-5.82-.42-.4-.79-.77-1.16-1.13-2.08-2.05-3.13-3.08-4.5-3.27-1.39-.2-3.27.4-7.23,1.91-3.78,1.44-6.34,2.07-8.2.98-1.67-.98-2.51-3.11-3.86-6.64-.18.13-.36.25-.55.38M1700.69,460.02c-.17,0-.33.02-.48.05-1.02.24-1.61,1.42-2.95,4.31-.36.77-.77,1.65-1.25,2.63l-.34.7c-1.96,4-3.15,6.42-2.49,8.09.54,1.36,2.37,2.53,6.32,4.04,4.1,1.56,6.08,2.81,7.08,4.46,1.01,1.68.87,3.63.68,6.34-.07.95-.15,2.03-.19,3.24-.06,1.7.26,2.2.5,2.43.37.35,1.04.46,1.97.62,3.15.54,8.42,1.45,14.77,13.29,5.06,9.43,15.91,15.73,27.64,16.05,11.76.32,22.03-5.28,28.18-15.38.2-.33.39-.66.58-.99-1.24-1.35-2.17-2.63-2.86-3.72-2.38-3.77-4.65-6.6-6.76-8.43-2.07-1.8-3.99-2.62-5.71-2.46-1.47.14-2.86,1.01-4.16,2.59,1.16,1.44,3.13,2.68,6.05,3.84,5.05,1.99,7.79,4.39,8.14,7.11.31,2.44-1.28,4.96-4.73,7.47-3.48,2.54-9.17,4.55-14.84,5.25-1.37.17-2.93.29-4.59.29-4.34,0-9.44-.8-14.12-3.57-3.28-1.94-5.82-4.01-7.54-6.16-1.31-1.64-2.11-3.26-2.38-4.85-1.45-.09-2.76-.47-3.9-1.14-1.69-.99-2.98-2.6-3.82-4.77-.86-2.21-1.25-5.03-1.17-8.36.2-8.02,3.31-16.05,8.53-22.03,6.33-7.25,15.43-11.23,26.3-11.54,5.77-.16,11.5,1.39,16.6,4.49,4.86,2.96,8.98,7.21,11.94,12.29,3.03,5.23,4.68,11.11,4.77,17.02.04,3.11-.35,6.22-1.16,9.23-.67,2.47-1.62,4.88-2.85,7.2,4.29,4.36,12.21,9.68,26.01,11.16.26-.53.54-1.1.83-1.71,1.83-3.79,2.69-6.15,2.02-7.82-.57-1.43-2.32-2.57-6.03-3.96-3.83-1.43-5.74-2.25-6.72-3.62-1.02-1.42-.93-3.2-.76-6.43.03-.54.06-1.1.08-1.72.05-1.19.06-2.21.07-3.1.02-2.58.03-4.14,1.21-5.4,1.12-1.2,3.23-1.96,7.23-3.14,3.59-1.05,5.51-2.16,6.23-3.61,1-2.02-.18-5.12-1.96-9.81l-.16-.42c-1.43-3.75-2.5-5.49-3.7-6.01-1.36-.59-3.31.22-6.53,1.57-.48.2-.98.41-1.51.62-3.7,1.51-5.56,1.93-7.1,1.6-1.66-.36-2.78-1.59-4.47-3.46-.47-.52-1-1.11-1.6-1.74-.71-.75-1.35-1.37-1.91-1.92-1.67-1.63-2.78-2.71-2.89-4.39-.12-1.68.82-3.81,2.58-7.16,1.98-3.76,2.89-5.94,2.39-7.45-.51-1.53-2.57-2.74-7-4.86-4.52-2.17-6.76-3.18-8.35-2.6-1.52.55-2.75,2.76-4.51,6.65-1.86,4.12-2.92,5.81-4.22,6.72-1.44,1-2.99.84-5.35.6-.92-.09-1.96-.2-3.19-.26-.78-.04-1.48-.07-2.09-.09-2.7-.1-4.19-.16-5.3-1.22-1.04-1.01-1.58-2.78-2.64-6.31l-.15-.48c-1.05-3.5-2.21-5.41-3.76-6.17-1.99-.98-4.96-.21-9.12,1.35l-.58.22c-3.89,1.46-6.03,2.26-6.59,3.61-.53,1.25.19,3.36,1.6,6.57,1.84,4.18,2.33,6.49,1.82,8.52-.52,2.08-2.11,3.69-4.51,6.13l-.36.36c-.57.58-1.07,1.11-1.5,1.57-1.72,1.83-2.75,2.93-4.53,2.95-.02,0-.04,0-.06,0-1.6,0-3.62-.84-7.96-2.7-3.34-1.44-5.45-2.31-6.73-2.31ZM1728.65,507.27c.67,3.19,3.92,6.68,9.2,9.8,10.46,6.18,25.57,2.8,32.01-1.9,2.07-1.51,4.47-3.79,4.16-6.16-.27-2.15-2.78-4.21-7.26-5.98-2.97-1.17-5.06-2.47-6.39-3.98-.83,1.26-1.62,2.84-2.37,4.72-2.7,6.84-4.09,9.04-5.73,9.06,0,0-.01,0-.02,0-1.74,0-2.81-2.54-4.75-7.15-.31-.74-.64-1.51-.99-2.33l-.11-.26c-.75-1.75-1.36-3.16-1.89-4.24-1.28,1.66-3.26,3.26-6.05,4.91-2.99,1.77-5.79,2.89-8.32,3.32-.51.09-1.01.15-1.49.17ZM1705.65,500.75c-.23,0-.74.06-1.82.41-1.28.4-3.04,1.1-4.75,1.79-4.07,1.64-6.39,2.82-7.01,4.39-.58,1.46.09,3.51,1.64,7.49,3.33-2.62,5.58-5.39,7.11-7.26,1.82-2.24,3.03-3.8,3.8-4.93.75-1.11.98-1.64,1.04-1.88h-.01ZM1745.39,497.51c.65,1.2,1.36,2.85,2.3,5.04l.11.26c.36.83.68,1.6.99,2.34.87,2.07,1.56,3.71,2.2,4.84.73,1.3,1.12,1.44,1.26,1.44h0c.12,0,.6-.13,1.52-1.69.77-1.31,1.7-3.37,2.92-6.48.86-2.18,1.8-3.99,2.8-5.41-.15-.26-.28-.52-.4-.79-1.46-3.41.01-7.59,2.09-12.7,1.95-4.8,1.65-10.15-.77-13.96-1.7-2.68-4.28-4.25-7.27-4.41-3.56-.19-6.97,1.51-9.13,4.56-2.41,3.41-2.84,7.91-1.13,12.04.24.57.47,1.13.7,1.67,1.73,4.11,3.09,7.36,2.7,10.45-.12.97-.42,1.89-.9,2.79ZM1765.81,493.87c1.96,0,4.04.95,6.21,2.83,2.21,1.91,4.57,4.85,7.02,8.74.54.86,1.32,1.95,2.38,3.15,5.12-10.06,4.82-21.71-.95-31.65-5.79-9.98-15.9-16.1-26.51-16.1-.26,0-.51,0-.77.01-22.46.62-33.1,17.12-33.47,32.19-.15,6.04,1.34,10.15,4.3,11.88.9.53,1.94.84,3.09.93,0-.05,0-.11,0-.16.12-2.16,1.35-5.22,6.56-7.56,1.2-.54,2.24-1.03,3.15-1.47,3.05-1.45,4.73-2.25,6.21-1.69.54.2,1,.57,1.45,1.13,1.22-3.14-.19-6.51-2.2-11.29-.23-.54-.46-1.1-.7-1.68-.99-2.38-1.34-4.82-1.07-7.23.26-2.23,1.07-4.36,2.34-6.16,2.44-3.44,6.31-5.37,10.35-5.15,3.45.19,6.43,1.98,8.38,5.06,2.66,4.19,3,10.04.89,15.24-1.95,4.8-3.34,8.71-2.1,11.62.02.04.04.08.06.13.03-.04.07-.08.1-.12,1.43-1.58,3.01-2.47,4.7-2.62.18-.02.37-.03.56-.03ZM1742.04,496.21c-.96,0-2.42.69-4.6,1.73-.92.44-1.96.93-3.18,1.48-3.61,1.62-5.59,3.82-5.73,6.35,0,.03,0,.06,0,.1,2.65-.15,5.78-1.26,9.22-3.3,3.02-1.8,4.93-3.42,6.01-5.07-.42-.65-.81-1.06-1.21-1.21-.15-.06-.32-.08-.51-.08Z"/>
  </g>
  <path class="st0" d="M1397.09,535.83c-12.14,0-25.6-2.83-43.63-9.52l.35-.94c43.71,16.23,59.3,9.99,96.97-5.08,12.75-5.1,28.63-11.45,48.89-18.1,47.52-15.61,61.11-6.76,78.32,4.44,11.29,7.35,24.09,15.68,49.08,19.16,17.85,2.49,49.58,5.29,61.6-3.92,3.06-2.34,3.35-4.47,3.36-4.49l.03-.22.19-.13c.18-.12.36-.25.54-.38l.58.82c-.13.09-.25.18-.38.27-.16.68-.83,2.7-3.6,4.85-6.41,4.99-22.44,9.77-62.44,4.19-25.21-3.51-38.1-11.91-49.48-19.31-16.99-11.05-30.41-19.78-77.47-4.33-20.23,6.64-36.09,12.99-48.83,18.08-21.75,8.7-36.52,14.61-54.06,14.61Z"/>
  <path class="st0" d="M844.93,534.58c-27.5,0-35.42-22.78-43.09-44.82-5.81-16.7-11.29-32.47-24.8-37.92-10.71-4.32-25.5-1.56-45.21,8.43l-.45-.89c19.99-10.13,35.04-12.9,46.04-8.47,13.93,5.62,19.49,21.6,25.37,38.52,7.55,21.7,15.35,44.15,42.14,44.15h.14v1h-.15Z"/>
</svg>