<svg width="159" height="60" viewBox="0 0 159 60" fill="none" xmlns="http://www.w3.org/2000/svg">
    <g clip-path="url(#clip0_1699_116)">
    <path d="M75.0279 13.0909H78.8184V21.8132H80.2938V11.4141H73.542V21.8132H75.0279V13.0909Z" fill="#F5802D"></path>
    <path d="M83.8651 17.7454L85.1351 13.8168L86.4055 17.7454H83.8651ZM83.3573 19.3232H86.9128L87.7173 21.8132H89.2905L85.8214 11.4141H84.4592L81.001 21.8132H82.5528L83.3573 19.3232Z" fill="#F5802D"></path>
    <path d="M92.341 19.4563C92.0819 20.03 91.7682 20.3209 91.4087 20.3209C91.2423 20.3209 91.0437 20.2663 90.8187 20.1586L90.5637 20.0363L90.1905 21.5986L90.3296 21.6813C90.6982 21.9009 91.0687 22.0123 91.4296 22.0123C91.8982 22.0123 92.3332 21.8291 92.7237 21.4682C93.0946 21.1245 93.4191 20.6045 93.6878 19.9223L97.0555 11.4141H95.536L93.2605 17.3186L91.0437 11.4141H89.4414L92.47 19.1809L92.341 19.4563Z" fill="#F5802D"></path>
    <path d="M97.3486 13.0916L98.2814 14.362L98.4636 14.1043C98.9809 13.3738 99.6209 13.0184 100.42 13.0184C100.827 13.0184 101.19 13.1352 101.531 13.3752C101.875 13.6184 102.165 13.9647 102.391 14.4052C102.59 14.7911 102.729 15.2334 102.806 15.7234H99.3059V17.3297H102.826C102.764 17.8507 102.632 18.3234 102.431 18.7379C102.204 19.2061 101.91 19.5734 101.559 19.8297C101.213 20.0829 100.84 20.2057 100.42 20.2057C99.6141 20.2057 98.9745 19.8507 98.4645 19.1207L98.2827 18.8602L97.3486 20.132L97.4282 20.2566C97.7741 20.7988 98.2132 21.2166 98.7318 21.4988C99.2509 21.7816 99.8359 21.9252 100.472 21.9252C101.218 21.9252 101.899 21.6861 102.495 21.2143C103.08 20.752 103.545 20.1093 103.879 19.3052C104.208 18.5093 104.375 17.6034 104.375 16.612C104.375 15.6207 104.208 14.7147 103.879 13.9188C103.545 13.1147 103.08 12.472 102.495 12.0093C101.899 11.5379 101.218 11.2988 100.472 11.2988C99.8441 11.2988 99.2605 11.442 98.7377 11.7247C98.215 12.0075 97.7741 12.4256 97.4282 12.9675L97.3486 13.0916Z" fill="#F5802D"></path>
    <path d="M107.092 13.0909H108.642C109.242 13.0909 109.682 13.2554 109.988 13.5932C110.297 13.9341 110.454 14.4432 110.454 15.1054C110.454 15.7677 110.297 16.2768 109.988 16.6177C109.682 16.9554 109.242 17.1195 108.642 17.1195H107.092V13.0909ZM111.081 12.4154C110.495 11.7509 109.685 11.4141 108.673 11.4141H105.596V21.8132H107.092V18.7968H108.673C109.685 18.7968 110.495 18.4595 111.081 17.795C111.658 17.1404 111.95 16.2354 111.95 15.1054C111.95 13.9754 111.657 13.0704 111.081 12.4154Z" fill="#F5802D"></path>
    <path d="M83.8401 28.9041V35.9382H85.3055V25.5391H83.9942L80.0555 32.5841V25.5391H78.5801V35.9382H79.891L83.8401 28.9041Z" fill="#F5802D"></path>
    <path d="M92.3073 35.9382H93.7932V25.5391H92.3073V29.8218H88.5841V25.5391H87.0986V35.9382H88.5841V31.4986H92.3073V35.9382Z" fill="#F5802D"></path>
    <path d="M98.5339 35.9382V27.2159H101.024V25.5391H94.5889V27.2159H97.0689V35.9382H98.5339Z" fill="#F5802D"></path>
    <path d="M107.395 27.2159V25.5391H101.821V35.9382H107.54V34.2609H103.307V31.4845H106.949V29.8359H103.307V27.2159H107.395Z" fill="#F5802D"></path>
    <path d="M113.525 29.2304C113.525 29.8922 113.369 30.4013 113.062 30.7427C112.758 31.0804 112.321 31.2445 111.726 31.2445H110.186V27.2159H111.726C112.321 27.2159 112.758 27.38 113.062 27.7182C113.369 28.0591 113.525 28.5677 113.525 29.2304ZM115.011 29.2304C115.011 28.1004 114.72 27.1954 114.147 26.5404C113.566 25.8759 112.762 25.5391 111.757 25.5391H108.7V35.9382H110.186V32.9218H111.757C112.762 32.9218 113.566 32.585 114.147 31.9204C114.72 31.2654 115.011 30.3604 115.011 29.2304Z" fill="#F5802D"></path>
    <path d="M121.295 29.8218H117.572V25.5391H116.087V35.9382H117.572V31.4986H121.295V35.9382H122.781V25.5391H121.295V29.8218Z" fill="#F5802D"></path>
    <path d="M128.81 26.1347C128.218 25.6634 127.542 25.4238 126.801 25.4238C126.177 25.4238 125.598 25.5675 125.079 25.8497C124.56 26.1329 124.122 26.5511 123.778 27.0925L123.699 27.217L124.625 28.4875L124.806 28.2297C125.321 27.4988 125.956 27.1438 126.749 27.1438C127.153 27.1438 127.514 27.2602 127.852 27.5002C128.195 27.7434 128.482 28.0902 128.707 28.5306C128.904 28.9161 129.041 29.3588 129.119 29.8493H125.643V31.4552H129.138C129.077 31.9761 128.946 32.4488 128.746 32.8634C128.521 33.3311 128.229 33.6984 127.881 33.9552C127.536 34.2079 127.166 34.3311 126.749 34.3311C125.949 34.3311 125.314 33.9761 124.807 33.2461L124.626 32.9857L123.699 34.2575L123.778 34.382C124.122 34.9238 124.557 35.342 125.073 35.6243C125.588 35.9075 126.17 36.0507 126.801 36.0507C127.542 36.0507 128.218 35.8116 128.81 35.3397C129.391 34.877 129.853 34.2347 130.184 33.4302C130.511 32.6347 130.677 31.7288 130.677 30.737C130.677 29.7461 130.511 28.8402 130.184 28.0443C129.852 27.2397 129.39 26.597 128.81 26.1347Z" fill="#F5802D"></path>
    <path d="M139.971 34.2609H137.4V25.5391H135.936V34.2609H133.364V25.5391H131.889V35.9382H141.436V25.5391H139.971V34.2609Z" fill="#F5802D"></path>
    <path d="M148.438 29.8218H144.715V25.5391H143.229V35.9382H144.715V31.4986H148.438V35.9382H149.924V25.5391H148.438V29.8218Z" fill="#F5802D"></path>
    <path d="M152.542 25.5391L152.422 29.9504C152.395 31.0082 152.335 31.8713 152.247 32.5159C152.161 33.1413 152.034 33.6118 151.867 33.9141C151.682 34.2504 151.483 34.2895 151.349 34.2895C151.264 34.2895 151.177 34.2745 151.091 34.245L150.81 34.1486L150.711 35.8713L150.87 35.9259C151.115 36.0095 151.36 36.0518 151.598 36.0518C152.148 36.0518 152.589 35.7995 152.908 35.3018C153.204 34.8404 153.413 34.1823 153.547 33.2886C153.676 32.4291 153.759 31.295 153.793 29.9186L153.86 27.2159H156.634V35.9382H158.099V25.5391H152.542Z" fill="#F5802D"></path>
    <path d="M81.8712 48.341H79.3417V39.6191H77.9003V48.341H75.3703V39.6191H73.9189V50.0182H83.313V39.6191H81.8712V48.341Z" fill="#757A7B"></path>
    <path d="M86.528 46.6641V39.6191H85.0762V50.0182H86.3662L90.2521 42.9841V50.0182H91.6934V39.6191H90.4034L86.528 46.6641Z" fill="#757A7B"></path>
    <path d="M98.5826 43.9023H94.9198V39.6191H93.458V50.0182H94.9198V45.5791H98.5826V50.0182H100.045V39.6191H98.5826V43.9023Z" fill="#757A7B"></path>
    <path d="M103.26 44.6546H104.939C106.042 44.6546 106.556 45.2355 106.556 46.4832C106.556 47.1387 106.414 47.6391 106.133 47.971H106.133C105.858 48.2969 105.467 48.4551 104.939 48.4551H103.26V44.6546ZM107.286 43.9655C106.792 43.3851 106.077 43.091 105.164 43.091H103.26V39.6191H101.809V50.0182H104.98C105.948 50.0182 106.707 49.7051 107.235 49.0873C107.755 48.4801 108.018 47.5946 108.018 46.4551C108.018 45.3728 107.771 44.5351 107.286 43.9655Z" fill="#757A7B"></path>
    <path d="M110.161 39.6191H108.71V50.0182H110.161V39.6191Z" fill="#757A7B"></path>
    <path d="M16.7049 60.0005L6.26172 40.7928L17.1226 22.4219H25.4717L14.6145 40.7928L25.0526 60.0005H16.7049Z" fill="#767B7C"></path>
    <path d="M67.227 30.7711L63.4689 23.6738L52.6129 42.0457H30.8975L35.0743 49.1434H56.3707L67.227 30.7711Z" fill="#F57F2B"></path>
    <path d="M34.2397 9.06084H12.5283L17.122 1.54492H38.4156L42.5929 9.06084L40.0847 14.9045H46.3502L49.6884 19.9186L45.0961 27.0159L34.2397 9.06084Z" fill="#AEB1B2"></path>
    <path d="M0 30.5224L11.275 11.9824H32.1523L36.7441 19.0815H15.4509L4.5941 37.6211L0 30.5224Z" fill="#AEB1B2"></path>
    <path d="M28.8099 60.0006L18.624 41.3787L22.549 34.1133L32.8204 52.4856H54.7009L50.5254 60.0006H28.8099Z" fill="#767B7C"></path>
    <path d="M43.5079 12.8169H48.8529L53.0283 19.9165L42.1729 38.7047H50.9415L61.3815 20.3342L49.9397 0.291016L43.5079 12.8169Z" fill="#F57F2B"></path>
    </g>
    <defs>
    <clipPath id="clip0_1699_116">
    <rect width="158.182" height="60" fill="white"></rect>
    </clipPath>
    </defs>
</svg>