<svg width="80" height="80" viewBox="0 0 80 80" fill="none" xmlns="http://www.w3.org/2000/svg">
<rect width="80" height="80" rx="18" fill="#F4F3F6"/>
<g clip-path="url(#clip0_208_12)">
<path fill-rule="evenodd" clip-rule="evenodd" d="M19.252 58.8891H60.7468C61.4421 58.8891 62.0042 59.4455 62.0042 60.1341V63.8693C62.0042 64.213 61.7238 64.4918 61.3756 64.4918H18.6234C18.2763 64.4918 17.9946 64.213 17.9946 63.8693V60.1341C17.9946 59.4455 18.5579 58.8891 19.2521 58.8891H19.252ZM49.4301 35.8554H55.7172C56.0654 35.8554 56.346 36.133 56.346 36.478V37.723C56.346 38.0667 56.0654 38.3455 55.7172 38.3455V53.2863C56.0654 53.2863 56.346 53.5639 56.346 53.9089V55.1539C56.346 55.4976 56.0654 55.7764 55.7172 55.7764H49.4301C49.083 55.7764 48.8015 55.4976 48.8015 55.1539V53.9089C48.8015 53.6101 49.0177 53.3735 49.2993 53.3124V38.3183C49.0177 38.2572 48.8015 38.0207 48.8015 37.7232V36.4781C48.8015 36.1331 49.083 35.8555 49.4301 35.8555V35.8554ZM36.8559 35.8554H43.143C43.4913 35.8554 43.7717 36.133 43.7717 36.478V37.723C43.7717 38.0429 43.524 38.2982 43.2095 38.3318V53.2987C43.524 53.3323 43.7717 53.5876 43.7717 53.9089V55.1539C43.7717 55.4974 43.4913 55.7764 43.143 55.7764H36.8559C36.5088 55.7764 36.2271 55.4974 36.2271 55.1539V53.9089C36.2271 53.5876 36.4761 53.3323 36.7904 53.2987V38.3318C36.4761 38.2982 36.2271 38.0429 36.2271 37.723V36.478C36.2271 36.133 36.5088 35.8554 36.8559 35.8554ZM24.2817 35.8554H30.5688C30.9171 35.8554 31.1976 36.133 31.1976 36.478V37.723C31.1976 38.0667 30.9171 38.3455 30.5688 38.3455V53.2863C30.9171 53.2863 31.1976 53.5639 31.1976 53.9089V55.1539C31.1976 55.4976 30.9171 55.7764 30.5688 55.7764H24.2817C23.9347 55.7764 23.6531 55.4976 23.6531 55.1539V53.9089C23.6531 53.5639 23.9347 53.2863 24.2817 53.2863V38.3455C23.9347 38.3455 23.6531 38.0667 23.6531 37.723V36.478C23.6531 36.133 23.9347 35.8554 24.2817 35.8554ZM39.3758 15.6642C39.7631 15.4451 40.2372 15.4451 40.6244 15.6642L61.3718 27.404C61.7628 27.6255 62.0043 28.0377 62.0043 28.4846V32.1202C62.0043 32.4638 61.7239 32.7428 61.3756 32.7428H18.6234C18.2764 32.7428 17.9946 32.4638 17.9946 32.1202V28.4846C17.9946 28.0377 18.2373 27.6255 18.6284 27.404L39.3759 15.6642H39.3758ZM39.3933 22.555C39.5312 22.3564 39.7577 22.2379 39.9995 22.2379C40.2413 22.2379 40.4677 22.3564 40.6057 22.555C41.4146 23.7201 42.8494 25.7866 43.7483 27.0811C43.9049 27.3067 43.9233 27.6007 43.796 27.8441C43.6687 28.0874 43.4167 28.24 43.1421 28.24C41.4319 28.24 38.5671 28.24 36.8569 28.24C36.5822 28.24 36.3303 28.0874 36.2029 27.8441C36.0756 27.6007 36.094 27.3067 36.2507 27.0811C37.1495 25.7866 38.5843 23.7201 39.3933 22.555Z" fill="#DFDDE5"/>
</g>
<defs>
<clipPath id="clip0_208_12">
<rect width="49" height="49" fill="white" transform="translate(15.5 15.5)"/>
</clipPath>
</defs>
</svg>
