<svg width="400" height="200" viewBox="0 0 400 200" fill="none" xmlns="http://www.w3.org/2000/svg">
<path fill-rule="evenodd" clip-rule="evenodd" d="M355.346 53.1445V102.83H337.834V67.981H320.972V102.83H303.459V53.1445H355.346Z" fill="#2A273F"/>
<path fill-rule="evenodd" clip-rule="evenodd" d="M294.969 80.7225C294.969 95.1755 282.931 104.717 266.722 104.717C249.962 104.717 237.737 94.6198 237.737 71.7364C237.737 52.0975 250.275 35.9139 268.828 35.6053C276.954 35.6053 294.419 35.2202 294.419 35.2202L286.554 49.664C286.554 49.664 272.644 49.6865 270.799 49.6865C262.792 49.6865 255.518 55.7098 254.497 63.9562C258.757 59.9722 264.407 57.6551 271.261 57.6551C286.08 57.6551 294.969 66.7351 294.969 80.7225ZM277.004 80.7225C277.004 74.2374 272.833 70.4412 266.816 70.4412C260.612 70.4412 256.445 74.3315 256.445 80.8162C256.445 86.9292 260.612 91.3793 266.816 91.3793C273.299 91.3793 277.004 86.5615 277.004 80.7225Z" fill="#2A273F"/>
<path fill-rule="evenodd" clip-rule="evenodd" d="M223.622 87.7226C223.622 87.7226 219.384 90.118 213.063 90.5778C205.787 90.7838 199.318 86.2876 199.318 78.2744C199.318 70.4548 205.039 65.9776 212.879 65.9776C217.692 65.9776 224.061 69.2551 224.061 69.2551C224.061 69.2551 228.716 60.8584 231.131 56.6673C226.716 53.373 220.822 51.5723 213.985 51.5723C196.709 51.5723 183.333 62.635 183.333 78.1777C183.333 93.914 195.906 104.724 213.985 104.395C219.044 104.205 226.014 102.47 230.259 99.7927L223.622 87.7226Z" fill="#2A273F"/>
<path fill-rule="evenodd" clip-rule="evenodd" d="M0 43.3962L24.214 86.5671V112.888L0.0395248 155.975L0 43.3962H0Z" fill="#605CA4"/>
<path fill-rule="evenodd" clip-rule="evenodd" d="M93.0818 70.7925L115.792 56.9532L162.264 56.9182L93.0818 99.0565V70.7925Z" fill="#DA2157"/>
<path fill-rule="evenodd" clip-rule="evenodd" d="M92.9562 43.1645L93.0815 100.314L68.8677 85.4441V0L92.9562 43.1645Z" fill="#FAB828"/>
<path fill-rule="evenodd" clip-rule="evenodd" d="M162.264 56.8831L115.833 56.9183L93.0157 43.0996L68.8677 0L162.264 56.8831Z" fill="#EE7332"/>
<path fill-rule="evenodd" clip-rule="evenodd" d="M93.0817 156.167V128.428L68.8677 113.836L68.8717 199.371L93.0817 156.167Z" fill="#66B438"/>
<path fill-rule="evenodd" clip-rule="evenodd" d="M115.798 142.453L24.2624 86.5579L0 43.3962L162.264 142.398L115.798 142.453Z" fill="#208ACA"/>
<path fill-rule="evenodd" clip-rule="evenodd" d="M68.8677 199.372L93.1607 156.233L115.819 142.508L162.264 142.453L68.8677 199.372Z" fill="#1B823E"/>
<path fill-rule="evenodd" clip-rule="evenodd" d="M0 155.975L69.1825 113.863L45.918 99.6853L24.2971 112.852L0 155.975H0Z" fill="#9A4F98"/>
<path fill-rule="evenodd" clip-rule="evenodd" d="M200.628 136.572C200.084 137.265 199.381 137.79 198.52 138.145C197.657 138.501 196.74 138.679 195.765 138.679C194.754 138.679 193.836 138.525 193.012 138.216C192.187 137.906 191.475 137.462 190.876 136.881C190.276 136.3 189.812 135.603 189.485 134.787C189.157 133.972 188.993 133.069 188.993 132.076C188.993 131.158 189.152 130.296 189.471 129.49C189.79 128.685 190.234 127.987 190.806 127.397C191.377 126.806 192.051 126.339 192.829 125.992C193.606 125.645 194.463 125.472 195.4 125.472C196.412 125.472 197.344 125.598 198.197 125.851C199.049 126.104 199.775 126.531 200.375 127.13L199.335 128.9C198.791 128.413 198.215 128.071 197.606 127.874C196.998 127.678 196.365 127.579 195.709 127.579C195.147 127.579 194.604 127.688 194.079 127.903C193.555 128.118 193.091 128.422 192.688 128.816C192.285 129.209 191.967 129.683 191.733 130.235C191.498 130.788 191.382 131.401 191.382 132.076C191.382 132.769 191.503 133.392 191.747 133.944C191.99 134.497 192.318 134.97 192.731 135.364C193.143 135.757 193.625 136.057 194.178 136.263C194.73 136.469 195.316 136.572 195.934 136.572C196.702 136.572 197.391 136.422 198 136.122C198.609 135.823 199.128 135.43 199.559 134.942L200.628 136.572Z" fill="#2A273F"/>
<path fill-rule="evenodd" clip-rule="evenodd" d="M203.458 138.365V125.786H205.674V135.15L212.878 125.786H215.094V138.365H212.878V129.001L205.674 138.365H203.458Z" fill="#2A273F"/>
<path fill-rule="evenodd" clip-rule="evenodd" d="M230.189 136.572C229.645 137.265 228.943 137.79 228.081 138.145C227.219 138.501 226.3 138.679 225.326 138.679C224.314 138.679 223.396 138.525 222.572 138.216C221.746 137.906 221.034 137.462 220.435 136.881C219.835 136.3 219.372 135.603 219.044 134.787C218.717 133.972 218.553 133.069 218.553 132.076C218.553 131.158 218.711 130.296 219.031 129.49C219.348 128.685 219.794 127.987 220.366 127.397C220.936 126.806 221.612 126.339 222.389 125.992C223.166 125.645 224.024 125.472 224.961 125.472C225.972 125.472 226.904 125.598 227.757 125.851C228.609 126.104 229.335 126.531 229.936 127.13L228.895 128.9C228.351 128.413 227.775 128.071 227.167 127.874C226.558 127.678 225.925 127.579 225.27 127.579C224.708 127.579 224.164 127.688 223.639 127.903C223.115 128.118 222.651 128.422 222.249 128.816C221.845 129.209 221.527 129.683 221.292 130.235C221.058 130.788 220.942 131.401 220.942 132.076C220.942 132.769 221.064 133.392 221.307 133.944C221.551 134.497 221.878 134.97 222.29 135.364C222.703 135.757 223.186 136.057 223.738 136.263C224.291 136.469 224.876 136.572 225.495 136.572C226.262 136.572 226.951 136.422 227.56 136.122C228.169 135.823 228.688 135.43 229.12 134.942L230.189 136.572Z" fill="#2A273F"/>
<path fill-rule="evenodd" clip-rule="evenodd" d="M231.131 125.786H242.767V128.023H238.083V138.365H235.813V128.023H231.131V125.786Z" fill="#2A273F"/>
<path fill-rule="evenodd" clip-rule="evenodd" d="M255.405 137.021C254.776 137.583 254.029 138.001 253.165 138.272C252.299 138.543 251.44 138.679 250.583 138.679C249.538 138.679 248.592 138.525 247.745 138.216C246.899 137.906 246.176 137.462 245.578 136.881C244.979 136.3 244.517 135.603 244.194 134.787C243.871 133.972 243.71 133.069 243.71 132.076C243.71 131.158 243.856 130.296 244.151 129.49C244.447 128.685 244.874 127.987 245.435 127.397C245.996 126.806 246.685 126.339 247.503 125.992C248.32 125.645 249.262 125.472 250.327 125.472C251.144 125.472 251.92 125.613 252.651 125.893C253.383 126.174 254.016 126.568 254.548 127.073C255.08 127.579 255.504 128.188 255.817 128.9C256.131 129.612 256.289 130.399 256.289 131.261C256.289 131.842 256.241 132.347 256.145 132.778H246.276C246.372 133.977 246.829 134.909 247.645 135.574C248.463 136.239 249.5 136.572 250.755 136.572C251.592 136.572 252.352 136.445 253.037 136.192C253.721 135.94 254.272 135.626 254.69 135.251L255.405 137.021ZM250.213 127.579C249.034 127.579 248.092 127.898 247.389 128.535C246.685 129.172 246.266 129.978 246.134 130.952H253.921C253.863 129.903 253.512 129.078 252.865 128.478C252.218 127.879 251.334 127.579 250.213 127.579Z" fill="#2A273F"/>
<path fill-rule="evenodd" clip-rule="evenodd" d="M259.12 125.786H261.171L266.036 132.02L270.646 125.786H272.642V138.365H270.393V129.197L266.008 135.039H265.923L261.368 129.197V138.365H259.12V125.786Z" fill="#2A273F"/>
<path fill-rule="evenodd" clip-rule="evenodd" d="M276.773 126.604C277.336 126.254 277.982 125.978 278.712 125.775C279.443 125.573 280.202 125.472 280.988 125.472C282.786 125.472 284.046 125.913 284.767 126.797C285.489 127.681 285.85 128.932 285.85 130.552V138.171H283.736V136.57C283.359 137.048 282.852 137.467 282.213 137.826C281.574 138.185 280.729 138.365 279.677 138.365C278.512 138.365 277.573 138.028 276.858 137.357C276.143 136.685 275.787 135.742 275.787 134.527C275.787 133.901 275.909 133.34 276.153 132.843C276.398 132.346 276.73 131.932 277.154 131.6C277.577 131.269 278.085 131.016 278.676 130.841C279.268 130.667 279.903 130.58 280.579 130.58C281.067 130.58 281.607 130.635 282.199 130.745C282.792 130.855 283.303 131.067 283.736 131.38C283.736 130.81 283.702 130.28 283.637 129.792C283.571 129.305 283.439 128.891 283.243 128.55C283.045 128.209 282.753 127.942 282.369 127.75C281.983 127.556 281.481 127.46 280.86 127.46C280.071 127.46 279.418 127.547 278.902 127.721C278.384 127.897 277.873 128.113 277.365 128.37L276.773 126.604ZM280.466 136.377C281.293 136.377 281.964 136.202 282.482 135.852C282.998 135.503 283.415 135.144 283.736 134.775V133.202C282.946 132.65 281.997 132.373 280.889 132.373C280.551 132.373 280.217 132.415 279.888 132.498C279.559 132.581 279.268 132.705 279.014 132.87C278.761 133.036 278.558 133.248 278.408 133.506C278.257 133.763 278.182 134.067 278.182 134.417C278.182 135.006 278.38 135.479 278.775 135.838C279.169 136.197 279.733 136.377 280.466 136.377Z" fill="#2A273F"/>
<path fill-rule="evenodd" clip-rule="evenodd" d="M306.881 120.3C306.486 120.818 306.059 121.178 305.599 121.382C305.139 121.585 304.642 121.742 304.107 121.853C303.572 121.964 302.998 122.071 302.388 122.174C301.778 122.277 301.126 122.487 300.432 122.805C299.831 123.067 299.338 123.423 298.954 123.872C298.568 124.321 298.254 124.821 298.009 125.373C297.766 125.925 297.583 126.506 297.46 127.114C297.338 127.722 297.259 128.316 297.221 128.896H297.278C297.484 128.449 297.761 128.048 298.108 127.694C298.456 127.34 298.849 127.032 299.292 126.772C299.732 126.511 300.207 126.31 300.713 126.171C301.22 126.03 301.746 125.961 302.291 125.961C303.192 125.961 304.008 126.11 304.74 126.408C305.472 126.706 306.091 127.131 306.599 127.68C307.106 128.23 307.496 128.887 307.767 129.65C308.04 130.415 308.176 131.272 308.176 132.222C308.176 133.098 308.016 133.927 307.697 134.71C307.377 135.493 306.933 136.178 306.36 136.765C305.787 137.352 305.101 137.818 304.304 138.162C303.505 138.507 302.629 138.679 301.67 138.679C300.638 138.679 299.709 138.498 298.883 138.134C298.057 137.771 297.353 137.253 296.77 136.583C296.189 135.912 295.743 135.092 295.433 134.123C295.122 133.154 294.968 132.064 294.968 130.853C294.968 129.921 295.025 128.947 295.138 127.931C295.25 126.916 295.476 125.942 295.814 125.01C296.152 124.079 296.624 123.236 297.235 122.48C297.845 121.726 298.657 121.134 299.671 120.705C300.404 120.389 301.07 120.179 301.67 120.077C302.272 119.975 302.811 119.881 303.29 119.797C303.769 119.713 304.206 119.592 304.599 119.433C304.994 119.275 305.35 118.982 305.67 118.553L306.881 120.3ZM297.361 131.272C297.361 132.092 297.466 132.828 297.671 133.48C297.879 134.133 298.169 134.687 298.545 135.143C298.92 135.6 299.371 135.954 299.896 136.205C300.422 136.457 300.995 136.583 301.614 136.583C302.234 136.583 302.797 136.471 303.304 136.247C303.811 136.024 304.247 135.721 304.613 135.339C304.98 134.957 305.265 134.51 305.472 133.997C305.678 133.484 305.783 132.93 305.783 132.334C305.783 131.104 305.435 130.084 304.74 129.273C304.046 128.462 303.04 128.057 301.726 128.057C301.126 128.057 300.582 128.151 300.094 128.337C299.606 128.523 299.173 128.766 298.798 129.064C298.423 129.362 298.112 129.702 297.869 130.084C297.624 130.466 297.456 130.862 297.361 131.272Z" fill="#2A273F"/>
<path fill-rule="evenodd" clip-rule="evenodd" d="M311.321 125.786H313.544V129.559H315.6C316.563 129.559 317.359 129.681 317.99 129.923C318.619 130.166 319.124 130.487 319.503 130.888C319.884 131.288 320.153 131.75 320.31 132.271C320.467 132.793 320.547 133.333 320.547 133.892C320.547 134.452 320.457 134.997 320.282 135.528C320.106 136.059 319.819 136.534 319.42 136.954C319.022 137.373 318.49 137.713 317.823 137.974C317.156 138.235 316.332 138.365 315.35 138.365H311.321V125.786ZM313.544 131.656V136.268H315.156C316.267 136.268 317.049 136.073 317.503 135.682C317.958 135.291 318.184 134.722 318.184 133.976C318.184 133.213 317.952 132.635 317.49 132.243C317.026 131.852 316.257 131.656 315.183 131.656H313.544ZM322.935 125.786H325.158V138.365H322.935V125.786Z" fill="#2A273F"/>
<path fill-rule="evenodd" clip-rule="evenodd" d="M339.937 136.572C339.393 137.265 338.691 137.79 337.829 138.145C336.967 138.501 336.048 138.679 335.074 138.679C334.062 138.679 333.145 138.525 332.321 138.216C331.495 137.906 330.783 137.462 330.183 136.881C329.584 136.3 329.12 135.603 328.793 134.787C328.465 133.972 328.302 133.069 328.302 132.076C328.302 131.158 328.46 130.296 328.779 129.49C329.097 128.685 329.542 127.987 330.114 127.397C330.684 126.806 331.36 126.339 332.137 125.992C332.915 125.645 333.772 125.472 334.709 125.472C335.721 125.472 336.652 125.598 337.506 125.851C338.358 126.104 339.084 126.531 339.684 127.13L338.644 128.9C338.099 128.413 337.523 128.071 336.916 127.874C336.307 127.678 335.674 127.579 335.019 127.579C334.457 127.579 333.912 127.688 333.388 127.903C332.864 128.118 332.4 128.422 331.997 128.816C331.593 129.209 331.276 129.683 331.041 130.235C330.806 130.788 330.69 131.401 330.69 132.076C330.69 132.769 330.812 133.392 331.055 133.944C331.299 134.497 331.627 134.97 332.039 135.364C332.451 135.757 332.934 136.057 333.487 136.263C334.039 136.469 334.625 136.572 335.243 136.572C336.011 136.572 336.699 136.422 337.308 136.122C337.918 135.823 338.437 135.43 338.869 134.942L339.937 136.572Z" fill="#2A273F"/>
<path fill-rule="evenodd" clip-rule="evenodd" d="M341.195 125.786H352.516V128.023H347.959V138.365H345.751V128.023H341.195V125.786Z" fill="#2A273F"/>
<path fill-rule="evenodd" clip-rule="evenodd" d="M355.031 125.753H357.255V127.243C357.682 126.737 358.28 126.316 359.048 125.978C359.819 125.64 360.638 125.472 361.511 125.472C362.401 125.472 363.202 125.631 363.917 125.95C364.629 126.268 365.236 126.709 365.738 127.272C366.239 127.834 366.623 128.508 366.891 129.295C367.16 130.082 367.295 130.944 367.295 131.881C367.295 132.837 367.142 133.732 366.836 134.565C366.53 135.4 366.089 136.121 365.515 136.73C364.94 137.34 364.254 137.817 363.457 138.164C362.66 138.51 361.77 138.684 360.787 138.684C360.12 138.684 359.475 138.614 358.855 138.473C358.233 138.332 357.7 138.113 357.255 137.812V144.025H355.031V125.753ZM360.871 127.58C360.129 127.58 359.438 127.749 358.799 128.086C358.159 128.423 357.645 128.836 357.255 129.323V135.592C357.811 135.967 358.357 136.224 358.896 136.365C359.434 136.505 359.999 136.575 360.592 136.575C361.261 136.575 361.862 136.459 362.401 136.224C362.938 135.99 363.392 135.672 363.763 135.268C364.133 134.866 364.421 134.383 364.625 133.821C364.828 133.258 364.931 132.64 364.931 131.966C364.931 131.329 364.842 130.743 364.666 130.208C364.491 129.675 364.225 129.21 363.874 128.817C363.522 128.423 363.095 128.119 362.596 127.904C362.094 127.688 361.519 127.58 360.871 127.58Z" fill="#2A273F"/>
<path fill-rule="evenodd" clip-rule="evenodd" d="M370.44 125.786H372.713V129.559H374.816C375.802 129.559 376.615 129.681 377.261 129.923C377.904 130.166 378.42 130.487 378.809 130.888C379.197 131.288 379.472 131.75 379.633 132.271C379.794 132.793 379.875 133.333 379.875 133.892C379.875 134.452 379.784 134.997 379.604 135.528C379.424 136.059 379.131 136.534 378.723 136.954C378.316 137.373 377.772 137.713 377.09 137.974C376.408 138.235 375.565 138.365 374.561 138.365H370.44V125.786ZM372.713 131.656V136.268H374.362C375.499 136.268 376.298 136.073 376.763 135.682C377.227 135.291 377.459 134.722 377.459 133.976C377.459 133.213 377.222 132.635 376.749 132.243C376.274 131.852 375.489 131.656 374.39 131.656H372.713ZM382.318 125.786H384.591V138.365H382.318V125.786Z" fill="#2A273F"/>
<path fill-rule="evenodd" clip-rule="evenodd" d="M395.176 131.852L400 138.365H397.236L393.511 133.278L389.732 138.365H387.107L391.903 131.964L387.39 125.786H390.154L393.596 130.538L397.094 125.786H399.719L395.176 131.852Z" fill="#2A273F"/>
<path fill-rule="evenodd" clip-rule="evenodd" d="M199.022 153.983H192.174V164.465H189.937V151.887H201.258V164.465H199.022V153.983Z" fill="#2A273F"/>
<path fill-rule="evenodd" clip-rule="evenodd" d="M213.815 154.094H209.424L209.285 156.19C209.135 157.955 208.913 159.38 208.618 160.465C208.32 161.551 207.959 162.387 207.534 162.976C207.107 163.564 206.616 163.96 206.06 164.161C205.505 164.364 204.902 164.465 204.254 164.465L204.088 162.314C204.328 162.332 204.606 162.272 204.921 162.134C205.237 161.996 205.542 161.693 205.838 161.224C206.134 160.755 206.403 160.084 206.645 159.21C206.885 158.337 207.043 157.183 207.117 155.749L207.339 151.887H216.038V164.3H213.815V154.094Z" fill="#2A273F"/>
<path fill-rule="evenodd" clip-rule="evenodd" d="M220.169 152.704C220.732 152.355 221.378 152.078 222.108 151.876C222.839 151.674 223.598 151.572 224.384 151.572C226.182 151.572 227.442 152.014 228.163 152.898C228.885 153.781 229.246 155.033 229.246 156.652V164.272H227.132V162.671C226.755 163.149 226.248 163.568 225.609 163.927C224.97 164.286 224.125 164.465 223.073 164.465C221.908 164.465 220.969 164.13 220.254 163.457C219.539 162.786 219.183 161.843 219.183 160.628C219.183 160.002 219.305 159.441 219.549 158.944C219.794 158.447 220.126 158.033 220.55 157.701C220.973 157.37 221.481 157.117 222.072 156.942C222.664 156.767 223.299 156.68 223.975 156.68C224.463 156.68 225.003 156.736 225.595 156.846C226.188 156.956 226.699 157.167 227.132 157.48C227.132 156.911 227.098 156.381 227.033 155.893C226.967 155.405 226.835 154.992 226.639 154.651C226.441 154.31 226.149 154.043 225.765 153.85C225.379 153.656 224.877 153.56 224.256 153.56C223.467 153.56 222.814 153.648 222.298 153.822C221.78 153.997 221.269 154.213 220.761 154.471L220.169 152.704ZM223.862 162.477C224.689 162.477 225.36 162.303 225.878 161.953C226.394 161.603 226.811 161.245 227.132 160.876V159.302C226.342 158.75 225.393 158.474 224.285 158.474C223.947 158.474 223.613 158.516 223.284 158.599C222.955 158.681 222.664 158.805 222.41 158.971C222.157 159.137 221.954 159.349 221.804 159.606C221.653 159.864 221.578 160.168 221.578 160.518C221.578 161.107 221.776 161.58 222.171 161.939C222.565 162.298 223.129 162.477 223.862 162.477Z" fill="#2A273F"/>
<path fill-rule="evenodd" clip-rule="evenodd" d="M231.447 151.887H242.768V154.123H238.211V164.465H236.002V154.123H231.447V151.887Z" fill="#2A273F"/>
<path fill-rule="evenodd" clip-rule="evenodd" d="M255.426 162.847C254.814 163.395 254.086 163.803 253.243 164.068C252.398 164.333 251.561 164.466 250.726 164.466C249.707 164.466 248.784 164.314 247.958 164.013C247.133 163.711 246.429 163.277 245.845 162.71C245.261 162.143 244.811 161.462 244.497 160.666C244.181 159.871 244.024 158.988 244.024 158.019C244.024 157.123 244.167 156.282 244.454 155.495C244.743 154.709 245.159 154.027 245.706 153.452C246.253 152.875 246.925 152.419 247.722 152.08C248.519 151.741 249.438 151.572 250.476 151.572C251.272 151.572 252.028 151.71 252.741 151.984C253.456 152.258 254.072 152.642 254.591 153.136C255.11 153.63 255.523 154.224 255.828 154.919C256.135 155.614 256.288 156.382 256.288 157.223C256.288 157.79 256.242 158.284 256.148 158.705H246.526C246.62 159.876 247.064 160.785 247.861 161.434C248.659 162.083 249.67 162.408 250.893 162.408C251.709 162.408 252.45 162.285 253.118 162.037C253.785 161.791 254.322 161.485 254.73 161.119L255.426 162.847ZM250.364 153.63C249.215 153.63 248.297 153.941 247.611 154.562C246.925 155.185 246.517 155.971 246.388 156.922H253.98C253.924 155.898 253.58 155.093 252.95 154.507C252.32 153.922 251.457 153.63 250.364 153.63Z" fill="#2A273F"/>
<path fill-rule="evenodd" clip-rule="evenodd" d="M257.457 151.887H260.295L264.623 157.953L259.986 164.465H257.232L262.093 157.953L257.457 151.887ZM265.185 151.887H267.434V164.465H265.185V151.887ZM270.525 157.953L275.471 164.465H272.689L267.996 157.953L272.352 151.887H275.134L270.525 157.953Z" fill="#2A273F"/>
<path fill-rule="evenodd" clip-rule="evenodd" d="M287.817 162.847C287.204 163.395 286.476 163.803 285.633 164.068C284.789 164.333 283.951 164.466 283.116 164.466C282.097 164.466 281.174 164.314 280.349 164.013C279.524 163.711 278.819 163.277 278.235 162.71C277.652 162.143 277.201 161.462 276.887 160.666C276.571 159.871 276.415 158.988 276.415 158.019C276.415 157.123 276.558 156.282 276.845 155.495C277.133 154.709 277.549 154.027 278.097 153.452C278.644 152.875 279.315 152.419 280.113 152.08C280.909 151.741 281.828 151.572 282.866 151.572C283.662 151.572 284.419 151.71 285.132 151.984C285.846 152.258 286.463 152.642 286.982 153.136C287.501 153.63 287.914 154.224 288.219 154.919C288.525 155.614 288.679 156.382 288.679 157.223C288.679 157.79 288.632 158.284 288.539 158.705H278.917C279.01 159.876 279.455 160.785 280.252 161.434C281.049 162.083 282.06 162.408 283.284 162.408C284.099 162.408 284.841 162.285 285.508 162.037C286.176 161.791 286.713 161.485 287.12 161.119L287.817 162.847ZM282.755 153.63C281.606 153.63 280.687 153.941 280.002 154.562C279.315 155.185 278.907 155.971 278.778 156.922H286.37C286.314 155.898 285.971 155.093 285.341 154.507C284.71 153.922 283.848 153.63 282.755 153.63Z" fill="#2A273F"/>
<path fill-rule="evenodd" clip-rule="evenodd" d="M291.51 164.465V151.77H293.786V161.221L301.184 151.77H303.46V164.465H301.184V155.015L293.786 164.465H291.51ZM295.465 145.283C295.579 146.768 296.309 147.511 297.655 147.511C298.927 147.511 299.619 146.768 299.733 145.283H301.867C301.867 145.847 301.767 146.368 301.568 146.848C301.368 147.327 301.084 147.741 300.715 148.09C300.344 148.438 299.903 148.715 299.391 148.922C298.879 149.129 298.3 149.231 297.655 149.231C296.954 149.231 296.333 149.129 295.792 148.922C295.251 148.715 294.8 148.438 294.441 148.09C294.079 147.741 293.806 147.327 293.616 146.848C293.426 146.368 293.331 145.847 293.331 145.283H295.465Z" fill="#2A273F"/>
</svg>
