<svg width="28" height="29" viewBox="0 0 28 29" fill="none" xmlns="http://www.w3.org/2000/svg">
<path fill-rule="evenodd" clip-rule="evenodd" d="M9.01109 17.5643L0.0634766 26.512L1.7438 28.1924L10.7079 19.2283C12.4959 20.626 14.7464 21.4594 17.1899 21.4594C23.0067 21.4594 27.729 16.7371 27.729 10.9203C27.729 5.10369 23.0067 0.381348 17.1899 0.381348C11.3733 0.381348 6.65093 5.10369 6.65093 10.9203C6.65093 13.4384 7.53596 15.7514 9.01109 17.5643ZM17.1899 2.75773C21.695 2.75773 25.3526 6.41533 25.3526 10.9203C25.3526 15.4254 21.695 19.083 17.1899 19.083C12.6849 19.083 9.02732 15.4254 9.02732 10.9203C9.02732 6.41533 12.6849 2.75773 17.1899 2.75773Z" fill="#1D1346" fill-opacity="0.35"/>
</svg>
